M48
; DRILL file {KiCad 6.0.2+dfsg-1} date Tue 26 Dec 2023 07:09:40 PM CET
; FORMAT={-:-/ absolute / metric / decimal}
; #@! TF.CreationDate,2023-12-26T19:09:40+01:00
; #@! TF.GenerationSoftware,Kicad,Pcbnew,6.0.2+dfsg-1
; #@! TF.FileFunction,Plated,1,2,PTH
FMAT,2
METRIC
; #@! TA.AperFunction,Plated,PTH,ViaDrill
T1C0.400
; #@! TA.AperFunction,Plated,PTH,ComponentDrill
T2C1.000
%
G90
G05
T1
X141.25Y-104.85
X141.25Y-108.1
X142.5Y-108.5
X143.25Y-115.75
X143.8Y-84.7
X143.8Y-90.85
X143.824Y-109.511
X145.292Y-109.273
X146.065Y-116.6
X146.2Y-79.5
X146.25Y-81.1
X146.4Y-111.833
X146.4Y-113.631
X146.5Y-108.0
X148.05Y-108.5
X148.5Y-114.25
X150.835Y-115.313
X150.993Y-105.755
X151.5Y-89.5
X152.05Y-84.65
X152.1Y-81.9
X152.45Y-86.5
X152.65Y-103.95
X152.75Y-108.419
X153.45Y-106.6
X153.591Y-86.049
X154.024Y-112.13
X154.25Y-71.5
X154.335Y-110.0
X154.35Y-83.0
X154.516Y-105.549
X155.734Y-110.1
X155.85Y-86.85
X155.85Y-108.25
X156.55Y-88.15
X156.95Y-112.5
X157.9Y-80.4
X158.0Y-110.25
X158.25Y-98.9
X158.3Y-101.05
X158.475Y-105.549
X158.5Y-82.75
X159.0Y-79.05
X159.15Y-89.8
X159.2Y-93.55
X159.55Y-76.9
X159.75Y-114.149
X159.8Y-78.1
X160.25Y-100.8
X160.25Y-107.25
X160.75Y-112.5
X161.35Y-89.8
X161.4Y-81.4
X161.5Y-92.0
X161.7Y-73.59
X162.5Y-113.519
X163.0Y-81.126
X163.02Y-88.48
X163.4Y-89.85
X163.55Y-76.8
X163.6Y-77.95
X163.7Y-93.75
X163.8Y-79.45
X163.85Y-74.85
X164.05Y-103.1
X164.65Y-113.8
X164.85Y-100.8
X165.0Y-98.75
X165.0Y-119.25
X165.1Y-94.9
X165.15Y-82.65
X165.25Y-92.7
X165.25Y-110.5
X165.4Y-102.2
X166.05Y-74.3
X166.55Y-112.85
X166.749Y-120.7
X166.75Y-110.27
X167.25Y-71.5
X167.344Y-92.873
X167.45Y-106.75
X167.75Y-109.0
X168.0Y-116.25
X168.25Y-100.8
X168.45Y-92.0
X169.25Y-81.15
X169.45Y-106.75
X169.7Y-91.9
X169.7Y-105.65
X170.05Y-120.05
X170.2Y-112.7
X170.25Y-116.0
X170.5Y-77.5
X170.5Y-86.35
X170.6Y-94.75
X170.9Y-90.8
X171.35Y-109.9
X171.75Y-107.75
X171.805Y-72.055
X171.9Y-81.15
X171.9Y-100.05
X172.0Y-91.5
X172.65Y-73.05
X172.8Y-92.9
X173.315Y-112.685
X173.75Y-79.75
X173.8Y-84.1
X173.8Y-107.3
X173.9Y-81.85
X173.9Y-82.9
X174.0Y-76.0
X174.95Y-103.15
X176.0Y-105.25
X176.35Y-82.95
X176.4Y-81.9
X176.65Y-107.35
X177.502Y-92.101
X177.8Y-97.3
X178.25Y-110.9
X178.95Y-92.2
X179.75Y-91.25
X180.25Y-85.15
X180.35Y-94.05
X180.35Y-101.55
X180.55Y-110.95
X180.6Y-103.05
X180.7Y-81.65
X181.3Y-88.0
X181.55Y-93.05
X181.55Y-116.0
X181.75Y-105.05
X182.15Y-90.8
X182.2Y-89.05
X182.4Y-92.05
X182.45Y-83.25
X182.535Y-114.335
X182.65Y-122.25
X182.75Y-110.65
X183.5Y-72.35
X183.5Y-99.7
X183.95Y-109.5
X184.25Y-77.95
X184.25Y-114.4
X184.35Y-87.1
X184.55Y-79.6
X184.55Y-94.3
X184.55Y-106.1
X184.9Y-96.35
X185.111Y-122.005
X185.25Y-117.2
X185.95Y-114.4
X186.7Y-84.45
X186.8Y-109.85
X186.85Y-103.05
X187.7Y-114.85
X187.8Y-78.85
X188.0Y-105.25
X188.5Y-93.35
X188.55Y-117.15
X188.75Y-97.2
X188.9Y-91.8
X188.95Y-101.25
X189.0Y-75.75
X189.65Y-88.65
X189.75Y-114.9
X189.85Y-91.05
X190.4Y-79.0
X192.15Y-88.7
X192.25Y-103.0
X192.55Y-90.0
X193.15Y-82.55
X193.15Y-84.7
X193.35Y-98.6
X193.35Y-104.5
X194.0Y-106.0
X194.1Y-93.35
X194.45Y-108.75
X195.45Y-81.25
X195.5Y-111.5
X195.75Y-98.5
X197.282Y-85.0
X197.6Y-107.75
X198.1Y-103.05
X198.55Y-109.0
X198.7Y-93.3
X199.05Y-105.4
X199.25Y-115.2
X199.75Y-83.3
X199.75Y-91.5
X200.1Y-109.85
X200.4Y-112.8
X201.0Y-87.75
X201.05Y-73.05
X202.15Y-103.9
X202.25Y-116.2
X202.4Y-109.95
X202.5Y-106.0
X202.6Y-112.8
X202.95Y-86.75
X203.2Y-101.1
X206.05Y-109.169
X207.35Y-102.25
X207.9Y-71.55
X208.95Y-108.0
X209.35Y-120.05
X210.5Y-71.55
X211.0Y-118.0
X211.15Y-107.9
X211.15Y-111.1
X211.2Y-104.05
X211.2Y-109.65
X211.5Y-114.15
X213.25Y-99.25
X213.25Y-118.25
X213.4Y-114.4
X213.5Y-120.85
X214.05Y-109.8
X215.25Y-82.15
X215.6Y-110.45
X215.75Y-98.75
X217.35Y-107.75
X219.0Y-107.8
X219.243Y-114.662
X220.0Y-116.5
X221.6Y-117.7
X222.2Y-100.9
X223.2Y-114.1
X223.95Y-117.65
X224.7Y-108.45
X224.95Y-106.05
X225.35Y-112.7
X225.8Y-101.25
X225.9Y-61.912
X226.1Y-108.35
X226.75Y-78.5
X226.9Y-100.3
X227.0Y-98.75
X227.2Y-110.55
X227.25Y-87.5
X227.65Y-112.75
X228.545Y-106.759
X228.75Y-61.912
X229.2Y-110.7
X230.0Y-106.05
X230.25Y-111.75
X230.5Y-98.75
X230.5Y-113.5
X230.6Y-100.35
X231.0Y-107.9
X231.6Y-61.962
X232.35Y-109.2
X233.25Y-89.0
X235.25Y-103.75
X235.35Y-113.95
X235.4Y-118.349
X237.75Y-89.0
X241.65Y-114.5
X242.0Y-79.75
X242.25Y-70.0
X244.5Y-56.5
X244.5Y-64.25
T2
X217.75Y-67.75
X220.29Y-67.75
X222.83Y-67.75
X225.37Y-67.75
X227.91Y-67.75
X239.75Y-59.445
X239.75Y-61.985
X239.75Y-64.525
T0
M30
