G04 #@! TF.GenerationSoftware,KiCad,Pcbnew,6.0.2+dfsg-1*
G04 #@! TF.CreationDate,2023-12-26T19:09:33+01:00*
G04 #@! TF.ProjectId,vesuvius-badge-charlie,76657375-7669-4757-932d-62616467652d,rev?*
G04 #@! TF.SameCoordinates,Original*
G04 #@! TF.FileFunction,Copper,L1,Top*
G04 #@! TF.FilePolarity,Positive*
%FSLAX46Y46*%
G04 Gerber Fmt 4.6, Leading zero omitted, Abs format (unit mm)*
G04 Created by KiCad (PCBNEW 6.0.2+dfsg-1) date 2023-12-26 19:09:33*
%MOMM*%
%LPD*%
G01*
G04 APERTURE LIST*
G04 Aperture macros list*
%AMRoundRect*
0 Rectangle with rounded corners*
0 $1 Rounding radius*
0 $2 $3 $4 $5 $6 $7 $8 $9 X,Y pos of 4 corners*
0 Add a 4 corners polygon primitive as box body*
4,1,4,$2,$3,$4,$5,$6,$7,$8,$9,$2,$3,0*
0 Add four circle primitives for the rounded corners*
1,1,$1+$1,$2,$3*
1,1,$1+$1,$4,$5*
1,1,$1+$1,$6,$7*
1,1,$1+$1,$8,$9*
0 Add four rect primitives between the rounded corners*
20,1,$1+$1,$2,$3,$4,$5,0*
20,1,$1+$1,$4,$5,$6,$7,0*
20,1,$1+$1,$6,$7,$8,$9,0*
20,1,$1+$1,$8,$9,$2,$3,0*%
G04 Aperture macros list end*
G04 #@! TA.AperFunction,SMDPad,CuDef*
%ADD10RoundRect,0.147500X-0.147500X-0.172500X0.147500X-0.172500X0.147500X0.172500X-0.147500X0.172500X0*%
G04 #@! TD*
G04 #@! TA.AperFunction,ComponentPad*
%ADD11R,1.700000X1.700000*%
G04 #@! TD*
G04 #@! TA.AperFunction,ComponentPad*
%ADD12O,1.700000X1.700000*%
G04 #@! TD*
G04 #@! TA.AperFunction,SMDPad,CuDef*
%ADD13RoundRect,0.218750X-0.218750X-0.256250X0.218750X-0.256250X0.218750X0.256250X-0.218750X0.256250X0*%
G04 #@! TD*
G04 #@! TA.AperFunction,SMDPad,CuDef*
%ADD14RoundRect,0.218750X0.256250X-0.218750X0.256250X0.218750X-0.256250X0.218750X-0.256250X-0.218750X0*%
G04 #@! TD*
G04 #@! TA.AperFunction,SMDPad,CuDef*
%ADD15RoundRect,0.218750X0.218750X0.256250X-0.218750X0.256250X-0.218750X-0.256250X0.218750X-0.256250X0*%
G04 #@! TD*
G04 #@! TA.AperFunction,SMDPad,CuDef*
%ADD16RoundRect,0.050000X-0.050000X0.362500X-0.050000X-0.362500X0.050000X-0.362500X0.050000X0.362500X0*%
G04 #@! TD*
G04 #@! TA.AperFunction,SMDPad,CuDef*
%ADD17RoundRect,0.050000X-0.362500X0.050000X-0.362500X-0.050000X0.362500X-0.050000X0.362500X0.050000X0*%
G04 #@! TD*
G04 #@! TA.AperFunction,SMDPad,CuDef*
%ADD18R,2.300000X2.300000*%
G04 #@! TD*
G04 #@! TA.AperFunction,SMDPad,CuDef*
%ADD19RoundRect,0.147500X0.147500X0.172500X-0.147500X0.172500X-0.147500X-0.172500X0.147500X-0.172500X0*%
G04 #@! TD*
G04 #@! TA.AperFunction,SMDPad,CuDef*
%ADD20RoundRect,0.200000X-0.275000X0.200000X-0.275000X-0.200000X0.275000X-0.200000X0.275000X0.200000X0*%
G04 #@! TD*
G04 #@! TA.AperFunction,SMDPad,CuDef*
%ADD21RoundRect,0.140000X0.140000X0.170000X-0.140000X0.170000X-0.140000X-0.170000X0.140000X-0.170000X0*%
G04 #@! TD*
G04 #@! TA.AperFunction,SMDPad,CuDef*
%ADD22RoundRect,0.200000X0.275000X-0.200000X0.275000X0.200000X-0.275000X0.200000X-0.275000X-0.200000X0*%
G04 #@! TD*
G04 #@! TA.AperFunction,ViaPad*
%ADD23C,0.800000*%
G04 #@! TD*
G04 #@! TA.AperFunction,Conductor*
%ADD24C,0.270000*%
G04 #@! TD*
G04 #@! TA.AperFunction,Conductor*
%ADD25C,0.200000*%
G04 #@! TD*
G04 #@! TA.AperFunction,Conductor*
%ADD26C,0.300000*%
G04 #@! TD*
G04 #@! TA.AperFunction,Conductor*
%ADD27C,0.150000*%
G04 #@! TD*
G04 APERTURE END LIST*
D10*
X243530000Y-55250000D03*
X244500000Y-55250000D03*
D11*
X239750000Y-64525000D03*
D12*
X239750000Y-61985000D03*
X239750000Y-59445000D03*
D11*
X217750000Y-67750000D03*
D12*
X220290000Y-67750000D03*
X222830000Y-67750000D03*
X225370000Y-67750000D03*
X227910000Y-67750000D03*
D13*
X155462500Y-114000000D03*
X157037500Y-114000000D03*
D14*
X221250000Y-115287500D03*
X221250000Y-113712500D03*
D13*
X190512500Y-109850000D03*
X192087500Y-109850000D03*
D15*
X136602500Y-111100000D03*
X135027500Y-111100000D03*
D13*
X161527500Y-108750000D03*
X163102500Y-108750000D03*
X214262500Y-111600000D03*
X215837500Y-111600000D03*
X173212500Y-106000000D03*
X174787500Y-106000000D03*
D14*
X147750000Y-107287500D03*
X147750000Y-105712500D03*
D13*
X237777500Y-104600000D03*
X239352500Y-104600000D03*
D14*
X204500000Y-107037500D03*
X204500000Y-105462500D03*
D10*
X145065000Y-115100000D03*
X146035000Y-115100000D03*
X189580000Y-111600000D03*
X190550000Y-111600000D03*
X172050000Y-104600000D03*
X173020000Y-104600000D03*
X171315000Y-111350000D03*
X172285000Y-111350000D03*
X168080000Y-119100000D03*
X169050000Y-119100000D03*
D16*
X162600000Y-82762500D03*
X162200000Y-82762500D03*
X161800000Y-82762500D03*
X161400000Y-82762500D03*
X161000000Y-82762500D03*
X160600000Y-82762500D03*
X160200000Y-82762500D03*
D17*
X159462500Y-83500000D03*
X159462500Y-83900000D03*
X159462500Y-84300000D03*
X159462500Y-84700000D03*
X159462500Y-85100000D03*
X159462500Y-85500000D03*
X159462500Y-85900000D03*
D16*
X160200000Y-86637500D03*
X160600000Y-86637500D03*
X161000000Y-86637500D03*
X161400000Y-86637500D03*
X161800000Y-86637500D03*
X162200000Y-86637500D03*
X162600000Y-86637500D03*
D17*
X163337500Y-85900000D03*
X163337500Y-85500000D03*
X163337500Y-85100000D03*
X163337500Y-84700000D03*
X163337500Y-84300000D03*
X163337500Y-83900000D03*
X163337500Y-83500000D03*
D18*
X161400000Y-84700000D03*
D19*
X140485000Y-76050000D03*
X139515000Y-76050000D03*
D10*
X149065000Y-115850000D03*
X150035000Y-115850000D03*
D20*
X207900000Y-68475000D03*
X207900000Y-70125000D03*
X210450000Y-68475000D03*
X210450000Y-70125000D03*
D10*
X198815000Y-118600000D03*
X199785000Y-118600000D03*
X236565000Y-110350000D03*
X237535000Y-110350000D03*
X217080000Y-106600000D03*
X218050000Y-106600000D03*
X184050000Y-97850000D03*
X185020000Y-97850000D03*
X225315000Y-111350000D03*
X226285000Y-111350000D03*
X197050000Y-100600000D03*
X198020000Y-100600000D03*
X160365000Y-115000000D03*
X161335000Y-115000000D03*
X239830000Y-113600000D03*
X240800000Y-113600000D03*
X214815000Y-105350000D03*
X215785000Y-105350000D03*
X201300000Y-102100000D03*
X202270000Y-102100000D03*
X223315000Y-102100000D03*
X224285000Y-102100000D03*
D19*
X135785000Y-106850000D03*
X134815000Y-106850000D03*
D10*
X184815000Y-121100000D03*
X185785000Y-121100000D03*
X143565000Y-108600000D03*
X144535000Y-108600000D03*
X199315000Y-116600000D03*
X200285000Y-116600000D03*
X185330000Y-118600000D03*
X186300000Y-118600000D03*
X189230000Y-80650000D03*
X190200000Y-80650000D03*
X180065000Y-90100000D03*
X181035000Y-90100000D03*
X192815000Y-107100000D03*
X193785000Y-107100000D03*
X127015000Y-69750000D03*
X127985000Y-69750000D03*
X200050000Y-109100000D03*
X201020000Y-109100000D03*
X235315000Y-112850000D03*
X236285000Y-112850000D03*
X174050000Y-98100000D03*
X175020000Y-98100000D03*
X242565000Y-82600000D03*
X243535000Y-82600000D03*
X208550000Y-121600000D03*
X209520000Y-121600000D03*
X184830000Y-108100000D03*
X185800000Y-108100000D03*
X231065000Y-83100000D03*
X232035000Y-83100000D03*
X147065000Y-115600000D03*
X148035000Y-115600000D03*
D19*
X163285000Y-110250000D03*
X162315000Y-110250000D03*
X135285000Y-114600000D03*
X134315000Y-114600000D03*
D10*
X222065000Y-118600000D03*
X223035000Y-118600000D03*
X231315000Y-111600000D03*
X232285000Y-111600000D03*
X182315000Y-85850000D03*
X183285000Y-85850000D03*
D21*
X161880000Y-77100000D03*
X160920000Y-77100000D03*
D10*
X187565000Y-113350000D03*
X188535000Y-113350000D03*
X209815000Y-106100000D03*
X210785000Y-106100000D03*
D19*
X132235000Y-87300000D03*
X131265000Y-87300000D03*
D10*
X156800000Y-106350000D03*
X157770000Y-106350000D03*
X158315000Y-115000000D03*
X159285000Y-115000000D03*
X245065000Y-115350000D03*
X246035000Y-115350000D03*
X229300000Y-109100000D03*
X230270000Y-109100000D03*
X186815000Y-98600000D03*
X187785000Y-98600000D03*
X200050000Y-106850000D03*
X201020000Y-106850000D03*
X200315000Y-114850000D03*
X201285000Y-114850000D03*
X144065000Y-113600000D03*
X145035000Y-113600000D03*
D19*
X136035000Y-112850000D03*
X135065000Y-112850000D03*
D10*
X144050000Y-111850000D03*
X145020000Y-111850000D03*
X173315000Y-109850000D03*
X174285000Y-109850000D03*
X169565000Y-100850000D03*
X170535000Y-100850000D03*
X221550000Y-116850000D03*
X222520000Y-116850000D03*
X161565000Y-107100000D03*
X162535000Y-107100000D03*
X206315000Y-105600000D03*
X207285000Y-105600000D03*
X211300000Y-116600000D03*
X212270000Y-116600000D03*
X162315000Y-114350000D03*
X163285000Y-114350000D03*
X182565000Y-107100000D03*
X183535000Y-107100000D03*
X208115000Y-78050000D03*
X209085000Y-78050000D03*
X167565000Y-105600000D03*
X168535000Y-105600000D03*
X140065000Y-106850000D03*
X141035000Y-106850000D03*
X162550000Y-112600000D03*
X163520000Y-112600000D03*
X243300000Y-68100000D03*
X244270000Y-68100000D03*
X184800000Y-123100000D03*
X185770000Y-123100000D03*
X194050000Y-96600000D03*
X195020000Y-96600000D03*
X226815000Y-72350000D03*
X227785000Y-72350000D03*
X195050000Y-106100000D03*
X196020000Y-106100000D03*
D19*
X121265000Y-77250000D03*
X122235000Y-77250000D03*
D10*
X230330000Y-110350000D03*
X231300000Y-110350000D03*
D19*
X131785000Y-116100000D03*
X130815000Y-116100000D03*
D21*
X161880000Y-78725000D03*
X160920000Y-78725000D03*
D10*
X226065000Y-106850000D03*
X227035000Y-106850000D03*
X168050000Y-112850000D03*
X169020000Y-112850000D03*
X184080000Y-113350000D03*
X185050000Y-113350000D03*
D22*
X231600000Y-65087500D03*
X231600000Y-63437500D03*
D10*
X167565000Y-123350000D03*
X168535000Y-123350000D03*
X154065000Y-111100000D03*
X155035000Y-111100000D03*
X168050000Y-121350000D03*
X169020000Y-121350000D03*
X187050000Y-107350000D03*
X188020000Y-107350000D03*
X198665000Y-77250000D03*
X199635000Y-77250000D03*
X143815000Y-110100000D03*
X144785000Y-110100000D03*
X246065000Y-118350000D03*
X247035000Y-118350000D03*
X236315000Y-108350000D03*
X237285000Y-108350000D03*
X226065000Y-104850000D03*
X227035000Y-104850000D03*
X174982500Y-80450000D03*
X175952500Y-80450000D03*
X185080000Y-115600000D03*
X186050000Y-115600000D03*
X224300000Y-113850000D03*
X225270000Y-113850000D03*
X154065000Y-108850000D03*
X155035000Y-108850000D03*
X236550000Y-106350000D03*
X237520000Y-106350000D03*
D21*
X161880000Y-80350000D03*
X160920000Y-80350000D03*
D19*
X169035000Y-115100000D03*
X168065000Y-115100000D03*
D10*
X242565000Y-115100000D03*
X243535000Y-115100000D03*
X177800000Y-94100000D03*
X178770000Y-94100000D03*
X250830000Y-72350000D03*
X251800000Y-72350000D03*
D19*
X136800000Y-109100000D03*
X135830000Y-109100000D03*
D10*
X168050000Y-110350000D03*
X169020000Y-110350000D03*
X212065000Y-108600000D03*
X213035000Y-108600000D03*
X192065000Y-92100000D03*
X193035000Y-92100000D03*
X182565000Y-124100000D03*
X183535000Y-124100000D03*
X167315000Y-107850000D03*
X168285000Y-107850000D03*
X159330000Y-105850000D03*
X160300000Y-105850000D03*
X181565000Y-112600000D03*
X182535000Y-112600000D03*
D20*
X157750000Y-88100000D03*
X157750000Y-89750000D03*
D10*
X154815000Y-112600000D03*
X155785000Y-112600000D03*
X169565000Y-104600000D03*
X170535000Y-104600000D03*
X200300000Y-111100000D03*
X201270000Y-111100000D03*
X226330000Y-109350000D03*
X227300000Y-109350000D03*
X154565000Y-107100000D03*
X155535000Y-107100000D03*
X215880000Y-85300000D03*
X216850000Y-85300000D03*
X178550000Y-109850000D03*
X179520000Y-109850000D03*
X234330000Y-95100000D03*
X235300000Y-95100000D03*
X174815000Y-108350000D03*
X175785000Y-108350000D03*
X228065000Y-107600000D03*
X229035000Y-107600000D03*
D19*
X143685000Y-83450000D03*
X142715000Y-83450000D03*
D10*
X179815000Y-107850000D03*
X180785000Y-107850000D03*
X144815000Y-106600000D03*
X145785000Y-106600000D03*
X223315000Y-115350000D03*
X224285000Y-115350000D03*
D22*
X228750000Y-65087500D03*
X228750000Y-63437500D03*
D19*
X134785000Y-116600000D03*
X133815000Y-116600000D03*
D22*
X225900000Y-65087500D03*
X225900000Y-63437500D03*
D10*
X189815000Y-86850000D03*
X190785000Y-86850000D03*
X202080000Y-107850000D03*
X203050000Y-107850000D03*
X212565000Y-106100000D03*
X213535000Y-106100000D03*
X197565000Y-106600000D03*
X198535000Y-106600000D03*
X149550000Y-106600000D03*
X150520000Y-106600000D03*
X168080000Y-117100000D03*
X169050000Y-117100000D03*
X185065000Y-100350000D03*
X186035000Y-100350000D03*
X185065000Y-111350000D03*
X186035000Y-111350000D03*
X237830000Y-112350000D03*
X238800000Y-112350000D03*
D19*
X132785000Y-107350000D03*
X131815000Y-107350000D03*
D10*
X137550000Y-107100000D03*
X138520000Y-107100000D03*
X210815000Y-119600000D03*
X211785000Y-119600000D03*
X165080000Y-123600000D03*
X166050000Y-123600000D03*
X189815000Y-107100000D03*
X190785000Y-107100000D03*
X211565000Y-112600000D03*
X212535000Y-112600000D03*
X168630000Y-75750000D03*
X169600000Y-75750000D03*
X142565000Y-106850000D03*
X143535000Y-106850000D03*
D23*
X244500000Y-56500000D03*
X226750000Y-78500000D03*
X151500000Y-89500000D03*
X244500000Y-64250000D03*
X168000000Y-116250000D03*
X170250000Y-116000000D03*
X176000000Y-105250000D03*
X172000000Y-91500000D03*
X167344378Y-92872881D03*
X171750000Y-107750000D03*
X166750000Y-110270020D03*
X160250000Y-107250000D03*
X167750000Y-109000000D03*
X165250000Y-110500000D03*
X160750000Y-112500000D03*
X159750000Y-114149500D03*
X165000000Y-119250000D03*
X202500000Y-106000000D03*
X211000000Y-118000000D03*
X213250000Y-118250000D03*
X220000000Y-116500000D03*
X158000000Y-110250000D03*
X153449500Y-106600000D03*
X143250000Y-115750000D03*
X148500000Y-114250000D03*
X150834525Y-115312982D03*
X146065000Y-116600000D03*
X142500000Y-108500000D03*
X146500000Y-108000000D03*
X227250000Y-87500000D03*
X235250000Y-103750000D03*
X237750000Y-89000000D03*
X242000000Y-79750000D03*
X233250000Y-89000000D03*
X242250000Y-70000000D03*
X154350000Y-83000000D03*
X161700000Y-73589989D03*
X161350000Y-89800000D03*
X201050000Y-73050000D03*
X159150000Y-89800000D03*
X172650000Y-73050000D03*
X179750000Y-91250000D03*
X198700000Y-93300000D03*
X163000000Y-81125500D03*
X176400000Y-81900000D03*
X215250000Y-82150000D03*
X173900000Y-81850000D03*
X188500000Y-93350000D03*
X161400000Y-81400000D03*
X194100000Y-93350000D03*
X182400000Y-92050000D03*
X225900000Y-61912500D03*
X228750000Y-61912500D03*
X156550000Y-88150000D03*
X159550000Y-76900000D03*
X182535000Y-114335000D03*
X187700000Y-114850000D03*
X177502250Y-92101243D03*
X180550000Y-110950500D03*
X184900000Y-96350000D03*
X166749500Y-120700000D03*
X189750000Y-114900000D03*
X170050000Y-120050000D03*
X184550000Y-94300000D03*
X180350000Y-94050000D03*
X185950000Y-114400000D03*
X156950000Y-112500000D03*
X184250000Y-114400000D03*
X164650000Y-113800000D03*
X162500000Y-113519500D03*
X170200000Y-112700000D03*
X154024406Y-112129837D03*
X185111076Y-122004576D03*
X154335500Y-110000000D03*
X182650000Y-122250000D03*
X170600000Y-94750000D03*
X182750000Y-110650000D03*
X169700000Y-105650000D03*
X171900000Y-100050000D03*
X169700000Y-91900000D03*
X155734500Y-110100000D03*
X181550000Y-116000000D03*
X178250000Y-110900000D03*
X155850000Y-108250000D03*
X152650000Y-103950000D03*
X161500000Y-92000000D03*
X168450000Y-92000000D03*
X173315000Y-112685000D03*
X152750000Y-108419020D03*
X186800000Y-109850000D03*
X172800000Y-92900000D03*
X173800000Y-107300000D03*
X145292385Y-109272906D03*
X188000000Y-105250000D03*
X166550000Y-112850000D03*
X171350000Y-109900000D03*
X176650000Y-107350000D03*
X177800000Y-97300000D03*
X181750000Y-105050000D03*
X143824405Y-109511071D03*
X183950000Y-109500000D03*
X184550000Y-106100000D03*
X146400000Y-113631201D03*
X146400000Y-111832681D03*
X148050000Y-108500000D03*
X165250000Y-92699500D03*
X150992631Y-105754968D03*
X167450000Y-106750000D03*
X186850000Y-103050000D03*
X180600000Y-103050000D03*
X165100000Y-94900000D03*
X154515763Y-105549500D03*
X164050000Y-103100000D03*
X174950000Y-103150000D03*
X169450000Y-106750000D03*
X158474676Y-105549500D03*
X141250000Y-104850000D03*
X141250000Y-108100000D03*
X182200000Y-89050000D03*
X210500000Y-71550000D03*
X202950000Y-86750000D03*
X189650000Y-88650000D03*
X192150000Y-88700000D03*
X163019622Y-88480378D03*
X163400000Y-89850000D03*
X201000000Y-87750000D03*
X207900000Y-71550000D03*
X192550000Y-90000000D03*
X182150000Y-90800000D03*
X188900000Y-91800000D03*
X231600000Y-61962500D03*
X170500000Y-77500000D03*
X195750000Y-98500000D03*
X160250000Y-100800000D03*
X235350000Y-113950500D03*
X194000000Y-106000000D03*
X197282193Y-85000019D03*
X164850000Y-100800000D03*
X170500000Y-86350000D03*
X195500000Y-111500000D03*
X152450000Y-86500000D03*
X170900000Y-90800000D03*
X155850000Y-86850000D03*
X168250000Y-100800000D03*
X235400000Y-118349500D03*
X209350000Y-120050000D03*
X207350000Y-102250000D03*
X213250000Y-99250000D03*
X213500000Y-120850000D03*
X227000000Y-98750000D03*
X199250000Y-115200000D03*
X230500000Y-113500000D03*
X223950000Y-117650000D03*
X202250000Y-116200000D03*
X215750000Y-98750000D03*
X163700000Y-93750000D03*
X221600000Y-117700000D03*
X159200000Y-93550000D03*
X230500000Y-98750000D03*
X200400000Y-112800000D03*
X153591265Y-86049011D03*
X167250000Y-71500000D03*
X188950000Y-101250000D03*
X241650000Y-114500000D03*
X194450000Y-108750000D03*
X171804977Y-72054977D03*
X189000000Y-75750000D03*
X202600000Y-112800000D03*
X183500000Y-72350500D03*
X158250000Y-98900000D03*
X154250000Y-71500000D03*
X165000000Y-98750000D03*
X230250000Y-111750000D03*
X213400000Y-114400000D03*
X181300000Y-88000000D03*
X219243232Y-114661505D03*
X229200000Y-110700000D03*
X200100000Y-109850000D03*
X202400000Y-109950000D03*
X146250000Y-81100000D03*
X166050000Y-74300000D03*
X195450000Y-81250000D03*
X223200000Y-114100000D03*
X146200000Y-79500000D03*
X193150000Y-82550000D03*
X211500000Y-114150000D03*
X232350000Y-109200000D03*
X174000000Y-76000000D03*
X180700000Y-81650000D03*
X227650000Y-112750000D03*
X222200000Y-100900000D03*
X225350000Y-112700000D03*
X208950000Y-108000000D03*
X184550000Y-79600000D03*
X193150000Y-84700000D03*
X225800000Y-101250000D03*
X211150000Y-107900000D03*
X152100000Y-81900000D03*
X211200000Y-104050000D03*
X152050000Y-84650011D03*
X199050000Y-105400000D03*
X158300000Y-101050000D03*
X228545167Y-106758663D03*
X192250000Y-103000000D03*
X198550000Y-109000000D03*
X143800000Y-90850000D03*
X143800000Y-84700000D03*
X224700000Y-108450000D03*
X215600000Y-110450000D03*
X180350000Y-101550000D03*
X206050000Y-109169020D03*
X211150000Y-111100000D03*
X165400000Y-102200000D03*
X197600000Y-107750000D03*
X163800000Y-79450000D03*
X227200000Y-110550000D03*
X214050000Y-109800000D03*
X178950000Y-92200000D03*
X181550000Y-93050000D03*
X231000000Y-107900000D03*
X211200000Y-109650000D03*
X193350000Y-104500000D03*
X188750000Y-97200000D03*
X193350000Y-98600000D03*
X226100000Y-108350000D03*
X159000000Y-79050000D03*
X158500000Y-82750000D03*
X190400000Y-79000000D03*
X203200000Y-101100000D03*
X187800000Y-78850000D03*
X199750000Y-83300000D03*
X165150000Y-82650000D03*
X224950000Y-106050000D03*
X230000000Y-106050000D03*
X217350500Y-107750000D03*
X180250000Y-85150000D03*
X182450000Y-83250000D03*
X202150000Y-103900000D03*
X219000000Y-107800000D03*
X198100000Y-103050000D03*
X173800000Y-84100000D03*
X199750000Y-91500000D03*
X189850000Y-91050000D03*
X186700000Y-84450000D03*
X157900000Y-80400000D03*
X169250000Y-81149500D03*
X230600000Y-100350000D03*
X171900000Y-81149500D03*
X226900000Y-100300000D03*
X173750000Y-79750000D03*
X159800000Y-78100000D03*
X184250000Y-77950000D03*
X163600000Y-77950000D03*
X163850000Y-74850000D03*
X163550000Y-76800000D03*
X176350000Y-82950000D03*
X188550000Y-117150000D03*
X184350000Y-87100000D03*
X183500000Y-99700000D03*
X173900000Y-82900000D03*
X185250000Y-117200000D03*
D24*
X244500000Y-55250000D02*
X244500000Y-56500000D01*
X241750000Y-55250000D02*
X239750000Y-57250000D01*
X239750000Y-57250000D02*
X239750000Y-59445000D01*
X243530000Y-55250000D02*
X241750000Y-55250000D01*
D25*
X184250000Y-77950000D02*
X187950000Y-74250000D01*
X187950000Y-74250000D02*
X216200000Y-74250000D01*
X216200000Y-74250000D02*
X221500000Y-68950000D01*
X221500000Y-68950000D02*
X221500000Y-67454345D01*
X221500000Y-67454345D02*
X223866845Y-65087500D01*
X223866845Y-65087500D02*
X225900000Y-65087500D01*
D26*
X234662020Y-64337980D02*
X235674511Y-63325489D01*
X235674511Y-63325489D02*
X243575489Y-63325489D01*
X243575489Y-63325489D02*
X244500000Y-64250000D01*
D25*
X226815000Y-78435000D02*
X226750000Y-78500000D01*
X226815000Y-72350000D02*
X226815000Y-78435000D01*
D24*
X128250000Y-89500000D02*
X151500000Y-89500000D01*
X121265000Y-77250000D02*
X121265000Y-82515000D01*
X121265000Y-82515000D02*
X128250000Y-89500000D01*
X122235000Y-77250000D02*
X127985000Y-71500000D01*
X127985000Y-71500000D02*
X127985000Y-69750000D01*
X127015000Y-69750000D02*
X121282252Y-75482748D01*
X121282252Y-75482748D02*
X121282252Y-77232748D01*
X127985000Y-69750000D02*
X133215000Y-69750000D01*
X133215000Y-69750000D02*
X139515000Y-76050000D01*
D26*
X214587020Y-64337980D02*
X234662020Y-64337980D01*
X227950000Y-67750000D02*
X231250000Y-67750000D01*
X231250000Y-67750000D02*
X234662020Y-64337980D01*
X210450000Y-68475000D02*
X214587020Y-64337980D01*
D25*
X169565000Y-104600000D02*
X170665000Y-103500000D01*
X170665000Y-103500000D02*
X174310741Y-103500000D01*
X174310741Y-103500000D02*
X175310741Y-104500000D01*
X175310741Y-104500000D02*
X177050000Y-104500000D01*
X177050000Y-104500000D02*
X179650000Y-107100000D01*
X179650000Y-107100000D02*
X182565000Y-107100000D01*
X168000000Y-116250000D02*
X168000000Y-115165000D01*
X168000000Y-115165000D02*
X168065000Y-115100000D01*
D24*
X168080000Y-117100000D02*
X168080000Y-116330000D01*
X168080000Y-116330000D02*
X168000000Y-116250000D01*
D25*
X181550000Y-116000000D02*
X170250000Y-116000000D01*
X175250000Y-106000000D02*
X176000000Y-105250000D01*
X174787500Y-106000000D02*
X175250000Y-106000000D01*
X169150000Y-83900000D02*
X172000000Y-86750000D01*
X172000000Y-86750000D02*
X172000000Y-91500000D01*
X163337500Y-83900000D02*
X169150000Y-83900000D01*
X163337500Y-85500000D02*
X165750000Y-85500000D01*
X167045850Y-86795850D02*
X167045850Y-88545850D01*
X165750000Y-85500000D02*
X167045850Y-86795850D01*
D24*
X167045850Y-92574353D02*
X167045850Y-88545850D01*
X167344378Y-92872881D02*
X167045850Y-92574353D01*
X171750000Y-107750000D02*
X171750000Y-107462500D01*
X171750000Y-107462500D02*
X173212500Y-106000000D01*
X158500000Y-107250000D02*
X156500000Y-109250000D01*
X160250000Y-107250000D02*
X158500000Y-107250000D01*
X161565000Y-107100000D02*
X160400000Y-107100000D01*
X160400000Y-107100000D02*
X160250000Y-107250000D01*
X166750000Y-110270020D02*
X167970020Y-110270020D01*
X167970020Y-110270020D02*
X168050000Y-110350000D01*
D25*
X155734500Y-110100000D02*
X158067250Y-112432750D01*
X160750000Y-112500000D02*
X158134500Y-112500000D01*
X164535000Y-109000000D02*
X167750000Y-109000000D01*
X163285000Y-110250000D02*
X164535000Y-109000000D01*
X169020000Y-112850000D02*
X170520000Y-111350000D01*
X170520000Y-111350000D02*
X171315000Y-111350000D01*
X169020000Y-110350000D02*
X168400480Y-110969520D01*
X168400480Y-110969520D02*
X165719520Y-110969520D01*
X165719520Y-110969520D02*
X165250000Y-110500000D01*
X162550000Y-112600000D02*
X160850000Y-112600000D01*
X160850000Y-112600000D02*
X160750000Y-112500000D01*
X160365000Y-114764500D02*
X159750000Y-114149500D01*
X160365000Y-115000000D02*
X160365000Y-114764500D01*
X158315000Y-115000000D02*
X165080000Y-121765000D01*
X165080000Y-121765000D02*
X165080000Y-123600000D01*
X157037500Y-114000000D02*
X158285000Y-114000000D01*
X158285000Y-114000000D02*
X159285000Y-115000000D01*
X164615000Y-119250000D02*
X160365000Y-115000000D01*
X165000000Y-119250000D02*
X164615000Y-119250000D01*
X203037500Y-105462500D02*
X202500000Y-106000000D01*
X204500000Y-105462500D02*
X203037500Y-105462500D01*
X207285000Y-105600000D02*
X206665480Y-106219520D01*
X206665480Y-106219520D02*
X205257020Y-106219520D01*
X205257020Y-106219520D02*
X204500000Y-105462500D01*
X203050000Y-107850000D02*
X203687500Y-107850000D01*
X203687500Y-107850000D02*
X204500000Y-107037500D01*
X211000000Y-118000000D02*
X211500000Y-117500000D01*
X211500000Y-117500000D02*
X211500000Y-116800000D01*
X211500000Y-116800000D02*
X211300000Y-116600000D01*
X211300000Y-116600000D02*
X206400000Y-116600000D01*
X206400000Y-116600000D02*
X202600000Y-112800000D01*
X220000000Y-116500000D02*
X215000000Y-116500000D01*
X215000000Y-116500000D02*
X213250000Y-118250000D01*
X220000000Y-116500000D02*
X220037500Y-116500000D01*
X220037500Y-116500000D02*
X221250000Y-115287500D01*
D24*
X221250000Y-113712500D02*
X222520000Y-114982500D01*
X222520000Y-114982500D02*
X222520000Y-116850000D01*
X214262500Y-111600000D02*
X214350000Y-111600000D01*
X214350000Y-111600000D02*
X216462500Y-113712500D01*
X216462500Y-113712500D02*
X221250000Y-113712500D01*
D25*
X174787500Y-106000000D02*
X174787500Y-107352500D01*
X174787500Y-107352500D02*
X175785000Y-108350000D01*
X173020000Y-104600000D02*
X173387500Y-104600000D01*
X173387500Y-104600000D02*
X174787500Y-106000000D01*
D24*
X155435000Y-109250000D02*
X155035000Y-108850000D01*
X156500000Y-109250000D02*
X155435000Y-109250000D01*
D25*
X162315000Y-110250000D02*
X162315000Y-111395000D01*
X162315000Y-111395000D02*
X163520000Y-112600000D01*
X163102500Y-108750000D02*
X163102500Y-110067500D01*
X163102500Y-110067500D02*
X163285000Y-110250000D01*
X162535000Y-107100000D02*
X162535000Y-108182500D01*
X162535000Y-108182500D02*
X163102500Y-108750000D01*
X161527500Y-108750000D02*
X161527500Y-109462500D01*
X161527500Y-109462500D02*
X162315000Y-110250000D01*
X158000000Y-110250000D02*
X160027500Y-110250000D01*
X160027500Y-110250000D02*
X161527500Y-108750000D01*
X153150000Y-106600000D02*
X154065000Y-106600000D01*
X150520000Y-106600000D02*
X153150000Y-106600000D01*
X162900000Y-115400000D02*
X161735000Y-115400000D01*
X161735000Y-115400000D02*
X161335000Y-115000000D01*
X155785000Y-112600000D02*
X155785000Y-112747500D01*
X155785000Y-112747500D02*
X157037500Y-114000000D01*
X155035000Y-111100000D02*
X155035000Y-111850000D01*
X155035000Y-111850000D02*
X155785000Y-112600000D01*
X143250000Y-115750000D02*
X136435000Y-115750000D01*
X136435000Y-115750000D02*
X135285000Y-114600000D01*
X154024406Y-112129837D02*
X152823022Y-113331221D01*
X152823022Y-113331221D02*
X149418779Y-113331221D01*
X149418779Y-113331221D02*
X148500000Y-114250000D01*
X143250000Y-115750000D02*
X143900000Y-115100000D01*
X143900000Y-115100000D02*
X145065000Y-115100000D01*
X150834525Y-115312982D02*
X152147507Y-114000000D01*
X152147507Y-114000000D02*
X155462500Y-114000000D01*
X158315000Y-115000000D02*
X155315000Y-118000000D01*
X155315000Y-118000000D02*
X151215000Y-118000000D01*
X151215000Y-118000000D02*
X149065000Y-115850000D01*
X142500000Y-108500000D02*
X142500000Y-108315000D01*
X142500000Y-108315000D02*
X141035000Y-106850000D01*
X143565000Y-108600000D02*
X142600000Y-108600000D01*
X142600000Y-108600000D02*
X142500000Y-108500000D01*
X146500000Y-107250000D02*
X146500000Y-108000000D01*
X147300480Y-106449520D02*
X146500000Y-107250000D01*
X149399520Y-106449520D02*
X147300480Y-106449520D01*
X149550000Y-106600000D02*
X149399520Y-106449520D01*
D24*
X147750000Y-107287500D02*
X147750000Y-108200000D01*
X147750000Y-108200000D02*
X148050000Y-108500000D01*
D25*
X147750000Y-105712500D02*
X149960904Y-105712500D01*
X149960904Y-105712500D02*
X150520000Y-106271596D01*
X150520000Y-106271596D02*
X150520000Y-106600000D01*
X145785000Y-106600000D02*
X146672500Y-105712500D01*
X146672500Y-105712500D02*
X147750000Y-105712500D01*
X235250000Y-103750000D02*
X230949511Y-99449511D01*
X234250000Y-89010741D02*
X232739259Y-87500000D01*
X230099031Y-99449511D02*
X229500000Y-98850480D01*
X234250000Y-89750000D02*
X234250000Y-89010741D01*
X232739259Y-87500000D02*
X227250000Y-87500000D01*
X229500000Y-94500000D02*
X234250000Y-89750000D01*
X229500000Y-98850480D02*
X229500000Y-94500000D01*
X230949511Y-99449511D02*
X230099031Y-99449511D01*
X229000000Y-91000000D02*
X231000000Y-89000000D01*
X237750000Y-89000000D02*
X237750000Y-84000000D01*
X229000000Y-106303830D02*
X229000000Y-91000000D01*
X231000000Y-89000000D02*
X233250000Y-89000000D01*
X228545167Y-106758663D02*
X229000000Y-106303830D01*
X237750000Y-84000000D02*
X242000000Y-79750000D01*
X242250000Y-70000000D02*
X242250000Y-69150000D01*
X242250000Y-69150000D02*
X243300000Y-68100000D01*
X244270000Y-68100000D02*
X244270000Y-66770000D01*
X244270000Y-66770000D02*
X243750000Y-66250000D01*
X243750000Y-66250000D02*
X233885000Y-66250000D01*
X233885000Y-66250000D02*
X227785000Y-72350000D01*
X210450000Y-70125000D02*
X217955000Y-70125000D01*
X217955000Y-70125000D02*
X220330000Y-67750000D01*
X207900000Y-71493573D02*
X210219053Y-69174520D01*
X210219053Y-69174520D02*
X217325480Y-69174520D01*
X217325480Y-69174520D02*
X217790000Y-68710000D01*
X217790000Y-68710000D02*
X217790000Y-67750000D01*
X215250000Y-82150000D02*
X215250000Y-79500000D01*
X215250000Y-79500000D02*
X222870000Y-71880000D01*
X222870000Y-71880000D02*
X222870000Y-67750000D01*
X150250000Y-76434505D02*
X150250000Y-82220838D01*
X159100000Y-89750000D02*
X159150000Y-89800000D01*
X152179651Y-83000000D02*
X154350000Y-83000000D01*
X157850000Y-89750000D02*
X159100000Y-89750000D01*
X201050000Y-73050000D02*
X172650000Y-73050000D01*
X151400489Y-82220838D02*
X150250000Y-82220838D01*
X151400489Y-82220838D02*
X152179651Y-83000000D01*
X154647764Y-73577742D02*
X154660011Y-73589989D01*
X153172258Y-73577742D02*
X150327742Y-76422258D01*
X161400000Y-89750000D02*
X161400000Y-86637500D01*
X153172258Y-73577742D02*
X154647764Y-73577742D01*
X161700000Y-73589989D02*
X154660011Y-73589989D01*
X157750000Y-89750000D02*
X157850000Y-89750000D01*
X161350000Y-89800000D02*
X161400000Y-89750000D01*
D27*
X182400000Y-92050000D02*
X187200000Y-92050000D01*
X167575862Y-81125500D02*
X163000000Y-81125500D01*
X173874011Y-81824011D02*
X168274373Y-81824011D01*
X168274373Y-81824011D02*
X167575862Y-81125500D01*
X173900000Y-81850000D02*
X173874011Y-81824011D01*
X175675489Y-82624511D02*
X175675489Y-87175489D01*
X161400000Y-82762500D02*
X161400000Y-81400000D01*
X198650000Y-93350000D02*
X198700000Y-93300000D01*
X175675489Y-87175489D02*
X179750000Y-91250000D01*
X176400000Y-81900000D02*
X175675489Y-82624511D01*
X187200000Y-92050000D02*
X188500000Y-93350000D01*
X194100000Y-93350000D02*
X198650000Y-93350000D01*
D25*
X225900000Y-63437500D02*
X225900000Y-61912500D01*
X228750000Y-63437500D02*
X228750000Y-61912500D01*
X160700489Y-80569511D02*
X160920000Y-80350000D01*
X156600000Y-88100000D02*
X156550000Y-88150000D01*
D27*
X160924511Y-84224511D02*
X161025480Y-84123542D01*
D25*
X157750000Y-88100000D02*
X156600000Y-88100000D01*
X160920000Y-78725000D02*
X160920000Y-77100000D01*
X161000000Y-82762500D02*
X161000000Y-81989259D01*
D27*
X161400000Y-84700000D02*
X160924511Y-84224511D01*
D25*
X159750000Y-77100000D02*
X159550000Y-76900000D01*
X160920000Y-80350000D02*
X160920000Y-78725000D01*
X160920000Y-77100000D02*
X159750000Y-77100000D01*
D27*
X161025480Y-84123542D02*
X161025480Y-82374520D01*
D25*
X160700489Y-81689748D02*
X160700489Y-80569511D01*
X161000000Y-81989259D02*
X160700489Y-81689748D01*
X187700000Y-113485000D02*
X187565000Y-113350000D01*
X182535000Y-114485000D02*
X182535000Y-112600000D01*
X167399500Y-121350000D02*
X166749500Y-120700000D01*
X187700000Y-114850000D02*
X187700000Y-113485000D01*
X173100000Y-123100000D02*
X184800000Y-123100000D01*
X179520000Y-109115000D02*
X180785000Y-107850000D01*
D26*
X173250000Y-86000000D02*
X173250000Y-89000000D01*
D25*
X186035000Y-98865000D02*
X185020000Y-97850000D01*
X170050000Y-120050000D02*
X173100000Y-123100000D01*
X146065000Y-116600000D02*
X147065000Y-115600000D01*
X134785000Y-116600000D02*
X146065000Y-116600000D01*
X184800000Y-123100000D02*
X182500000Y-120800000D01*
D26*
X173250000Y-89000000D02*
X176351243Y-92101243D01*
X170750000Y-83500000D02*
X173250000Y-86000000D01*
D25*
X191250000Y-116400000D02*
X189750000Y-114900000D01*
X193250000Y-108612819D02*
X193250000Y-116400000D01*
X191250000Y-116400000D02*
X197585000Y-116400000D01*
X182500000Y-120800000D02*
X182500000Y-114370000D01*
X187785000Y-103147819D02*
X193250000Y-108612819D01*
X185080000Y-115600000D02*
X183650000Y-115600000D01*
D26*
X184900000Y-96350000D02*
X184900000Y-97730000D01*
D25*
X179520000Y-109850000D02*
X179520000Y-109115000D01*
D26*
X176351243Y-92101243D02*
X177502250Y-92101243D01*
X180350000Y-94050000D02*
X184300000Y-94050000D01*
D25*
X168050000Y-121350000D02*
X167399500Y-121350000D01*
X180550000Y-110950500D02*
X180550000Y-110880000D01*
X185050000Y-113350000D02*
X187565000Y-113350000D01*
X187035000Y-97850000D02*
X185020000Y-97850000D01*
X183650000Y-115600000D02*
X182535000Y-114485000D01*
X197585000Y-116400000D02*
X199785000Y-118600000D01*
X185080000Y-113380000D02*
X185050000Y-113350000D01*
X187785000Y-98600000D02*
X187785000Y-103147819D01*
X182500000Y-114370000D02*
X182535000Y-114335000D01*
D26*
X184300000Y-94050000D02*
X184550000Y-94300000D01*
D25*
X180550000Y-110880000D02*
X179520000Y-109850000D01*
X163337500Y-83500000D02*
X170750000Y-83500000D01*
D26*
X184900000Y-97730000D02*
X185020000Y-97850000D01*
D25*
X187785000Y-98600000D02*
X187035000Y-97850000D01*
X185080000Y-115600000D02*
X185080000Y-113380000D01*
X186035000Y-100350000D02*
X186035000Y-98865000D01*
X154494569Y-112600000D02*
X154024406Y-112129837D01*
X185950000Y-115500000D02*
X186050000Y-115600000D01*
X172400480Y-103980480D02*
X173020000Y-104600000D01*
X170200000Y-112700000D02*
X170935000Y-112700000D01*
X184080000Y-112580000D02*
X183150000Y-111650000D01*
X173665480Y-109230480D02*
X174285000Y-109850000D01*
X158699519Y-113049519D02*
X159100000Y-113450000D01*
X186300000Y-118600000D02*
X186300000Y-115850000D01*
X183150000Y-111650000D02*
X176085000Y-111650000D01*
X186300000Y-119400000D02*
X186300000Y-118600000D01*
X174285000Y-109832181D02*
X175767181Y-108350000D01*
X175767181Y-108350000D02*
X175785000Y-108350000D01*
X185950000Y-114400000D02*
X185950000Y-115500000D01*
X189580000Y-111600000D02*
X188600000Y-112580000D01*
X161415000Y-113450000D02*
X162315000Y-114350000D01*
X168080000Y-119100000D02*
X164650000Y-115670000D01*
X172285000Y-111350000D02*
X172285000Y-109927819D01*
X159100000Y-113450000D02*
X161415000Y-113450000D01*
X164650000Y-115670000D02*
X164650000Y-113800000D01*
X184080000Y-113350000D02*
X184080000Y-112580000D01*
X170535000Y-104415000D02*
X170969520Y-103980480D01*
X186300000Y-115850000D02*
X186050000Y-115600000D01*
X188600000Y-112580000D02*
X184080000Y-112580000D01*
X156950000Y-112500000D02*
X157499519Y-113049519D01*
X172285000Y-109927819D02*
X172982339Y-109230480D01*
X184815000Y-121100000D02*
X184815000Y-120885000D01*
X162500000Y-113519500D02*
X162500000Y-114165000D01*
X172982339Y-109230480D02*
X173665480Y-109230480D01*
X184815000Y-120885000D02*
X186300000Y-119400000D01*
X170535000Y-104600000D02*
X170535000Y-104415000D01*
X174285000Y-109850000D02*
X174285000Y-109832181D01*
X170935000Y-112700000D02*
X172285000Y-111350000D01*
X184080000Y-114230000D02*
X184250000Y-114400000D01*
X154815000Y-112600000D02*
X154494569Y-112600000D01*
X162500000Y-114165000D02*
X162315000Y-114350000D01*
X157499519Y-113049519D02*
X158699519Y-113049519D01*
X176085000Y-111650000D02*
X174285000Y-109850000D01*
X170969520Y-103980480D02*
X172400480Y-103980480D01*
X184080000Y-113350000D02*
X184080000Y-114230000D01*
X184250000Y-112150000D02*
X182750000Y-110650000D01*
X168285000Y-107850000D02*
X168285000Y-105850000D01*
X183535000Y-124100000D02*
X184770000Y-124100000D01*
X163337500Y-84300000D02*
X168400000Y-84300000D01*
X169020000Y-108585000D02*
X168285000Y-107850000D01*
X152233299Y-112931701D02*
X154065000Y-111100000D01*
X136450000Y-113600000D02*
X136035000Y-113185000D01*
D26*
X170600000Y-94750000D02*
X171900000Y-96050000D01*
D25*
X144065000Y-113600000D02*
X136450000Y-113600000D01*
X169020000Y-110350000D02*
X169020000Y-108585000D01*
X185770000Y-123100000D02*
X185770000Y-121115000D01*
D26*
X169700000Y-105650000D02*
X168585000Y-105650000D01*
X171900000Y-96050000D02*
X171900000Y-100050000D01*
D25*
X154065000Y-111100000D02*
X154065000Y-110270500D01*
X154065000Y-110270500D02*
X154335500Y-110000000D01*
D26*
X168585000Y-105650000D02*
X168535000Y-105600000D01*
D25*
X184770000Y-124100000D02*
X185770000Y-123100000D01*
X136035000Y-113185000D02*
X136035000Y-112850000D01*
X190815000Y-109850000D02*
X188487181Y-109850000D01*
X168400000Y-84300000D02*
X169700000Y-85600000D01*
X170315000Y-110350000D02*
X171315000Y-111350000D01*
X168065000Y-113805000D02*
X169020000Y-112850000D01*
X188487181Y-109850000D02*
X186187181Y-112150000D01*
X144065000Y-113600000D02*
X144733299Y-112931701D01*
X168285000Y-105850000D02*
X168535000Y-105600000D01*
X144733299Y-112931701D02*
X152233299Y-112931701D01*
X185111076Y-122004576D02*
X185111076Y-121773924D01*
X186187181Y-112150000D02*
X184250000Y-112150000D01*
D26*
X169700000Y-85600000D02*
X169700000Y-91900000D01*
D25*
X181565000Y-112600000D02*
X181565000Y-121165000D01*
X168065000Y-115100000D02*
X168065000Y-113805000D01*
X169020000Y-110350000D02*
X170315000Y-110350000D01*
X185111076Y-121773924D02*
X185785000Y-121100000D01*
X181565000Y-121165000D02*
X182650000Y-122250000D01*
X172750000Y-113250000D02*
X173315000Y-112685000D01*
X169035000Y-117085000D02*
X169050000Y-117100000D01*
X173315000Y-112685000D02*
X173315000Y-109850000D01*
X187065000Y-109850000D02*
X186800000Y-109850000D01*
X161285000Y-105850000D02*
X160300000Y-105850000D01*
X168535000Y-121835000D02*
X169020000Y-121350000D01*
X189815000Y-107100000D02*
X187065000Y-109850000D01*
X168535000Y-123350000D02*
X168535000Y-121835000D01*
X169050000Y-121320000D02*
X169020000Y-121350000D01*
X168450000Y-92000000D02*
X168450000Y-85250000D01*
X157889520Y-106469520D02*
X159680480Y-106469520D01*
X144067819Y-111850000D02*
X144750000Y-112532181D01*
X169035000Y-115100000D02*
X170885000Y-113250000D01*
X169035000Y-115100000D02*
X169035000Y-117085000D01*
X162535000Y-107100000D02*
X161285000Y-105850000D01*
X144750000Y-112532181D02*
X150382819Y-112532181D01*
X155870000Y-108250000D02*
X157770000Y-106350000D01*
X178550000Y-110600000D02*
X178250000Y-110900000D01*
X169050000Y-119100000D02*
X169050000Y-117100000D01*
X178550000Y-109850000D02*
X178550000Y-110600000D01*
X155850000Y-108250000D02*
X155870000Y-108250000D01*
X154065000Y-108850000D02*
X153180980Y-108850000D01*
X159680480Y-106469520D02*
X160300000Y-105850000D01*
X161500000Y-100539259D02*
X161500000Y-92000000D01*
X170885000Y-113250000D02*
X172750000Y-113250000D01*
X150382819Y-112532181D02*
X154065000Y-108850000D01*
X152650000Y-103950000D02*
X154300000Y-102300000D01*
X154300000Y-102300000D02*
X159739259Y-102300000D01*
X159739259Y-102300000D02*
X161500000Y-100539259D01*
X144050000Y-111850000D02*
X144067819Y-111850000D01*
X143300000Y-111100000D02*
X144050000Y-111850000D01*
X167900000Y-84700000D02*
X163337500Y-84700000D01*
X157770000Y-106350000D02*
X157889520Y-106469520D01*
X136300000Y-111100000D02*
X143300000Y-111100000D01*
X169050000Y-119100000D02*
X169050000Y-121320000D01*
X168450000Y-85250000D02*
X167900000Y-84700000D01*
X153180980Y-108850000D02*
X152750000Y-108419020D01*
X171350000Y-109900000D02*
X172900000Y-108350000D01*
X187620481Y-105629519D02*
X187620481Y-106779519D01*
X145292385Y-107092615D02*
X145785000Y-106600000D01*
X154065000Y-106600000D02*
X154565000Y-107100000D01*
X163520000Y-112600000D02*
X163770000Y-112850000D01*
X136800000Y-109100000D02*
X137800000Y-110100000D01*
X167500000Y-92000000D02*
X167480370Y-92019630D01*
X145292385Y-109272906D02*
X145292385Y-107092615D01*
X143815000Y-110100000D02*
X143815000Y-109520476D01*
X163285000Y-115015000D02*
X163285000Y-114350000D01*
X143815000Y-109520476D02*
X143824405Y-109511071D01*
X162900000Y-115400000D02*
X163285000Y-115015000D01*
X166050000Y-118550000D02*
X166050000Y-123600000D01*
X167480370Y-92019630D02*
X168360741Y-92900000D01*
X163337980Y-85099520D02*
X166599520Y-85099520D01*
X163285000Y-112835000D02*
X163520000Y-112600000D01*
X163770000Y-112850000D02*
X168050000Y-112850000D01*
X177800000Y-97300000D02*
X181750000Y-101250000D01*
X166599520Y-85099520D02*
X167500000Y-86000000D01*
X174815000Y-108350000D02*
X174815000Y-108315000D01*
X163285000Y-114350000D02*
X163285000Y-112835000D01*
X163337500Y-85100000D02*
X163337980Y-85099520D01*
X176650000Y-107350000D02*
X179315000Y-107350000D01*
X174815000Y-108315000D02*
X173800000Y-107300000D01*
X181750000Y-101250000D02*
X181750000Y-105050000D01*
X179315000Y-107350000D02*
X179815000Y-107850000D01*
X168360741Y-92900000D02*
X172800000Y-92900000D01*
X137800000Y-110100000D02*
X143815000Y-110100000D01*
X187620481Y-106779519D02*
X187050000Y-107350000D01*
X167500000Y-86000000D02*
X167500000Y-92000000D01*
X172900000Y-108350000D02*
X174815000Y-108350000D01*
X162900000Y-115400000D02*
X166050000Y-118550000D01*
X188000000Y-105250000D02*
X187620481Y-105629519D01*
X155035000Y-107600000D02*
X155535000Y-107100000D01*
X184550000Y-106100000D02*
X184550000Y-100865000D01*
X155035000Y-107600000D02*
X154915480Y-107719520D01*
X137550000Y-106450000D02*
X138050480Y-105949520D01*
X150669520Y-107719520D02*
X149550000Y-106600000D01*
X140134520Y-105949520D02*
X141035000Y-106850000D01*
X185065000Y-110615000D02*
X183950000Y-109500000D01*
X143565000Y-106880000D02*
X143535000Y-106850000D01*
X154915480Y-107719520D02*
X150669520Y-107719520D01*
X184550000Y-100865000D02*
X185065000Y-100350000D01*
X185065000Y-111350000D02*
X185065000Y-110615000D01*
X138050480Y-105949520D02*
X140134520Y-105949520D01*
X155035000Y-111100000D02*
X155035000Y-108850000D01*
X155035000Y-108850000D02*
X155035000Y-107600000D01*
X137550000Y-107100000D02*
X137550000Y-106450000D01*
X143565000Y-108600000D02*
X143565000Y-106880000D01*
X180500000Y-103150000D02*
X180600000Y-103050000D01*
X143867661Y-106230480D02*
X144129520Y-106492339D01*
D26*
X150992631Y-105754968D02*
X154310295Y-105754968D01*
D25*
X131815000Y-107350000D02*
X133065000Y-106100000D01*
X145037319Y-111832681D02*
X145020000Y-111850000D01*
D26*
X159029500Y-105549500D02*
X159330000Y-105850000D01*
X154310295Y-105754968D02*
X154515763Y-105549500D01*
D25*
X164665000Y-105200000D02*
X167315000Y-107850000D01*
X144129520Y-108194520D02*
X144535000Y-108600000D01*
X144535000Y-108600000D02*
X144535000Y-109850000D01*
X186850000Y-102570000D02*
X186815000Y-102535000D01*
X169450000Y-106750000D02*
X169900000Y-106750000D01*
X146035000Y-114600000D02*
X145035000Y-113600000D01*
X133065000Y-106100000D02*
X135035000Y-106100000D01*
X145035000Y-113600000D02*
X146368799Y-113600000D01*
D26*
X158474676Y-105549500D02*
X159029500Y-105549500D01*
X164050000Y-95950000D02*
X164050000Y-103100000D01*
D25*
X144785000Y-110100000D02*
X144785000Y-111615000D01*
X142565000Y-106850000D02*
X142582819Y-106850000D01*
X163337500Y-85900000D02*
X164950000Y-85900000D01*
X159330000Y-105850000D02*
X159347819Y-105850000D01*
X146035000Y-115100000D02*
X146035000Y-114600000D01*
X144535000Y-109850000D02*
X144785000Y-110100000D01*
X167315000Y-106885000D02*
X167450000Y-106750000D01*
X174950000Y-103150000D02*
X180500000Y-103150000D01*
X186815000Y-102535000D02*
X186815000Y-98600000D01*
X159347819Y-105850000D02*
X159997819Y-105200000D01*
X146035000Y-115100000D02*
X146154520Y-114980480D01*
D26*
X165100000Y-94900000D02*
X164050000Y-95950000D01*
X165250000Y-86200000D02*
X165250000Y-92699500D01*
D25*
X146368799Y-113600000D02*
X146400000Y-113631201D01*
X164950000Y-85900000D02*
X165250000Y-86200000D01*
X136185000Y-106450000D02*
X136185000Y-105565000D01*
X135785000Y-106850000D02*
X136185000Y-106450000D01*
X136200000Y-105550000D02*
X141265000Y-105550000D01*
X186850000Y-103050000D02*
X186850000Y-102570000D01*
X148035000Y-115600000D02*
X148404520Y-115230480D01*
D26*
X146450000Y-110100000D02*
X148050000Y-108500000D01*
D25*
X169900000Y-106750000D02*
X172050000Y-104600000D01*
X136185000Y-105565000D02*
X136200000Y-105550000D01*
X142582819Y-106850000D02*
X143202339Y-106230480D01*
X147415480Y-114980480D02*
X148035000Y-115600000D01*
X146400000Y-111832681D02*
X145037319Y-111832681D01*
D26*
X144785000Y-110100000D02*
X146450000Y-110100000D01*
D25*
X167315000Y-107850000D02*
X167315000Y-106885000D01*
X184830000Y-108100000D02*
X186815000Y-106115000D01*
X159997819Y-105200000D02*
X164665000Y-105200000D01*
X144129520Y-106492339D02*
X144129520Y-108194520D01*
X149415480Y-115230480D02*
X150035000Y-115850000D01*
X148404520Y-115230480D02*
X149415480Y-115230480D01*
X186815000Y-106115000D02*
X186815000Y-102535000D01*
X143202339Y-106230480D02*
X143867661Y-106230480D01*
X141265000Y-105550000D02*
X142565000Y-106850000D01*
X146154520Y-114980480D02*
X147415480Y-114980480D01*
X135035000Y-106100000D02*
X135785000Y-106850000D01*
X144785000Y-111615000D02*
X145020000Y-111850000D01*
X155300000Y-104850000D02*
X158850000Y-104850000D01*
X140065000Y-106915000D02*
X141250000Y-108100000D01*
X182565000Y-107100000D02*
X182565000Y-99335000D01*
X132750000Y-107350000D02*
X133250000Y-106850000D01*
X162850000Y-104250000D02*
X162900000Y-104300000D01*
X137755000Y-107865000D02*
X135830000Y-107865000D01*
X132785000Y-107350000D02*
X132750000Y-107350000D01*
X135065000Y-113850000D02*
X134315000Y-114600000D01*
X169565000Y-104600000D02*
X169265000Y-104300000D01*
X135830000Y-109100000D02*
X135830000Y-107865000D01*
X140065000Y-106850000D02*
X140065000Y-106915000D01*
X135830000Y-107865000D02*
X134815000Y-106850000D01*
X138520000Y-107100000D02*
X139815000Y-107100000D01*
X143065000Y-104850000D02*
X144815000Y-106600000D01*
X135065000Y-112850000D02*
X135065000Y-113850000D01*
X131434520Y-116719520D02*
X130815000Y-116100000D01*
X162600000Y-87041092D02*
X164450000Y-88891092D01*
X164450000Y-91650000D02*
X162850000Y-93250000D01*
X162600000Y-86637500D02*
X162600000Y-87041092D01*
X135330000Y-111100000D02*
X135330000Y-112585000D01*
X133695480Y-116719520D02*
X131434520Y-116719520D01*
X135830000Y-110600000D02*
X135330000Y-111100000D01*
X164450000Y-88891092D02*
X164450000Y-91650000D01*
X141250000Y-104850000D02*
X143065000Y-104850000D01*
X162850000Y-93250000D02*
X162850000Y-104250000D01*
X133815000Y-116600000D02*
X133815000Y-115100000D01*
X159400000Y-104300000D02*
X162900000Y-104300000D01*
X135330000Y-112585000D02*
X135065000Y-112850000D01*
X139815000Y-107100000D02*
X140065000Y-106850000D01*
X133815000Y-116600000D02*
X133695480Y-116719520D01*
X155300000Y-104850000D02*
X156800000Y-106350000D01*
X135830000Y-109100000D02*
X135830000Y-110600000D01*
X182565000Y-99335000D02*
X184050000Y-97850000D01*
X143065000Y-104850000D02*
X155300000Y-104850000D01*
X162900000Y-104300000D02*
X169265000Y-104300000D01*
X167565000Y-105015000D02*
X167565000Y-105600000D01*
X158850000Y-104850000D02*
X159400000Y-104300000D01*
X133250000Y-106850000D02*
X134815000Y-106850000D01*
X133815000Y-115100000D02*
X134315000Y-114600000D01*
X138520000Y-107100000D02*
X137755000Y-107865000D01*
X166850000Y-104300000D02*
X167565000Y-105015000D01*
X162200000Y-86637500D02*
X162200000Y-87660756D01*
X182200000Y-89050000D02*
X189250000Y-89050000D01*
X162200000Y-87660756D02*
X163019622Y-88480378D01*
X210450000Y-71500000D02*
X210500000Y-71550000D01*
X194100000Y-86750000D02*
X192150000Y-88700000D01*
X202950000Y-86750000D02*
X194100000Y-86750000D01*
X210450000Y-70125000D02*
X210450000Y-71500000D01*
X189250000Y-89050000D02*
X189650000Y-88650000D01*
X161800000Y-88250000D02*
X163400000Y-89850000D01*
X161800000Y-86637500D02*
X161800000Y-88250000D01*
X198750000Y-90000000D02*
X201000000Y-87750000D01*
X187900000Y-90800000D02*
X188900000Y-91800000D01*
X207900000Y-70125000D02*
X207900000Y-71550000D01*
X182150000Y-90800000D02*
X187900000Y-90800000D01*
X192550000Y-90000000D02*
X198750000Y-90000000D01*
X231600000Y-63437500D02*
X231600000Y-61962500D01*
X175952500Y-80450000D02*
X171252500Y-75750000D01*
X192950000Y-80667826D02*
X197282193Y-85000019D01*
X160200000Y-100750000D02*
X160250000Y-100800000D01*
X194000000Y-106000000D02*
X194049511Y-105950489D01*
X237849500Y-118349500D02*
X237850000Y-118350000D01*
X142715000Y-82515000D02*
X139515000Y-79315000D01*
X199315000Y-117115000D02*
X199315000Y-116600000D01*
X187000000Y-85850000D02*
X183285000Y-85850000D01*
X192950000Y-80650000D02*
X190200000Y-80650000D01*
X235400000Y-118349500D02*
X237849500Y-118349500D01*
X208550000Y-121600000D02*
X204600000Y-121600000D01*
X171252500Y-75750000D02*
X169600000Y-75750000D01*
X199900000Y-117700000D02*
X199315000Y-117115000D01*
X246065000Y-118350000D02*
X237850000Y-118350000D01*
X143750000Y-86500000D02*
X142715000Y-85465000D01*
X152450000Y-86500000D02*
X143750000Y-86500000D01*
X160200000Y-86637500D02*
X159987500Y-86850000D01*
X223515000Y-120050000D02*
X222065000Y-118600000D01*
X200700000Y-117700000D02*
X199900000Y-117700000D01*
X139515000Y-79315000D02*
X139515000Y-76050000D01*
X170500000Y-86350000D02*
X170500000Y-90400000D01*
X199315000Y-116600000D02*
X199315000Y-116565000D01*
X235400000Y-118349500D02*
X233699500Y-120050000D01*
X169600000Y-75750000D02*
X169600000Y-76600000D01*
X164850000Y-100800000D02*
X169515000Y-100800000D01*
X235315000Y-112850000D02*
X235315000Y-113915500D01*
X159987500Y-86850000D02*
X155850000Y-86850000D01*
X220900000Y-118600000D02*
X215250000Y-124250000D01*
X183285000Y-85850000D02*
X177885000Y-80450000D01*
X215880000Y-85300000D02*
X197582174Y-85300000D01*
X233699500Y-120050000D02*
X223515000Y-120050000D01*
X235315000Y-113915500D02*
X235350000Y-113950500D01*
X194049511Y-100200489D02*
X195750000Y-98500000D01*
X195500000Y-112750000D02*
X199315000Y-116565000D01*
X169600000Y-76600000D02*
X170500000Y-77500000D01*
X142715000Y-83450000D02*
X142715000Y-82515000D01*
X190200000Y-82650000D02*
X187000000Y-85850000D01*
X204600000Y-121600000D02*
X200700000Y-117700000D01*
X160200000Y-86637500D02*
X160200000Y-100750000D01*
X215250000Y-124250000D02*
X211200000Y-124250000D01*
X131265000Y-87300000D02*
X131265000Y-84300000D01*
X142715000Y-85465000D02*
X142715000Y-83450000D01*
X197582174Y-85300000D02*
X197282193Y-85000019D01*
X194049511Y-105950489D02*
X194049511Y-100200489D01*
X190200000Y-80650000D02*
X190200000Y-82650000D01*
X177885000Y-80450000D02*
X175952500Y-80450000D01*
X195500000Y-112750000D02*
X195500000Y-111500000D01*
X169515000Y-100800000D02*
X169565000Y-100850000D01*
X222065000Y-118600000D02*
X220900000Y-118600000D01*
X170500000Y-90400000D02*
X170900000Y-90800000D01*
X211200000Y-124250000D02*
X208550000Y-121600000D01*
X131265000Y-84300000D02*
X139515000Y-76050000D01*
X192950000Y-80650000D02*
X192950000Y-80667826D01*
X209350000Y-120050000D02*
X210365000Y-120050000D01*
X190350000Y-90100000D02*
X190785000Y-89665000D01*
D24*
X234330000Y-95100000D02*
X234150000Y-95100000D01*
D25*
X190785000Y-86850000D02*
X190785000Y-89665000D01*
X221600000Y-116900000D02*
X221550000Y-116850000D01*
X174050000Y-93800000D02*
X174100000Y-93750000D01*
X154850000Y-89200000D02*
X154850000Y-86750000D01*
X159200000Y-93550000D02*
X154850000Y-89200000D01*
D24*
X227000000Y-98750000D02*
X215750000Y-98750000D01*
D25*
X231315000Y-112685000D02*
X230500000Y-113500000D01*
X202270000Y-101720000D02*
X201150000Y-100600000D01*
X181035000Y-91835000D02*
X181035000Y-90100000D01*
X242765000Y-117650000D02*
X223950000Y-117650000D01*
X193035000Y-92100000D02*
X193035000Y-94615000D01*
X177470000Y-92800000D02*
X178770000Y-94100000D01*
X193035000Y-94615000D02*
X195020000Y-96600000D01*
X206100000Y-120050000D02*
X202250000Y-116200000D01*
X174100000Y-93750000D02*
X175050000Y-92800000D01*
X175050000Y-92800000D02*
X177470000Y-92800000D01*
X155700000Y-85900000D02*
X159462500Y-85900000D01*
X216650000Y-117700000D02*
X213500000Y-120850000D01*
X199250000Y-115200000D02*
X199965000Y-115200000D01*
X210365000Y-120050000D02*
X210815000Y-119600000D01*
X181035000Y-90100000D02*
X190350000Y-90100000D01*
X178770000Y-94100000D02*
X181035000Y-91835000D01*
X245065000Y-115350000D02*
X242765000Y-117650000D01*
X231315000Y-111600000D02*
X231315000Y-112685000D01*
D24*
X210250000Y-102250000D02*
X207350000Y-102250000D01*
D25*
X207200000Y-102100000D02*
X202270000Y-102100000D01*
X201150000Y-100600000D02*
X198020000Y-100600000D01*
X174050000Y-98100000D02*
X174050000Y-93800000D01*
X198020000Y-99600000D02*
X195020000Y-96600000D01*
X154850000Y-86750000D02*
X155700000Y-85900000D01*
X221600000Y-117700000D02*
X216650000Y-117700000D01*
X199965000Y-115200000D02*
X200315000Y-114850000D01*
X207350000Y-102250000D02*
X207200000Y-102100000D01*
X209350000Y-120050000D02*
X206100000Y-120050000D01*
X174100000Y-93750000D02*
X163700000Y-93750000D01*
X202270000Y-102100000D02*
X202270000Y-101720000D01*
X190785000Y-89665000D02*
X190785000Y-89850000D01*
D24*
X213250000Y-99250000D02*
X210250000Y-102250000D01*
D25*
X190785000Y-89850000D02*
X193035000Y-92100000D01*
X221600000Y-117700000D02*
X221600000Y-116900000D01*
D24*
X234150000Y-95100000D02*
X230500000Y-98750000D01*
D25*
X198020000Y-100600000D02*
X198020000Y-99600000D01*
X242565000Y-115100000D02*
X242250000Y-115100000D01*
X153591265Y-86908735D02*
X153591265Y-86049011D01*
X175002181Y-98100000D02*
X175020000Y-98100000D01*
X200400000Y-112800000D02*
X200400000Y-111200000D01*
X200400000Y-111200000D02*
X200300000Y-111100000D01*
X183204477Y-72054977D02*
X171804977Y-72054977D01*
X251800000Y-79300000D02*
X251800000Y-72350000D01*
D27*
X199635000Y-77250000D02*
X208285000Y-77250000D01*
D25*
X167250000Y-71500000D02*
X154250000Y-71500000D01*
X185457181Y-95320000D02*
X177800000Y-95320000D01*
X188950000Y-101250000D02*
X188950000Y-98812819D01*
D27*
X208285000Y-77250000D02*
X209085000Y-78050000D01*
D25*
X231065000Y-78865000D02*
X230950000Y-78750000D01*
X153200000Y-93850000D02*
X153200000Y-87300000D01*
X198135000Y-75750000D02*
X189000000Y-75750000D01*
X183500000Y-72350500D02*
X183204477Y-72054977D01*
X247550000Y-68100000D02*
X244270000Y-68100000D01*
X230950000Y-78750000D02*
X230950000Y-75515000D01*
X230250000Y-110430000D02*
X230330000Y-110350000D01*
X243535000Y-82600000D02*
X248500000Y-82600000D01*
X229965489Y-84199511D02*
X215234511Y-84199511D01*
X230250000Y-111750000D02*
X230250000Y-110430000D01*
X158250000Y-98900000D02*
X153200000Y-93850000D01*
X170535000Y-100850000D02*
X172252181Y-100850000D01*
X251800000Y-72350000D02*
X247550000Y-68100000D01*
X215234511Y-84199511D02*
X209085000Y-78050000D01*
X188950000Y-98812819D02*
X185457181Y-95320000D01*
X154450989Y-86049011D02*
X153591265Y-86049011D01*
X170535000Y-100850000D02*
X168435000Y-98750000D01*
X172252181Y-100850000D02*
X175002181Y-98100000D01*
X155000000Y-85500000D02*
X154450989Y-86049011D01*
X196800000Y-111100000D02*
X194450000Y-108750000D01*
X248500000Y-82600000D02*
X251800000Y-79300000D01*
X177800000Y-94100000D02*
X177800000Y-95320000D01*
X159462500Y-85500000D02*
X155000000Y-85500000D01*
X153200000Y-87300000D02*
X132235000Y-87300000D01*
X153200000Y-87300000D02*
X153591265Y-86908735D01*
X168435000Y-98750000D02*
X165000000Y-98750000D01*
X230950000Y-75515000D02*
X227785000Y-72350000D01*
X177800000Y-95320000D02*
X175020000Y-98100000D01*
X231065000Y-83100000D02*
X229965489Y-84199511D01*
X199635000Y-77250000D02*
X198135000Y-75750000D01*
X200300000Y-111100000D02*
X196800000Y-111100000D01*
X231065000Y-83100000D02*
X231065000Y-78865000D01*
X242250000Y-115100000D02*
X241650000Y-114500000D01*
X175050000Y-76000000D02*
X180700000Y-81650000D01*
X237535000Y-108600000D02*
X237285000Y-108350000D01*
X237535000Y-110350000D02*
X237535000Y-108600000D01*
X237285000Y-108350000D02*
X237285000Y-106585000D01*
X218981727Y-114400000D02*
X213400000Y-114400000D01*
X237520000Y-106130000D02*
X239050000Y-104600000D01*
X239050000Y-98850000D02*
X235300000Y-95100000D01*
X181400000Y-88000000D02*
X180065000Y-89335000D01*
X199380480Y-84680480D02*
X196250000Y-81550000D01*
X242785000Y-72350000D02*
X232035000Y-83100000D01*
X202400000Y-109950000D02*
X206250000Y-109950000D01*
X239050000Y-104600000D02*
X239050000Y-98850000D01*
X154600480Y-85099520D02*
X159300000Y-85099520D01*
X154350489Y-85349511D02*
X154600480Y-85099520D01*
X250830000Y-72350000D02*
X242785000Y-72350000D01*
X143644511Y-72890489D02*
X164640489Y-72890489D01*
X237520000Y-106350000D02*
X237520000Y-106130000D01*
X195750000Y-81550000D02*
X195450000Y-81250000D01*
X159300480Y-85100000D02*
X159462500Y-85100000D01*
X238800000Y-112350000D02*
X238800000Y-111615000D01*
X223315000Y-114215000D02*
X223200000Y-114100000D01*
X219243232Y-114661505D02*
X218981727Y-114400000D01*
X200050000Y-109800000D02*
X200100000Y-109850000D01*
X146500000Y-81350000D02*
X146500000Y-84900000D01*
X229200000Y-109200000D02*
X229300000Y-109100000D01*
X235300000Y-86365000D02*
X232035000Y-83100000D01*
X223315000Y-115350000D02*
X223315000Y-114215000D01*
X237285000Y-106585000D02*
X237520000Y-106350000D01*
X229835000Y-85300000D02*
X232035000Y-83100000D01*
X235300000Y-95100000D02*
X235300000Y-86365000D01*
X236435000Y-109200000D02*
X232350000Y-109200000D01*
X216230480Y-84680480D02*
X199380480Y-84680480D01*
X146500000Y-84900000D02*
X146949511Y-85349511D01*
X142750000Y-76050000D02*
X146200000Y-79500000D01*
X196250000Y-81550000D02*
X195750000Y-81550000D01*
X140485000Y-76050000D02*
X142750000Y-76050000D01*
X216850000Y-85300000D02*
X229835000Y-85300000D01*
X200050000Y-109100000D02*
X200050000Y-109800000D01*
X140485000Y-76050000D02*
X143644511Y-72890489D01*
X180065000Y-89335000D02*
X180065000Y-90100000D01*
X229200000Y-110700000D02*
X229200000Y-109200000D01*
X146250000Y-81100000D02*
X146500000Y-81350000D01*
X164640489Y-72890489D02*
X166050000Y-74300000D01*
X193150000Y-82550000D02*
X187700000Y-88000000D01*
X159300000Y-85099520D02*
X159300480Y-85100000D01*
X208900000Y-112600000D02*
X211565000Y-112600000D01*
X216850000Y-85300000D02*
X216230480Y-84680480D01*
X239830000Y-113380000D02*
X238800000Y-112350000D01*
X211500000Y-114150000D02*
X211500000Y-112665000D01*
X239830000Y-113600000D02*
X239830000Y-113380000D01*
X237285000Y-108350000D02*
X236435000Y-109200000D01*
X211500000Y-112665000D02*
X211565000Y-112600000D01*
X238800000Y-111615000D02*
X237535000Y-110350000D01*
X206250000Y-109950000D02*
X208900000Y-112600000D01*
X181300000Y-88000000D02*
X187700000Y-88000000D01*
X174000000Y-76000000D02*
X175050000Y-76000000D01*
X146949511Y-85349511D02*
X154350489Y-85349511D01*
D26*
X152650000Y-75750000D02*
X168630000Y-75750000D01*
D25*
X208950000Y-108000000D02*
X208480480Y-108469520D01*
X240250000Y-115550000D02*
X238700000Y-115550000D01*
X224300000Y-113850000D02*
X224300000Y-113750000D01*
D26*
X152100000Y-81900000D02*
X152100000Y-76300000D01*
D25*
X189815000Y-86485000D02*
X190600481Y-85699519D01*
X242565000Y-82600000D02*
X242565000Y-113070000D01*
X240800000Y-115000000D02*
X240250000Y-115550000D01*
X227035000Y-104850000D02*
X224285000Y-102100000D01*
X225135000Y-101250000D02*
X224285000Y-102100000D01*
X227035000Y-106850000D02*
X227315000Y-106850000D01*
X243904520Y-114730480D02*
X243535000Y-115100000D01*
X208480480Y-108469520D02*
X202699520Y-108469520D01*
X214350000Y-100900000D02*
X214600000Y-100900000D01*
X237830000Y-114680000D02*
X237830000Y-112350000D01*
D26*
X184200000Y-79600000D02*
X178850000Y-74250000D01*
D25*
X170130000Y-74250000D02*
X168630000Y-75750000D01*
X214600000Y-100900000D02*
X222200000Y-100900000D01*
X227899511Y-109949511D02*
X227300000Y-109350000D01*
X246050000Y-115350000D02*
X246035000Y-115350000D01*
X152099989Y-84700000D02*
X159462500Y-84700000D01*
X242035000Y-113600000D02*
X240800000Y-113600000D01*
X246035000Y-115350000D02*
X245415480Y-114730480D01*
X214600000Y-91699520D02*
X214600000Y-100900000D01*
D26*
X152099989Y-84700000D02*
X152050000Y-84650011D01*
D25*
X212065000Y-108600000D02*
X211850000Y-108600000D01*
X208600000Y-85699520D02*
X214600000Y-91699520D01*
X193200481Y-85699519D02*
X208600000Y-85699520D01*
X227650000Y-112750000D02*
X227899511Y-112500489D01*
D26*
X178850000Y-74250000D02*
X170130000Y-74250000D01*
X193150000Y-84700000D02*
X193150000Y-85649038D01*
D25*
X245415480Y-114730480D02*
X243904520Y-114730480D01*
X227650000Y-112750000D02*
X229550000Y-114650000D01*
X240800000Y-113600000D02*
X240800000Y-115000000D01*
X242565000Y-113070000D02*
X242035000Y-113600000D01*
X247035000Y-118350000D02*
X247035000Y-116335000D01*
X190600481Y-85699519D02*
X193200481Y-85699519D01*
X247035000Y-116335000D02*
X246050000Y-115350000D01*
X227300000Y-108365000D02*
X228065000Y-107600000D01*
X224300000Y-113750000D02*
X225350000Y-112700000D01*
X189815000Y-86850000D02*
X189815000Y-86485000D01*
X227300000Y-109350000D02*
X227300000Y-108365000D01*
X211850000Y-108600000D02*
X211150000Y-107900000D01*
X225800000Y-101250000D02*
X225135000Y-101250000D01*
X243535000Y-115100000D02*
X242035000Y-113600000D01*
X227899511Y-112500489D02*
X227899511Y-109949511D01*
X229550000Y-114650000D02*
X237800000Y-114650000D01*
X193150000Y-85649038D02*
X193200481Y-85699519D01*
X227315000Y-106850000D02*
X228065000Y-107600000D01*
X227035000Y-104850000D02*
X227035000Y-106850000D01*
X202699520Y-108469520D02*
X202080000Y-107850000D01*
X238700000Y-115550000D02*
X237830000Y-114680000D01*
D26*
X152100000Y-76300000D02*
X152650000Y-75750000D01*
D25*
X211200000Y-104050000D02*
X214350000Y-100900000D01*
X237800000Y-114650000D02*
X237830000Y-114680000D01*
D26*
X184550000Y-79600000D02*
X184200000Y-79600000D01*
X152975009Y-84225009D02*
X152975009Y-84250480D01*
D25*
X218050000Y-110550000D02*
X217000000Y-111600000D01*
D26*
X149225489Y-81975489D02*
X147600489Y-80350489D01*
D25*
X216800000Y-105350000D02*
X218050000Y-106600000D01*
D26*
X143800000Y-95750000D02*
X143800000Y-90850000D01*
D25*
X200050000Y-107500000D02*
X200050000Y-106850000D01*
X224700000Y-108450000D02*
X225600000Y-109350000D01*
X213365000Y-105300000D02*
X212565000Y-106100000D01*
D26*
X145199511Y-80350489D02*
X143685000Y-81865000D01*
D25*
X213800000Y-105300000D02*
X213365000Y-105300000D01*
X225315000Y-110365000D02*
X220285000Y-110365000D01*
X236285000Y-112850000D02*
X236285000Y-110630000D01*
X230270000Y-108835000D02*
X229035000Y-107600000D01*
X229035000Y-107600000D02*
X228545167Y-107110167D01*
D26*
X149650498Y-83449520D02*
X152199520Y-83449520D01*
D25*
X215535000Y-111600000D02*
X219050000Y-111600000D01*
D26*
X149100000Y-101050000D02*
X143800000Y-95750000D01*
D25*
X215785000Y-105350000D02*
X216800000Y-105350000D01*
D26*
X200050000Y-106400000D02*
X199050000Y-105400000D01*
X180350000Y-101550000D02*
X179700000Y-102200000D01*
D25*
X225315000Y-111350000D02*
X225315000Y-110365000D01*
D26*
X147600489Y-80350489D02*
X145199511Y-80350489D01*
X152199520Y-83449520D02*
X152975009Y-84225009D01*
D25*
X236565000Y-110350000D02*
X233300000Y-110350000D01*
X207980980Y-111100000D02*
X206050000Y-109169020D01*
X198550000Y-109000000D02*
X200050000Y-107500000D01*
X232285000Y-111335000D02*
X231300000Y-110350000D01*
X215165480Y-105969520D02*
X214469520Y-105969520D01*
X228545167Y-107110167D02*
X228545167Y-106758663D01*
X225315000Y-110365000D02*
X226330000Y-109350000D01*
X215535000Y-111600000D02*
X215535000Y-110515000D01*
X225600000Y-109350000D02*
X226330000Y-109350000D01*
X232285000Y-111600000D02*
X232285000Y-111335000D01*
X233300000Y-110350000D02*
X232285000Y-111365000D01*
D26*
X200050000Y-106850000D02*
X200050000Y-106400000D01*
X143800000Y-83565000D02*
X143685000Y-83450000D01*
X158300000Y-101050000D02*
X149100000Y-101050000D01*
D25*
X231300000Y-110350000D02*
X231300000Y-110130000D01*
D26*
X143800000Y-84700000D02*
X143800000Y-83565000D01*
D25*
X230270000Y-109100000D02*
X230270000Y-108835000D01*
X214469520Y-105969520D02*
X213800000Y-105300000D01*
D26*
X149225489Y-83024511D02*
X149650498Y-83449520D01*
D25*
X215785000Y-105350000D02*
X215165480Y-105969520D01*
D26*
X192250000Y-92285000D02*
X192065000Y-92100000D01*
D25*
X218050000Y-106600000D02*
X218050000Y-110550000D01*
D26*
X192250000Y-103000000D02*
X192250000Y-92285000D01*
X143685000Y-81865000D02*
X143685000Y-83450000D01*
D25*
X215535000Y-110515000D02*
X215600000Y-110450000D01*
X220285000Y-110365000D02*
X219050000Y-111600000D01*
D26*
X149225489Y-83024511D02*
X149225489Y-81975489D01*
D27*
X152975009Y-84325009D02*
X159437491Y-84325009D01*
D25*
X231300000Y-110130000D02*
X230270000Y-109100000D01*
X211150000Y-111100000D02*
X207980980Y-111100000D01*
X236285000Y-110630000D02*
X236565000Y-110350000D01*
D26*
X179700000Y-102200000D02*
X165400000Y-102200000D01*
D25*
X235865000Y-107900000D02*
X236315000Y-108350000D01*
X174982500Y-80450000D02*
X164800000Y-80450000D01*
X226400000Y-111350000D02*
X227200000Y-110550000D01*
X224285000Y-115350000D02*
X224285000Y-114835000D01*
X214565000Y-111600000D02*
X214565000Y-110315000D01*
X225270000Y-113850000D02*
X226285000Y-112835000D01*
X174982500Y-80450000D02*
X174982500Y-88232500D01*
X158660080Y-83899339D02*
X156340168Y-83899339D01*
X226285000Y-112835000D02*
X226285000Y-111350000D01*
X159462500Y-83900000D02*
X158660741Y-83900000D01*
X231000000Y-107900000D02*
X235865000Y-107900000D01*
X226100000Y-108350000D02*
X226100000Y-106885000D01*
X226285000Y-111350000D02*
X226400000Y-111350000D01*
X223035000Y-117365000D02*
X222520000Y-116850000D01*
X164800000Y-80450000D02*
X163800000Y-79450000D01*
X156340168Y-83899339D02*
X155500000Y-83059171D01*
X197600000Y-106635000D02*
X197565000Y-106600000D01*
X211200000Y-109650000D02*
X209815000Y-108265000D01*
X209815000Y-108265000D02*
X209815000Y-106100000D01*
X209815000Y-106100000D02*
X207785000Y-106100000D01*
X214565000Y-110315000D02*
X214050000Y-109800000D01*
X197600000Y-107750000D02*
X197600000Y-106635000D01*
X193350000Y-97300000D02*
X194050000Y-96600000D01*
X226100000Y-106885000D02*
X226065000Y-106850000D01*
X155500000Y-83059171D02*
X155500000Y-79400000D01*
X223035000Y-118600000D02*
X223035000Y-117365000D01*
X222520000Y-116850000D02*
X222785000Y-116850000D01*
X193350000Y-104500000D02*
X193350000Y-97300000D01*
X184600000Y-93050000D02*
X188750000Y-97200000D01*
X158660741Y-83900000D02*
X158660080Y-83899339D01*
X222785000Y-116850000D02*
X224285000Y-115350000D01*
X159000000Y-79050000D02*
X155850000Y-79050000D01*
X181550000Y-93050000D02*
X184600000Y-93050000D01*
X224285000Y-114835000D02*
X225270000Y-113850000D01*
X207785000Y-106100000D02*
X207285000Y-105600000D01*
X174982500Y-88232500D02*
X178950000Y-92200000D01*
X155850000Y-79050000D02*
X155500000Y-79400000D01*
D26*
X195050000Y-106047108D02*
X195050000Y-106100000D01*
D25*
X230000000Y-106050000D02*
X236250000Y-106050000D01*
X212535000Y-116335000D02*
X212535000Y-112600000D01*
D26*
X180950000Y-85850000D02*
X182315000Y-85850000D01*
X206315000Y-104535000D02*
X205785000Y-104535000D01*
X199750000Y-97650000D02*
X199750000Y-91500000D01*
D25*
X209520000Y-121600000D02*
X209785000Y-121600000D01*
X210785000Y-106367819D02*
X210785000Y-106100000D01*
D26*
X195450000Y-79000000D02*
X190400000Y-79000000D01*
D25*
X213535000Y-108100000D02*
X213535000Y-106100000D01*
D26*
X202785000Y-104535000D02*
X202150000Y-103900000D01*
D25*
X221950000Y-104850000D02*
X226065000Y-104850000D01*
X209785000Y-121600000D02*
X211785000Y-119600000D01*
X213035000Y-108600000D02*
X213017181Y-108600000D01*
X219000000Y-107800000D02*
X221950000Y-104850000D01*
X213035000Y-112100000D02*
X213035000Y-108600000D01*
X194050000Y-107100000D02*
X195050000Y-106100000D01*
X159250000Y-83500000D02*
X158500000Y-82750000D01*
D26*
X173800000Y-84100000D02*
X172700481Y-83000481D01*
X191350000Y-78050000D02*
X190400000Y-79000000D01*
D25*
X212400000Y-118985000D02*
X212400000Y-116730000D01*
D26*
X172700481Y-83000481D02*
X165500481Y-83000481D01*
D25*
X226065000Y-104850000D02*
X226065000Y-104935000D01*
X195050000Y-106100000D02*
X195050000Y-102450000D01*
D26*
X208115000Y-78050000D02*
X191350000Y-78050000D01*
X206315000Y-104535000D02*
X206315000Y-105600000D01*
X165500481Y-83000481D02*
X165150000Y-82650000D01*
D25*
X159462500Y-83500000D02*
X159250000Y-83500000D01*
D26*
X186850000Y-78850000D02*
X182450000Y-83250000D01*
D25*
X210785000Y-106100000D02*
X209220000Y-104535000D01*
D26*
X187800000Y-78850000D02*
X186850000Y-78850000D01*
D25*
X213017181Y-108600000D02*
X210785000Y-106367819D01*
X209220000Y-104535000D02*
X205785000Y-104535000D01*
D26*
X199750000Y-83300000D02*
X195450000Y-79000000D01*
D25*
X193785000Y-107100000D02*
X194050000Y-107100000D01*
D26*
X205785000Y-104535000D02*
X202785000Y-104535000D01*
D25*
X226065000Y-104935000D02*
X224950000Y-106050000D01*
D26*
X198047108Y-103050000D02*
X195050000Y-106047108D01*
D25*
X212400000Y-116730000D02*
X212270000Y-116600000D01*
D26*
X180250000Y-85150000D02*
X180950000Y-85850000D01*
D25*
X213035000Y-108600000D02*
X213535000Y-108100000D01*
X214035000Y-106600000D02*
X217080000Y-106600000D01*
D26*
X198100000Y-103050000D02*
X198047108Y-103050000D01*
D25*
X195050000Y-102450000D02*
X196900000Y-100600000D01*
X217080000Y-107479500D02*
X217350500Y-107750000D01*
X196900000Y-100600000D02*
X197050000Y-100600000D01*
X212535000Y-112600000D02*
X213035000Y-112100000D01*
X211785000Y-119600000D02*
X212400000Y-118985000D01*
X213535000Y-106100000D02*
X214035000Y-106600000D01*
X236150000Y-105950000D02*
X236550000Y-106350000D01*
D26*
X203200000Y-101100000D02*
X199750000Y-97650000D01*
D25*
X212270000Y-116600000D02*
X212535000Y-116335000D01*
X217080000Y-106600000D02*
X217080000Y-107479500D01*
X160200000Y-82700000D02*
X160200000Y-82762500D01*
X214815000Y-105350000D02*
X214265000Y-104800000D01*
X201270000Y-111100000D02*
X201270000Y-109350000D01*
X189850000Y-104135000D02*
X192815000Y-107100000D01*
X193434520Y-107719520D02*
X194400480Y-107719520D01*
X189230000Y-78320000D02*
X190300000Y-77250000D01*
X201020000Y-106850000D02*
X201020000Y-102380000D01*
X201285000Y-115600000D02*
X201285000Y-114850000D01*
X238080000Y-104600000D02*
X234850000Y-104600000D01*
X197020000Y-105100000D02*
X197600000Y-105100000D01*
X192815000Y-107100000D02*
X193434520Y-107719520D01*
X225115000Y-100300000D02*
X223315000Y-102100000D01*
X202350000Y-103150000D02*
X201300000Y-102100000D01*
X201020000Y-109100000D02*
X201020000Y-106850000D01*
X199550000Y-102500000D02*
X199950000Y-102100000D01*
X189230000Y-81920000D02*
X186700000Y-84450000D01*
X197600000Y-105100000D02*
X199550000Y-103150000D01*
X199550000Y-103150000D02*
X199550000Y-102500000D01*
X189230000Y-80650000D02*
X189230000Y-81920000D01*
X200285000Y-116600000D02*
X201285000Y-115600000D01*
X189230000Y-80650000D02*
X189230000Y-78320000D01*
X226900000Y-100300000D02*
X225115000Y-100300000D01*
X190300000Y-77250000D02*
X198665000Y-77250000D01*
X218065000Y-102100000D02*
X214815000Y-105350000D01*
X194400480Y-107719520D02*
X196020000Y-106100000D01*
X210450000Y-104800000D02*
X208800000Y-103150000D01*
X189850000Y-91050000D02*
X189850000Y-104135000D01*
X201020000Y-102380000D02*
X201300000Y-102100000D01*
X208800000Y-103150000D02*
X202350000Y-103150000D01*
X201270000Y-109350000D02*
X201020000Y-109100000D01*
X171900000Y-81149500D02*
X169250000Y-81149500D01*
X157900000Y-80400000D02*
X160200000Y-82700000D01*
X223315000Y-102100000D02*
X218065000Y-102100000D01*
X197600000Y-105100000D02*
X198535000Y-106035000D01*
X199950000Y-102100000D02*
X201300000Y-102100000D01*
X196020000Y-106100000D02*
X197020000Y-105100000D01*
X201270000Y-114835000D02*
X201270000Y-111100000D01*
X203032181Y-107850000D02*
X202032181Y-106850000D01*
X202032181Y-106850000D02*
X201020000Y-106850000D01*
X201285000Y-114850000D02*
X201270000Y-114835000D01*
X214265000Y-104800000D02*
X210450000Y-104800000D01*
X203050000Y-107850000D02*
X203032181Y-107850000D01*
X234850000Y-104600000D02*
X230600000Y-100350000D01*
X198535000Y-106035000D02*
X198535000Y-106600000D01*
X159800000Y-81354265D02*
X159800000Y-78100000D01*
X160600000Y-82154265D02*
X159800000Y-81354265D01*
X163600000Y-77950000D02*
X165400000Y-79750000D01*
X165400000Y-79750000D02*
X173750000Y-79750000D01*
X225900000Y-65087500D02*
X228750000Y-65087500D01*
X160600000Y-82762500D02*
X160600000Y-82154265D01*
X231600000Y-65087500D02*
X228750000Y-65087500D01*
D26*
X162200000Y-82050000D02*
X162200000Y-80670000D01*
X205075000Y-71300000D02*
X207900000Y-68475000D01*
X163550000Y-76800000D02*
X162180000Y-76800000D01*
X171500000Y-71300000D02*
X205075000Y-71300000D01*
D25*
X161800000Y-82762500D02*
X161800000Y-82450000D01*
D26*
X161880000Y-77100000D02*
X161880000Y-78725000D01*
X161880000Y-78725000D02*
X161880000Y-80350000D01*
X164049511Y-75049511D02*
X167750489Y-75049511D01*
X162180000Y-76800000D02*
X161880000Y-77100000D01*
X167750489Y-75049511D02*
X171500000Y-71300000D01*
D25*
X161800000Y-82450000D02*
X162200000Y-82050000D01*
D26*
X207900000Y-68475000D02*
X210450000Y-68475000D01*
D25*
X162200000Y-82762500D02*
X162200000Y-82050000D01*
D26*
X163850000Y-74850000D02*
X164049511Y-75049511D01*
X162200000Y-80670000D02*
X161880000Y-80350000D01*
D25*
X147415000Y-117500000D02*
X149065000Y-115850000D01*
X187270000Y-108100000D02*
X188020000Y-107350000D01*
X167745721Y-81825011D02*
X167800000Y-81879290D01*
X188800000Y-113350000D02*
X190550000Y-111600000D01*
X167250000Y-125500000D02*
X166000000Y-125500000D01*
X163074989Y-81825011D02*
X167745721Y-81825011D01*
X188535000Y-113350000D02*
X188800000Y-113350000D01*
X183535000Y-107757181D02*
X185138909Y-109361091D01*
X187900000Y-125100000D02*
X188535000Y-124465000D01*
X166000000Y-125500000D02*
X165080000Y-124580000D01*
D26*
X167800000Y-81950000D02*
X167700000Y-81850000D01*
D25*
X185138909Y-109361091D02*
X186035000Y-110257181D01*
X167800000Y-81879290D02*
X167800000Y-81950000D01*
X131785000Y-116100000D02*
X131785000Y-115185000D01*
X162600000Y-82300000D02*
X163074989Y-81825011D01*
X185330000Y-118600000D02*
X185330000Y-117280000D01*
D26*
X173900000Y-82900000D02*
X173350000Y-82900000D01*
D25*
X130165000Y-115185000D02*
X129950000Y-115400000D01*
X190165480Y-106480480D02*
X190785000Y-107100000D01*
X185800000Y-108700000D02*
X185800000Y-108100000D01*
X188020000Y-107350000D02*
X188020000Y-106730000D01*
X191785000Y-110365000D02*
X191785000Y-109850000D01*
X131785000Y-115185000D02*
X130165000Y-115185000D01*
X129950000Y-117350000D02*
X130100000Y-117500000D01*
X167565000Y-123350000D02*
X169315000Y-125100000D01*
X191785000Y-108100000D02*
X191785000Y-109850000D01*
X185330000Y-117280000D02*
X185250000Y-117200000D01*
X165080000Y-124580000D02*
X165080000Y-123600000D01*
X183535000Y-107100000D02*
X183535000Y-107757181D01*
X186035000Y-110257181D02*
X186035000Y-111350000D01*
X180450000Y-87100000D02*
X184350000Y-87100000D01*
X167565000Y-125185000D02*
X167250000Y-125500000D01*
X188269520Y-106480480D02*
X190165480Y-106480480D01*
X185800000Y-108100000D02*
X187270000Y-108100000D01*
X190000000Y-118600000D02*
X188550000Y-117150000D01*
X129950000Y-115400000D02*
X129950000Y-117350000D01*
D26*
X168100000Y-82250000D02*
X167800000Y-81950000D01*
D25*
X188020000Y-106730000D02*
X188269520Y-106480480D01*
X198815000Y-118600000D02*
X190000000Y-118600000D01*
X169315000Y-125100000D02*
X181565000Y-125100000D01*
X188535000Y-124465000D02*
X188535000Y-113350000D01*
X181565000Y-125100000D02*
X182565000Y-124100000D01*
D26*
X173350000Y-82900000D02*
X172700000Y-82250000D01*
D25*
X190785000Y-107100000D02*
X191785000Y-108100000D01*
D26*
X172700000Y-82250000D02*
X168100000Y-82250000D01*
D25*
X167565000Y-123350000D02*
X167565000Y-125185000D01*
X162600000Y-82762500D02*
X162600000Y-82300000D01*
X183535000Y-99735000D02*
X183500000Y-99700000D01*
X183535000Y-107100000D02*
X183535000Y-99735000D01*
X185138909Y-109361091D02*
X185800000Y-108700000D01*
X181565000Y-125100000D02*
X187900000Y-125100000D01*
X176350000Y-83000000D02*
X180450000Y-87100000D01*
X130100000Y-117500000D02*
X147415000Y-117500000D01*
X190550000Y-111600000D02*
X191785000Y-110365000D01*
M02*
