G04 #@! TF.GenerationSoftware,KiCad,Pcbnew,6.0.2+dfsg-1*
G04 #@! TF.CreationDate,2023-12-26T19:09:35+01:00*
G04 #@! TF.ProjectId,vesuvius-badge-charlie,76657375-7669-4757-932d-62616467652d,rev?*
G04 #@! TF.SameCoordinates,Original*
G04 #@! TF.FileFunction,Soldermask,Top*
G04 #@! TF.FilePolarity,Negative*
%FSLAX46Y46*%
G04 Gerber Fmt 4.6, Leading zero omitted, Abs format (unit mm)*
G04 Created by KiCad (PCBNEW 6.0.2+dfsg-1) date 2023-12-26 19:09:35*
%MOMM*%
%LPD*%
G01*
G04 APERTURE LIST*
G04 Aperture macros list*
%AMRoundRect*
0 Rectangle with rounded corners*
0 $1 Rounding radius*
0 $2 $3 $4 $5 $6 $7 $8 $9 X,Y pos of 4 corners*
0 Add a 4 corners polygon primitive as box body*
4,1,4,$2,$3,$4,$5,$6,$7,$8,$9,$2,$3,0*
0 Add four circle primitives for the rounded corners*
1,1,$1+$1,$2,$3*
1,1,$1+$1,$4,$5*
1,1,$1+$1,$6,$7*
1,1,$1+$1,$8,$9*
0 Add four rect primitives between the rounded corners*
20,1,$1+$1,$2,$3,$4,$5,0*
20,1,$1+$1,$4,$5,$6,$7,0*
20,1,$1+$1,$6,$7,$8,$9,0*
20,1,$1+$1,$8,$9,$2,$3,0*%
G04 Aperture macros list end*
%ADD10RoundRect,0.147500X-0.147500X-0.172500X0.147500X-0.172500X0.147500X0.172500X-0.147500X0.172500X0*%
%ADD11R,1.700000X1.700000*%
%ADD12O,1.700000X1.700000*%
%ADD13RoundRect,0.218750X-0.218750X-0.256250X0.218750X-0.256250X0.218750X0.256250X-0.218750X0.256250X0*%
%ADD14RoundRect,0.218750X0.256250X-0.218750X0.256250X0.218750X-0.256250X0.218750X-0.256250X-0.218750X0*%
%ADD15RoundRect,0.218750X0.218750X0.256250X-0.218750X0.256250X-0.218750X-0.256250X0.218750X-0.256250X0*%
%ADD16C,5.300000*%
%ADD17RoundRect,0.050000X-0.050000X0.362500X-0.050000X-0.362500X0.050000X-0.362500X0.050000X0.362500X0*%
%ADD18RoundRect,0.050000X-0.362500X0.050000X-0.362500X-0.050000X0.362500X-0.050000X0.362500X0.050000X0*%
%ADD19R,2.300000X2.300000*%
%ADD20RoundRect,0.147500X0.147500X0.172500X-0.147500X0.172500X-0.147500X-0.172500X0.147500X-0.172500X0*%
%ADD21RoundRect,0.200000X-0.275000X0.200000X-0.275000X-0.200000X0.275000X-0.200000X0.275000X0.200000X0*%
%ADD22RoundRect,0.140000X0.140000X0.170000X-0.140000X0.170000X-0.140000X-0.170000X0.140000X-0.170000X0*%
%ADD23RoundRect,0.200000X0.275000X-0.200000X0.275000X0.200000X-0.275000X0.200000X-0.275000X-0.200000X0*%
G04 APERTURE END LIST*
D10*
X243530000Y-55250000D03*
X244500000Y-55250000D03*
D11*
X239750000Y-64525000D03*
D12*
X239750000Y-61985000D03*
X239750000Y-59445000D03*
D11*
X217750000Y-67750000D03*
D12*
X220290000Y-67750000D03*
X222830000Y-67750000D03*
X225370000Y-67750000D03*
X227910000Y-67750000D03*
D13*
X155462500Y-114000000D03*
X157037500Y-114000000D03*
D14*
X221250000Y-115287500D03*
X221250000Y-113712500D03*
D13*
X190512500Y-109850000D03*
X192087500Y-109850000D03*
D15*
X136602500Y-111100000D03*
X135027500Y-111100000D03*
D13*
X161527500Y-108750000D03*
X163102500Y-108750000D03*
X214262500Y-111600000D03*
X215837500Y-111600000D03*
X173212500Y-106000000D03*
X174787500Y-106000000D03*
D14*
X147750000Y-107287500D03*
X147750000Y-105712500D03*
D13*
X237777500Y-104600000D03*
X239352500Y-104600000D03*
D14*
X204500000Y-107037500D03*
X204500000Y-105462500D03*
D16*
X253500000Y-60000000D03*
X115250000Y-60000000D03*
D10*
X145065000Y-115100000D03*
X146035000Y-115100000D03*
X189580000Y-111600000D03*
X190550000Y-111600000D03*
X172050000Y-104600000D03*
X173020000Y-104600000D03*
X171315000Y-111350000D03*
X172285000Y-111350000D03*
X168080000Y-119100000D03*
X169050000Y-119100000D03*
D17*
X162600000Y-82762500D03*
X162200000Y-82762500D03*
X161800000Y-82762500D03*
X161400000Y-82762500D03*
X161000000Y-82762500D03*
X160600000Y-82762500D03*
X160200000Y-82762500D03*
D18*
X159462500Y-83500000D03*
X159462500Y-83900000D03*
X159462500Y-84300000D03*
X159462500Y-84700000D03*
X159462500Y-85100000D03*
X159462500Y-85500000D03*
X159462500Y-85900000D03*
D17*
X160200000Y-86637500D03*
X160600000Y-86637500D03*
X161000000Y-86637500D03*
X161400000Y-86637500D03*
X161800000Y-86637500D03*
X162200000Y-86637500D03*
X162600000Y-86637500D03*
D18*
X163337500Y-85900000D03*
X163337500Y-85500000D03*
X163337500Y-85100000D03*
X163337500Y-84700000D03*
X163337500Y-84300000D03*
X163337500Y-83900000D03*
X163337500Y-83500000D03*
D19*
X161400000Y-84700000D03*
D20*
X140485000Y-76050000D03*
X139515000Y-76050000D03*
D10*
X149065000Y-115850000D03*
X150035000Y-115850000D03*
D21*
X207900000Y-68475000D03*
X207900000Y-70125000D03*
X210450000Y-68475000D03*
X210450000Y-70125000D03*
D10*
X198815000Y-118600000D03*
X199785000Y-118600000D03*
X236565000Y-110350000D03*
X237535000Y-110350000D03*
X217080000Y-106600000D03*
X218050000Y-106600000D03*
X184050000Y-97850000D03*
X185020000Y-97850000D03*
X225315000Y-111350000D03*
X226285000Y-111350000D03*
X197050000Y-100600000D03*
X198020000Y-100600000D03*
X160365000Y-115000000D03*
X161335000Y-115000000D03*
X239830000Y-113600000D03*
X240800000Y-113600000D03*
X214815000Y-105350000D03*
X215785000Y-105350000D03*
X201300000Y-102100000D03*
X202270000Y-102100000D03*
X223315000Y-102100000D03*
X224285000Y-102100000D03*
D20*
X135785000Y-106850000D03*
X134815000Y-106850000D03*
D10*
X184815000Y-121100000D03*
X185785000Y-121100000D03*
X143565000Y-108600000D03*
X144535000Y-108600000D03*
X199315000Y-116600000D03*
X200285000Y-116600000D03*
X185330000Y-118600000D03*
X186300000Y-118600000D03*
X189230000Y-80650000D03*
X190200000Y-80650000D03*
X180065000Y-90100000D03*
X181035000Y-90100000D03*
X192815000Y-107100000D03*
X193785000Y-107100000D03*
X127015000Y-69750000D03*
X127985000Y-69750000D03*
X200050000Y-109100000D03*
X201020000Y-109100000D03*
X235315000Y-112850000D03*
X236285000Y-112850000D03*
X174050000Y-98100000D03*
X175020000Y-98100000D03*
X242565000Y-82600000D03*
X243535000Y-82600000D03*
X208550000Y-121600000D03*
X209520000Y-121600000D03*
X184830000Y-108100000D03*
X185800000Y-108100000D03*
X231065000Y-83100000D03*
X232035000Y-83100000D03*
X147065000Y-115600000D03*
X148035000Y-115600000D03*
D20*
X163285000Y-110250000D03*
X162315000Y-110250000D03*
X135285000Y-114600000D03*
X134315000Y-114600000D03*
D10*
X222065000Y-118600000D03*
X223035000Y-118600000D03*
X231315000Y-111600000D03*
X232285000Y-111600000D03*
X182315000Y-85850000D03*
X183285000Y-85850000D03*
D22*
X161880000Y-77100000D03*
X160920000Y-77100000D03*
D10*
X187565000Y-113350000D03*
X188535000Y-113350000D03*
X209815000Y-106100000D03*
X210785000Y-106100000D03*
D20*
X132235000Y-87300000D03*
X131265000Y-87300000D03*
D10*
X156800000Y-106350000D03*
X157770000Y-106350000D03*
X158315000Y-115000000D03*
X159285000Y-115000000D03*
X245065000Y-115350000D03*
X246035000Y-115350000D03*
X229300000Y-109100000D03*
X230270000Y-109100000D03*
X186815000Y-98600000D03*
X187785000Y-98600000D03*
X200050000Y-106850000D03*
X201020000Y-106850000D03*
X200315000Y-114850000D03*
X201285000Y-114850000D03*
X144065000Y-113600000D03*
X145035000Y-113600000D03*
D20*
X136035000Y-112850000D03*
X135065000Y-112850000D03*
D10*
X144050000Y-111850000D03*
X145020000Y-111850000D03*
X173315000Y-109850000D03*
X174285000Y-109850000D03*
X169565000Y-100850000D03*
X170535000Y-100850000D03*
X221550000Y-116850000D03*
X222520000Y-116850000D03*
X161565000Y-107100000D03*
X162535000Y-107100000D03*
X206315000Y-105600000D03*
X207285000Y-105600000D03*
X211300000Y-116600000D03*
X212270000Y-116600000D03*
X162315000Y-114350000D03*
X163285000Y-114350000D03*
X182565000Y-107100000D03*
X183535000Y-107100000D03*
X208115000Y-78050000D03*
X209085000Y-78050000D03*
X167565000Y-105600000D03*
X168535000Y-105600000D03*
X140065000Y-106850000D03*
X141035000Y-106850000D03*
X162550000Y-112600000D03*
X163520000Y-112600000D03*
X243300000Y-68100000D03*
X244270000Y-68100000D03*
X184800000Y-123100000D03*
X185770000Y-123100000D03*
X194050000Y-96600000D03*
X195020000Y-96600000D03*
X226815000Y-72350000D03*
X227785000Y-72350000D03*
X195050000Y-106100000D03*
X196020000Y-106100000D03*
D20*
X121265000Y-77250000D03*
X122235000Y-77250000D03*
D10*
X230330000Y-110350000D03*
X231300000Y-110350000D03*
D20*
X131785000Y-116100000D03*
X130815000Y-116100000D03*
D22*
X161880000Y-78725000D03*
X160920000Y-78725000D03*
D10*
X226065000Y-106850000D03*
X227035000Y-106850000D03*
X168050000Y-112850000D03*
X169020000Y-112850000D03*
X184080000Y-113350000D03*
X185050000Y-113350000D03*
D23*
X231600000Y-65087500D03*
X231600000Y-63437500D03*
D10*
X167565000Y-123350000D03*
X168535000Y-123350000D03*
X154065000Y-111100000D03*
X155035000Y-111100000D03*
X168050000Y-121350000D03*
X169020000Y-121350000D03*
X187050000Y-107350000D03*
X188020000Y-107350000D03*
X198665000Y-77250000D03*
X199635000Y-77250000D03*
X143815000Y-110100000D03*
X144785000Y-110100000D03*
X246065000Y-118350000D03*
X247035000Y-118350000D03*
X236315000Y-108350000D03*
X237285000Y-108350000D03*
X226065000Y-104850000D03*
X227035000Y-104850000D03*
X174982500Y-80450000D03*
X175952500Y-80450000D03*
X185080000Y-115600000D03*
X186050000Y-115600000D03*
X224300000Y-113850000D03*
X225270000Y-113850000D03*
X154065000Y-108850000D03*
X155035000Y-108850000D03*
X236550000Y-106350000D03*
X237520000Y-106350000D03*
D22*
X161880000Y-80350000D03*
X160920000Y-80350000D03*
D20*
X169035000Y-115100000D03*
X168065000Y-115100000D03*
D10*
X242565000Y-115100000D03*
X243535000Y-115100000D03*
X177800000Y-94100000D03*
X178770000Y-94100000D03*
X250830000Y-72350000D03*
X251800000Y-72350000D03*
D20*
X136800000Y-109100000D03*
X135830000Y-109100000D03*
D10*
X168050000Y-110350000D03*
X169020000Y-110350000D03*
X212065000Y-108600000D03*
X213035000Y-108600000D03*
X192065000Y-92100000D03*
X193035000Y-92100000D03*
X182565000Y-124100000D03*
X183535000Y-124100000D03*
X167315000Y-107850000D03*
X168285000Y-107850000D03*
X159330000Y-105850000D03*
X160300000Y-105850000D03*
X181565000Y-112600000D03*
X182535000Y-112600000D03*
D21*
X157750000Y-88100000D03*
X157750000Y-89750000D03*
D10*
X154815000Y-112600000D03*
X155785000Y-112600000D03*
X169565000Y-104600000D03*
X170535000Y-104600000D03*
X200300000Y-111100000D03*
X201270000Y-111100000D03*
X226330000Y-109350000D03*
X227300000Y-109350000D03*
X154565000Y-107100000D03*
X155535000Y-107100000D03*
X215880000Y-85300000D03*
X216850000Y-85300000D03*
X178550000Y-109850000D03*
X179520000Y-109850000D03*
X234330000Y-95100000D03*
X235300000Y-95100000D03*
X174815000Y-108350000D03*
X175785000Y-108350000D03*
X228065000Y-107600000D03*
X229035000Y-107600000D03*
D20*
X143685000Y-83450000D03*
X142715000Y-83450000D03*
D10*
X179815000Y-107850000D03*
X180785000Y-107850000D03*
X144815000Y-106600000D03*
X145785000Y-106600000D03*
X223315000Y-115350000D03*
X224285000Y-115350000D03*
D23*
X228750000Y-65087500D03*
X228750000Y-63437500D03*
D20*
X134785000Y-116600000D03*
X133815000Y-116600000D03*
D23*
X225900000Y-65087500D03*
X225900000Y-63437500D03*
D10*
X189815000Y-86850000D03*
X190785000Y-86850000D03*
X202080000Y-107850000D03*
X203050000Y-107850000D03*
X212565000Y-106100000D03*
X213535000Y-106100000D03*
X197565000Y-106600000D03*
X198535000Y-106600000D03*
X149550000Y-106600000D03*
X150520000Y-106600000D03*
X168080000Y-117100000D03*
X169050000Y-117100000D03*
X185065000Y-100350000D03*
X186035000Y-100350000D03*
X185065000Y-111350000D03*
X186035000Y-111350000D03*
X237830000Y-112350000D03*
X238800000Y-112350000D03*
D20*
X132785000Y-107350000D03*
X131815000Y-107350000D03*
D10*
X137550000Y-107100000D03*
X138520000Y-107100000D03*
X210815000Y-119600000D03*
X211785000Y-119600000D03*
X165080000Y-123600000D03*
X166050000Y-123600000D03*
X189815000Y-107100000D03*
X190785000Y-107100000D03*
X211565000Y-112600000D03*
X212535000Y-112600000D03*
X168630000Y-75750000D03*
X169600000Y-75750000D03*
X142565000Y-106850000D03*
X143535000Y-106850000D03*
M02*
