G04 #@! TF.GenerationSoftware,KiCad,Pcbnew,6.0.2+dfsg-1*
G04 #@! TF.CreationDate,2023-12-26T19:09:35+01:00*
G04 #@! TF.ProjectId,vesuvius-badge-charlie,76657375-7669-4757-932d-62616467652d,rev?*
G04 #@! TF.SameCoordinates,Original*
G04 #@! TF.FileFunction,Legend,Top*
G04 #@! TF.FilePolarity,Positive*
%FSLAX46Y46*%
G04 Gerber Fmt 4.6, Leading zero omitted, Abs format (unit mm)*
G04 Created by KiCad (PCBNEW 6.0.2+dfsg-1) date 2023-12-26 19:09:35*
%MOMM*%
%LPD*%
G01*
G04 APERTURE LIST*
G04 Aperture macros list*
%AMRoundRect*
0 Rectangle with rounded corners*
0 $1 Rounding radius*
0 $2 $3 $4 $5 $6 $7 $8 $9 X,Y pos of 4 corners*
0 Add a 4 corners polygon primitive as box body*
4,1,4,$2,$3,$4,$5,$6,$7,$8,$9,$2,$3,0*
0 Add four circle primitives for the rounded corners*
1,1,$1+$1,$2,$3*
1,1,$1+$1,$4,$5*
1,1,$1+$1,$6,$7*
1,1,$1+$1,$8,$9*
0 Add four rect primitives between the rounded corners*
20,1,$1+$1,$2,$3,$4,$5,0*
20,1,$1+$1,$4,$5,$6,$7,0*
20,1,$1+$1,$6,$7,$8,$9,0*
20,1,$1+$1,$8,$9,$2,$3,0*%
G04 Aperture macros list end*
%ADD10C,0.150000*%
%ADD11C,0.120000*%
%ADD12C,0.100000*%
%ADD13RoundRect,0.147500X-0.147500X-0.172500X0.147500X-0.172500X0.147500X0.172500X-0.147500X0.172500X0*%
%ADD14R,1.700000X1.700000*%
%ADD15O,1.700000X1.700000*%
%ADD16RoundRect,0.218750X-0.218750X-0.256250X0.218750X-0.256250X0.218750X0.256250X-0.218750X0.256250X0*%
%ADD17RoundRect,0.218750X0.256250X-0.218750X0.256250X0.218750X-0.256250X0.218750X-0.256250X-0.218750X0*%
%ADD18RoundRect,0.218750X0.218750X0.256250X-0.218750X0.256250X-0.218750X-0.256250X0.218750X-0.256250X0*%
%ADD19C,5.300000*%
%ADD20RoundRect,0.050000X-0.050000X0.362500X-0.050000X-0.362500X0.050000X-0.362500X0.050000X0.362500X0*%
%ADD21RoundRect,0.050000X-0.362500X0.050000X-0.362500X-0.050000X0.362500X-0.050000X0.362500X0.050000X0*%
%ADD22R,2.300000X2.300000*%
%ADD23RoundRect,0.147500X0.147500X0.172500X-0.147500X0.172500X-0.147500X-0.172500X0.147500X-0.172500X0*%
%ADD24RoundRect,0.200000X-0.275000X0.200000X-0.275000X-0.200000X0.275000X-0.200000X0.275000X0.200000X0*%
%ADD25RoundRect,0.140000X0.140000X0.170000X-0.140000X0.170000X-0.140000X-0.170000X0.140000X-0.170000X0*%
%ADD26RoundRect,0.200000X0.275000X-0.200000X0.275000X0.200000X-0.275000X0.200000X-0.275000X-0.200000X0*%
G04 APERTURE END LIST*
D10*
X243681666Y-54008571D02*
X243348333Y-54008571D01*
X243348333Y-54532380D02*
X243348333Y-53532380D01*
X243824523Y-53532380D01*
X244729285Y-54532380D02*
X244157857Y-54532380D01*
X244443571Y-54532380D02*
X244443571Y-53532380D01*
X244348333Y-53675238D01*
X244253095Y-53770476D01*
X244157857Y-53818095D01*
X154559523Y-113022380D02*
X154559523Y-112022380D01*
X154797619Y-112022380D01*
X154940476Y-112070000D01*
X155035714Y-112165238D01*
X155083333Y-112260476D01*
X155130952Y-112450952D01*
X155130952Y-112593809D01*
X155083333Y-112784285D01*
X155035714Y-112879523D01*
X154940476Y-112974761D01*
X154797619Y-113022380D01*
X154559523Y-113022380D01*
X156083333Y-113022380D02*
X155511904Y-113022380D01*
X155797619Y-113022380D02*
X155797619Y-112022380D01*
X155702380Y-112165238D01*
X155607142Y-112260476D01*
X155511904Y-112308095D01*
X157035714Y-113022380D02*
X156464285Y-113022380D01*
X156750000Y-113022380D02*
X156750000Y-112022380D01*
X156654761Y-112165238D01*
X156559523Y-112260476D01*
X156464285Y-112308095D01*
X157940476Y-112022380D02*
X157464285Y-112022380D01*
X157416666Y-112498571D01*
X157464285Y-112450952D01*
X157559523Y-112403333D01*
X157797619Y-112403333D01*
X157892857Y-112450952D01*
X157940476Y-112498571D01*
X157988095Y-112593809D01*
X157988095Y-112831904D01*
X157940476Y-112927142D01*
X157892857Y-112974761D01*
X157797619Y-113022380D01*
X157559523Y-113022380D01*
X157464285Y-112974761D01*
X157416666Y-112927142D01*
X220272380Y-116190476D02*
X219272380Y-116190476D01*
X219272380Y-115952380D01*
X219320000Y-115809523D01*
X219415238Y-115714285D01*
X219510476Y-115666666D01*
X219700952Y-115619047D01*
X219843809Y-115619047D01*
X220034285Y-115666666D01*
X220129523Y-115714285D01*
X220224761Y-115809523D01*
X220272380Y-115952380D01*
X220272380Y-116190476D01*
X220272380Y-114666666D02*
X220272380Y-115238095D01*
X220272380Y-114952380D02*
X219272380Y-114952380D01*
X219415238Y-115047619D01*
X219510476Y-115142857D01*
X219558095Y-115238095D01*
X219272380Y-114047619D02*
X219272380Y-113952380D01*
X219320000Y-113857142D01*
X219367619Y-113809523D01*
X219462857Y-113761904D01*
X219653333Y-113714285D01*
X219891428Y-113714285D01*
X220081904Y-113761904D01*
X220177142Y-113809523D01*
X220224761Y-113857142D01*
X220272380Y-113952380D01*
X220272380Y-114047619D01*
X220224761Y-114142857D01*
X220177142Y-114190476D01*
X220081904Y-114238095D01*
X219891428Y-114285714D01*
X219653333Y-114285714D01*
X219462857Y-114238095D01*
X219367619Y-114190476D01*
X219320000Y-114142857D01*
X219272380Y-114047619D01*
X219272380Y-113380952D02*
X219272380Y-112714285D01*
X220272380Y-113142857D01*
X190085714Y-108872380D02*
X190085714Y-107872380D01*
X190323809Y-107872380D01*
X190466666Y-107920000D01*
X190561904Y-108015238D01*
X190609523Y-108110476D01*
X190657142Y-108300952D01*
X190657142Y-108443809D01*
X190609523Y-108634285D01*
X190561904Y-108729523D01*
X190466666Y-108824761D01*
X190323809Y-108872380D01*
X190085714Y-108872380D01*
X191228571Y-108300952D02*
X191133333Y-108253333D01*
X191085714Y-108205714D01*
X191038095Y-108110476D01*
X191038095Y-108062857D01*
X191085714Y-107967619D01*
X191133333Y-107920000D01*
X191228571Y-107872380D01*
X191419047Y-107872380D01*
X191514285Y-107920000D01*
X191561904Y-107967619D01*
X191609523Y-108062857D01*
X191609523Y-108110476D01*
X191561904Y-108205714D01*
X191514285Y-108253333D01*
X191419047Y-108300952D01*
X191228571Y-108300952D01*
X191133333Y-108348571D01*
X191085714Y-108396190D01*
X191038095Y-108491428D01*
X191038095Y-108681904D01*
X191085714Y-108777142D01*
X191133333Y-108824761D01*
X191228571Y-108872380D01*
X191419047Y-108872380D01*
X191514285Y-108824761D01*
X191561904Y-108777142D01*
X191609523Y-108681904D01*
X191609523Y-108491428D01*
X191561904Y-108396190D01*
X191514285Y-108348571D01*
X191419047Y-108300952D01*
X192180952Y-108300952D02*
X192085714Y-108253333D01*
X192038095Y-108205714D01*
X191990476Y-108110476D01*
X191990476Y-108062857D01*
X192038095Y-107967619D01*
X192085714Y-107920000D01*
X192180952Y-107872380D01*
X192371428Y-107872380D01*
X192466666Y-107920000D01*
X192514285Y-107967619D01*
X192561904Y-108062857D01*
X192561904Y-108110476D01*
X192514285Y-108205714D01*
X192466666Y-108253333D01*
X192371428Y-108300952D01*
X192180952Y-108300952D01*
X192085714Y-108348571D01*
X192038095Y-108396190D01*
X191990476Y-108491428D01*
X191990476Y-108681904D01*
X192038095Y-108777142D01*
X192085714Y-108824761D01*
X192180952Y-108872380D01*
X192371428Y-108872380D01*
X192466666Y-108824761D01*
X192514285Y-108777142D01*
X192561904Y-108681904D01*
X192561904Y-108491428D01*
X192514285Y-108396190D01*
X192466666Y-108348571D01*
X192371428Y-108300952D01*
X134600714Y-112982380D02*
X134600714Y-111982380D01*
X134838809Y-111982380D01*
X134981666Y-112030000D01*
X135076904Y-112125238D01*
X135124523Y-112220476D01*
X135172142Y-112410952D01*
X135172142Y-112553809D01*
X135124523Y-112744285D01*
X135076904Y-112839523D01*
X134981666Y-112934761D01*
X134838809Y-112982380D01*
X134600714Y-112982380D01*
X136029285Y-111982380D02*
X135838809Y-111982380D01*
X135743571Y-112030000D01*
X135695952Y-112077619D01*
X135600714Y-112220476D01*
X135553095Y-112410952D01*
X135553095Y-112791904D01*
X135600714Y-112887142D01*
X135648333Y-112934761D01*
X135743571Y-112982380D01*
X135934047Y-112982380D01*
X136029285Y-112934761D01*
X136076904Y-112887142D01*
X136124523Y-112791904D01*
X136124523Y-112553809D01*
X136076904Y-112458571D01*
X136029285Y-112410952D01*
X135934047Y-112363333D01*
X135743571Y-112363333D01*
X135648333Y-112410952D01*
X135600714Y-112458571D01*
X135553095Y-112553809D01*
X137029285Y-111982380D02*
X136553095Y-111982380D01*
X136505476Y-112458571D01*
X136553095Y-112410952D01*
X136648333Y-112363333D01*
X136886428Y-112363333D01*
X136981666Y-112410952D01*
X137029285Y-112458571D01*
X137076904Y-112553809D01*
X137076904Y-112791904D01*
X137029285Y-112887142D01*
X136981666Y-112934761D01*
X136886428Y-112982380D01*
X136648333Y-112982380D01*
X136553095Y-112934761D01*
X136505476Y-112887142D01*
X161100714Y-107772380D02*
X161100714Y-106772380D01*
X161338809Y-106772380D01*
X161481666Y-106820000D01*
X161576904Y-106915238D01*
X161624523Y-107010476D01*
X161672142Y-107200952D01*
X161672142Y-107343809D01*
X161624523Y-107534285D01*
X161576904Y-107629523D01*
X161481666Y-107724761D01*
X161338809Y-107772380D01*
X161100714Y-107772380D01*
X162576904Y-106772380D02*
X162100714Y-106772380D01*
X162053095Y-107248571D01*
X162100714Y-107200952D01*
X162195952Y-107153333D01*
X162434047Y-107153333D01*
X162529285Y-107200952D01*
X162576904Y-107248571D01*
X162624523Y-107343809D01*
X162624523Y-107581904D01*
X162576904Y-107677142D01*
X162529285Y-107724761D01*
X162434047Y-107772380D01*
X162195952Y-107772380D01*
X162100714Y-107724761D01*
X162053095Y-107677142D01*
X163005476Y-106867619D02*
X163053095Y-106820000D01*
X163148333Y-106772380D01*
X163386428Y-106772380D01*
X163481666Y-106820000D01*
X163529285Y-106867619D01*
X163576904Y-106962857D01*
X163576904Y-107058095D01*
X163529285Y-107200952D01*
X162957857Y-107772380D01*
X163576904Y-107772380D01*
X213835714Y-110622380D02*
X213835714Y-109622380D01*
X214073809Y-109622380D01*
X214216666Y-109670000D01*
X214311904Y-109765238D01*
X214359523Y-109860476D01*
X214407142Y-110050952D01*
X214407142Y-110193809D01*
X214359523Y-110384285D01*
X214311904Y-110479523D01*
X214216666Y-110574761D01*
X214073809Y-110622380D01*
X213835714Y-110622380D01*
X215264285Y-109955714D02*
X215264285Y-110622380D01*
X215026190Y-109574761D02*
X214788095Y-110289047D01*
X215407142Y-110289047D01*
X215692857Y-109622380D02*
X216311904Y-109622380D01*
X215978571Y-110003333D01*
X216121428Y-110003333D01*
X216216666Y-110050952D01*
X216264285Y-110098571D01*
X216311904Y-110193809D01*
X216311904Y-110431904D01*
X216264285Y-110527142D01*
X216216666Y-110574761D01*
X216121428Y-110622380D01*
X215835714Y-110622380D01*
X215740476Y-110574761D01*
X215692857Y-110527142D01*
X172785714Y-105022380D02*
X172785714Y-104022380D01*
X173023809Y-104022380D01*
X173166666Y-104070000D01*
X173261904Y-104165238D01*
X173309523Y-104260476D01*
X173357142Y-104450952D01*
X173357142Y-104593809D01*
X173309523Y-104784285D01*
X173261904Y-104879523D01*
X173166666Y-104974761D01*
X173023809Y-105022380D01*
X172785714Y-105022380D01*
X173690476Y-104022380D02*
X174309523Y-104022380D01*
X173976190Y-104403333D01*
X174119047Y-104403333D01*
X174214285Y-104450952D01*
X174261904Y-104498571D01*
X174309523Y-104593809D01*
X174309523Y-104831904D01*
X174261904Y-104927142D01*
X174214285Y-104974761D01*
X174119047Y-105022380D01*
X173833333Y-105022380D01*
X173738095Y-104974761D01*
X173690476Y-104927142D01*
X174880952Y-104450952D02*
X174785714Y-104403333D01*
X174738095Y-104355714D01*
X174690476Y-104260476D01*
X174690476Y-104212857D01*
X174738095Y-104117619D01*
X174785714Y-104070000D01*
X174880952Y-104022380D01*
X175071428Y-104022380D01*
X175166666Y-104070000D01*
X175214285Y-104117619D01*
X175261904Y-104212857D01*
X175261904Y-104260476D01*
X175214285Y-104355714D01*
X175166666Y-104403333D01*
X175071428Y-104450952D01*
X174880952Y-104450952D01*
X174785714Y-104498571D01*
X174738095Y-104546190D01*
X174690476Y-104641428D01*
X174690476Y-104831904D01*
X174738095Y-104927142D01*
X174785714Y-104974761D01*
X174880952Y-105022380D01*
X175071428Y-105022380D01*
X175166666Y-104974761D01*
X175214285Y-104927142D01*
X175261904Y-104831904D01*
X175261904Y-104641428D01*
X175214285Y-104546190D01*
X175166666Y-104498571D01*
X175071428Y-104450952D01*
X146772380Y-107714285D02*
X145772380Y-107714285D01*
X145772380Y-107476190D01*
X145820000Y-107333333D01*
X145915238Y-107238095D01*
X146010476Y-107190476D01*
X146200952Y-107142857D01*
X146343809Y-107142857D01*
X146534285Y-107190476D01*
X146629523Y-107238095D01*
X146724761Y-107333333D01*
X146772380Y-107476190D01*
X146772380Y-107714285D01*
X146772380Y-106190476D02*
X146772380Y-106761904D01*
X146772380Y-106476190D02*
X145772380Y-106476190D01*
X145915238Y-106571428D01*
X146010476Y-106666666D01*
X146058095Y-106761904D01*
X146772380Y-105714285D02*
X146772380Y-105523809D01*
X146724761Y-105428571D01*
X146677142Y-105380952D01*
X146534285Y-105285714D01*
X146343809Y-105238095D01*
X145962857Y-105238095D01*
X145867619Y-105285714D01*
X145820000Y-105333333D01*
X145772380Y-105428571D01*
X145772380Y-105619047D01*
X145820000Y-105714285D01*
X145867619Y-105761904D01*
X145962857Y-105809523D01*
X146200952Y-105809523D01*
X146296190Y-105761904D01*
X146343809Y-105714285D01*
X146391428Y-105619047D01*
X146391428Y-105428571D01*
X146343809Y-105333333D01*
X146296190Y-105285714D01*
X146200952Y-105238095D01*
X237350714Y-103622380D02*
X237350714Y-102622380D01*
X237588809Y-102622380D01*
X237731666Y-102670000D01*
X237826904Y-102765238D01*
X237874523Y-102860476D01*
X237922142Y-103050952D01*
X237922142Y-103193809D01*
X237874523Y-103384285D01*
X237826904Y-103479523D01*
X237731666Y-103574761D01*
X237588809Y-103622380D01*
X237350714Y-103622380D01*
X238874523Y-103622380D02*
X238303095Y-103622380D01*
X238588809Y-103622380D02*
X238588809Y-102622380D01*
X238493571Y-102765238D01*
X238398333Y-102860476D01*
X238303095Y-102908095D01*
X239207857Y-102622380D02*
X239826904Y-102622380D01*
X239493571Y-103003333D01*
X239636428Y-103003333D01*
X239731666Y-103050952D01*
X239779285Y-103098571D01*
X239826904Y-103193809D01*
X239826904Y-103431904D01*
X239779285Y-103527142D01*
X239731666Y-103574761D01*
X239636428Y-103622380D01*
X239350714Y-103622380D01*
X239255476Y-103574761D01*
X239207857Y-103527142D01*
X203522380Y-107464285D02*
X202522380Y-107464285D01*
X202522380Y-107226190D01*
X202570000Y-107083333D01*
X202665238Y-106988095D01*
X202760476Y-106940476D01*
X202950952Y-106892857D01*
X203093809Y-106892857D01*
X203284285Y-106940476D01*
X203379523Y-106988095D01*
X203474761Y-107083333D01*
X203522380Y-107226190D01*
X203522380Y-107464285D01*
X203522380Y-105940476D02*
X203522380Y-106511904D01*
X203522380Y-106226190D02*
X202522380Y-106226190D01*
X202665238Y-106321428D01*
X202760476Y-106416666D01*
X202808095Y-106511904D01*
X202522380Y-105321428D02*
X202522380Y-105226190D01*
X202570000Y-105130952D01*
X202617619Y-105083333D01*
X202712857Y-105035714D01*
X202903333Y-104988095D01*
X203141428Y-104988095D01*
X203331904Y-105035714D01*
X203427142Y-105083333D01*
X203474761Y-105130952D01*
X203522380Y-105226190D01*
X203522380Y-105321428D01*
X203474761Y-105416666D01*
X203427142Y-105464285D01*
X203331904Y-105511904D01*
X203141428Y-105559523D01*
X202903333Y-105559523D01*
X202712857Y-105511904D01*
X202617619Y-105464285D01*
X202570000Y-105416666D01*
X202522380Y-105321428D01*
X252738095Y-54152380D02*
X252738095Y-53152380D01*
X252738095Y-53628571D02*
X253309523Y-53628571D01*
X253309523Y-54152380D02*
X253309523Y-53152380D01*
X253738095Y-53247619D02*
X253785714Y-53200000D01*
X253880952Y-53152380D01*
X254119047Y-53152380D01*
X254214285Y-53200000D01*
X254261904Y-53247619D01*
X254309523Y-53342857D01*
X254309523Y-53438095D01*
X254261904Y-53580952D01*
X253690476Y-54152380D01*
X254309523Y-54152380D01*
X114488095Y-54152380D02*
X114488095Y-53152380D01*
X114488095Y-53628571D02*
X115059523Y-53628571D01*
X115059523Y-54152380D02*
X115059523Y-53152380D01*
X116059523Y-54152380D02*
X115488095Y-54152380D01*
X115773809Y-54152380D02*
X115773809Y-53152380D01*
X115678571Y-53295238D01*
X115583333Y-53390476D01*
X115488095Y-53438095D01*
X144335714Y-114382380D02*
X144335714Y-113382380D01*
X144573809Y-113382380D01*
X144716666Y-113430000D01*
X144811904Y-113525238D01*
X144859523Y-113620476D01*
X144907142Y-113810952D01*
X144907142Y-113953809D01*
X144859523Y-114144285D01*
X144811904Y-114239523D01*
X144716666Y-114334761D01*
X144573809Y-114382380D01*
X144335714Y-114382380D01*
X145383333Y-114382380D02*
X145573809Y-114382380D01*
X145669047Y-114334761D01*
X145716666Y-114287142D01*
X145811904Y-114144285D01*
X145859523Y-113953809D01*
X145859523Y-113572857D01*
X145811904Y-113477619D01*
X145764285Y-113430000D01*
X145669047Y-113382380D01*
X145478571Y-113382380D01*
X145383333Y-113430000D01*
X145335714Y-113477619D01*
X145288095Y-113572857D01*
X145288095Y-113810952D01*
X145335714Y-113906190D01*
X145383333Y-113953809D01*
X145478571Y-114001428D01*
X145669047Y-114001428D01*
X145764285Y-113953809D01*
X145811904Y-113906190D01*
X145859523Y-113810952D01*
X146430952Y-113810952D02*
X146335714Y-113763333D01*
X146288095Y-113715714D01*
X146240476Y-113620476D01*
X146240476Y-113572857D01*
X146288095Y-113477619D01*
X146335714Y-113430000D01*
X146430952Y-113382380D01*
X146621428Y-113382380D01*
X146716666Y-113430000D01*
X146764285Y-113477619D01*
X146811904Y-113572857D01*
X146811904Y-113620476D01*
X146764285Y-113715714D01*
X146716666Y-113763333D01*
X146621428Y-113810952D01*
X146430952Y-113810952D01*
X146335714Y-113858571D01*
X146288095Y-113906190D01*
X146240476Y-114001428D01*
X146240476Y-114191904D01*
X146288095Y-114287142D01*
X146335714Y-114334761D01*
X146430952Y-114382380D01*
X146621428Y-114382380D01*
X146716666Y-114334761D01*
X146764285Y-114287142D01*
X146811904Y-114191904D01*
X146811904Y-114001428D01*
X146764285Y-113906190D01*
X146716666Y-113858571D01*
X146621428Y-113810952D01*
X188374523Y-110882380D02*
X188374523Y-109882380D01*
X188612619Y-109882380D01*
X188755476Y-109930000D01*
X188850714Y-110025238D01*
X188898333Y-110120476D01*
X188945952Y-110310952D01*
X188945952Y-110453809D01*
X188898333Y-110644285D01*
X188850714Y-110739523D01*
X188755476Y-110834761D01*
X188612619Y-110882380D01*
X188374523Y-110882380D01*
X189898333Y-110882380D02*
X189326904Y-110882380D01*
X189612619Y-110882380D02*
X189612619Y-109882380D01*
X189517380Y-110025238D01*
X189422142Y-110120476D01*
X189326904Y-110168095D01*
X190517380Y-109882380D02*
X190612619Y-109882380D01*
X190707857Y-109930000D01*
X190755476Y-109977619D01*
X190803095Y-110072857D01*
X190850714Y-110263333D01*
X190850714Y-110501428D01*
X190803095Y-110691904D01*
X190755476Y-110787142D01*
X190707857Y-110834761D01*
X190612619Y-110882380D01*
X190517380Y-110882380D01*
X190422142Y-110834761D01*
X190374523Y-110787142D01*
X190326904Y-110691904D01*
X190279285Y-110501428D01*
X190279285Y-110263333D01*
X190326904Y-110072857D01*
X190374523Y-109977619D01*
X190422142Y-109930000D01*
X190517380Y-109882380D01*
X191707857Y-110215714D02*
X191707857Y-110882380D01*
X191469761Y-109834761D02*
X191231666Y-110549047D01*
X191850714Y-110549047D01*
X171320714Y-103882380D02*
X171320714Y-102882380D01*
X171558809Y-102882380D01*
X171701666Y-102930000D01*
X171796904Y-103025238D01*
X171844523Y-103120476D01*
X171892142Y-103310952D01*
X171892142Y-103453809D01*
X171844523Y-103644285D01*
X171796904Y-103739523D01*
X171701666Y-103834761D01*
X171558809Y-103882380D01*
X171320714Y-103882380D01*
X172273095Y-102977619D02*
X172320714Y-102930000D01*
X172415952Y-102882380D01*
X172654047Y-102882380D01*
X172749285Y-102930000D01*
X172796904Y-102977619D01*
X172844523Y-103072857D01*
X172844523Y-103168095D01*
X172796904Y-103310952D01*
X172225476Y-103882380D01*
X172844523Y-103882380D01*
X173225476Y-102977619D02*
X173273095Y-102930000D01*
X173368333Y-102882380D01*
X173606428Y-102882380D01*
X173701666Y-102930000D01*
X173749285Y-102977619D01*
X173796904Y-103072857D01*
X173796904Y-103168095D01*
X173749285Y-103310952D01*
X173177857Y-103882380D01*
X173796904Y-103882380D01*
X170585714Y-110632380D02*
X170585714Y-109632380D01*
X170823809Y-109632380D01*
X170966666Y-109680000D01*
X171061904Y-109775238D01*
X171109523Y-109870476D01*
X171157142Y-110060952D01*
X171157142Y-110203809D01*
X171109523Y-110394285D01*
X171061904Y-110489523D01*
X170966666Y-110584761D01*
X170823809Y-110632380D01*
X170585714Y-110632380D01*
X171728571Y-110060952D02*
X171633333Y-110013333D01*
X171585714Y-109965714D01*
X171538095Y-109870476D01*
X171538095Y-109822857D01*
X171585714Y-109727619D01*
X171633333Y-109680000D01*
X171728571Y-109632380D01*
X171919047Y-109632380D01*
X172014285Y-109680000D01*
X172061904Y-109727619D01*
X172109523Y-109822857D01*
X172109523Y-109870476D01*
X172061904Y-109965714D01*
X172014285Y-110013333D01*
X171919047Y-110060952D01*
X171728571Y-110060952D01*
X171633333Y-110108571D01*
X171585714Y-110156190D01*
X171538095Y-110251428D01*
X171538095Y-110441904D01*
X171585714Y-110537142D01*
X171633333Y-110584761D01*
X171728571Y-110632380D01*
X171919047Y-110632380D01*
X172014285Y-110584761D01*
X172061904Y-110537142D01*
X172109523Y-110441904D01*
X172109523Y-110251428D01*
X172061904Y-110156190D01*
X172014285Y-110108571D01*
X171919047Y-110060952D01*
X172966666Y-109632380D02*
X172776190Y-109632380D01*
X172680952Y-109680000D01*
X172633333Y-109727619D01*
X172538095Y-109870476D01*
X172490476Y-110060952D01*
X172490476Y-110441904D01*
X172538095Y-110537142D01*
X172585714Y-110584761D01*
X172680952Y-110632380D01*
X172871428Y-110632380D01*
X172966666Y-110584761D01*
X173014285Y-110537142D01*
X173061904Y-110441904D01*
X173061904Y-110203809D01*
X173014285Y-110108571D01*
X172966666Y-110060952D01*
X172871428Y-110013333D01*
X172680952Y-110013333D01*
X172585714Y-110060952D01*
X172538095Y-110108571D01*
X172490476Y-110203809D01*
X166874523Y-118382380D02*
X166874523Y-117382380D01*
X167112619Y-117382380D01*
X167255476Y-117430000D01*
X167350714Y-117525238D01*
X167398333Y-117620476D01*
X167445952Y-117810952D01*
X167445952Y-117953809D01*
X167398333Y-118144285D01*
X167350714Y-118239523D01*
X167255476Y-118334761D01*
X167112619Y-118382380D01*
X166874523Y-118382380D01*
X168398333Y-118382380D02*
X167826904Y-118382380D01*
X168112619Y-118382380D02*
X168112619Y-117382380D01*
X168017380Y-117525238D01*
X167922142Y-117620476D01*
X167826904Y-117668095D01*
X169017380Y-117382380D02*
X169112619Y-117382380D01*
X169207857Y-117430000D01*
X169255476Y-117477619D01*
X169303095Y-117572857D01*
X169350714Y-117763333D01*
X169350714Y-118001428D01*
X169303095Y-118191904D01*
X169255476Y-118287142D01*
X169207857Y-118334761D01*
X169112619Y-118382380D01*
X169017380Y-118382380D01*
X168922142Y-118334761D01*
X168874523Y-118287142D01*
X168826904Y-118191904D01*
X168779285Y-118001428D01*
X168779285Y-117763333D01*
X168826904Y-117572857D01*
X168874523Y-117477619D01*
X168922142Y-117430000D01*
X169017380Y-117382380D01*
X170303095Y-118382380D02*
X169731666Y-118382380D01*
X170017380Y-118382380D02*
X170017380Y-117382380D01*
X169922142Y-117525238D01*
X169826904Y-117620476D01*
X169731666Y-117668095D01*
X164152380Y-85461904D02*
X164961904Y-85461904D01*
X165057142Y-85414285D01*
X165104761Y-85366666D01*
X165152380Y-85271428D01*
X165152380Y-85080952D01*
X165104761Y-84985714D01*
X165057142Y-84938095D01*
X164961904Y-84890476D01*
X164152380Y-84890476D01*
X165152380Y-83890476D02*
X165152380Y-84461904D01*
X165152380Y-84176190D02*
X164152380Y-84176190D01*
X164295238Y-84271428D01*
X164390476Y-84366666D01*
X164438095Y-84461904D01*
X138785714Y-77672380D02*
X138785714Y-76672380D01*
X139023809Y-76672380D01*
X139166666Y-76720000D01*
X139261904Y-76815238D01*
X139309523Y-76910476D01*
X139357142Y-77100952D01*
X139357142Y-77243809D01*
X139309523Y-77434285D01*
X139261904Y-77529523D01*
X139166666Y-77624761D01*
X139023809Y-77672380D01*
X138785714Y-77672380D01*
X139833333Y-77672380D02*
X140023809Y-77672380D01*
X140119047Y-77624761D01*
X140166666Y-77577142D01*
X140261904Y-77434285D01*
X140309523Y-77243809D01*
X140309523Y-76862857D01*
X140261904Y-76767619D01*
X140214285Y-76720000D01*
X140119047Y-76672380D01*
X139928571Y-76672380D01*
X139833333Y-76720000D01*
X139785714Y-76767619D01*
X139738095Y-76862857D01*
X139738095Y-77100952D01*
X139785714Y-77196190D01*
X139833333Y-77243809D01*
X139928571Y-77291428D01*
X140119047Y-77291428D01*
X140214285Y-77243809D01*
X140261904Y-77196190D01*
X140309523Y-77100952D01*
X141166666Y-76672380D02*
X140976190Y-76672380D01*
X140880952Y-76720000D01*
X140833333Y-76767619D01*
X140738095Y-76910476D01*
X140690476Y-77100952D01*
X140690476Y-77481904D01*
X140738095Y-77577142D01*
X140785714Y-77624761D01*
X140880952Y-77672380D01*
X141071428Y-77672380D01*
X141166666Y-77624761D01*
X141214285Y-77577142D01*
X141261904Y-77481904D01*
X141261904Y-77243809D01*
X141214285Y-77148571D01*
X141166666Y-77100952D01*
X141071428Y-77053333D01*
X140880952Y-77053333D01*
X140785714Y-77100952D01*
X140738095Y-77148571D01*
X140690476Y-77243809D01*
X147859523Y-115132380D02*
X147859523Y-114132380D01*
X148097619Y-114132380D01*
X148240476Y-114180000D01*
X148335714Y-114275238D01*
X148383333Y-114370476D01*
X148430952Y-114560952D01*
X148430952Y-114703809D01*
X148383333Y-114894285D01*
X148335714Y-114989523D01*
X148240476Y-115084761D01*
X148097619Y-115132380D01*
X147859523Y-115132380D01*
X149383333Y-115132380D02*
X148811904Y-115132380D01*
X149097619Y-115132380D02*
X149097619Y-114132380D01*
X149002380Y-114275238D01*
X148907142Y-114370476D01*
X148811904Y-114418095D01*
X149716666Y-114132380D02*
X150335714Y-114132380D01*
X150002380Y-114513333D01*
X150145238Y-114513333D01*
X150240476Y-114560952D01*
X150288095Y-114608571D01*
X150335714Y-114703809D01*
X150335714Y-114941904D01*
X150288095Y-115037142D01*
X150240476Y-115084761D01*
X150145238Y-115132380D01*
X149859523Y-115132380D01*
X149764285Y-115084761D01*
X149716666Y-115037142D01*
X150954761Y-114132380D02*
X151050000Y-114132380D01*
X151145238Y-114180000D01*
X151192857Y-114227619D01*
X151240476Y-114322857D01*
X151288095Y-114513333D01*
X151288095Y-114751428D01*
X151240476Y-114941904D01*
X151192857Y-115037142D01*
X151145238Y-115084761D01*
X151050000Y-115132380D01*
X150954761Y-115132380D01*
X150859523Y-115084761D01*
X150811904Y-115037142D01*
X150764285Y-114941904D01*
X150716666Y-114751428D01*
X150716666Y-114513333D01*
X150764285Y-114322857D01*
X150811904Y-114227619D01*
X150859523Y-114180000D01*
X150954761Y-114132380D01*
X209782380Y-69466666D02*
X209306190Y-69800000D01*
X209782380Y-70038095D02*
X208782380Y-70038095D01*
X208782380Y-69657142D01*
X208830000Y-69561904D01*
X208877619Y-69514285D01*
X208972857Y-69466666D01*
X209115714Y-69466666D01*
X209210952Y-69514285D01*
X209258571Y-69561904D01*
X209306190Y-69657142D01*
X209306190Y-70038095D01*
X209782380Y-68514285D02*
X209782380Y-69085714D01*
X209782380Y-68800000D02*
X208782380Y-68800000D01*
X208925238Y-68895238D01*
X209020476Y-68990476D01*
X209068095Y-69085714D01*
X212332380Y-69466666D02*
X211856190Y-69800000D01*
X212332380Y-70038095D02*
X211332380Y-70038095D01*
X211332380Y-69657142D01*
X211380000Y-69561904D01*
X211427619Y-69514285D01*
X211522857Y-69466666D01*
X211665714Y-69466666D01*
X211760952Y-69514285D01*
X211808571Y-69561904D01*
X211856190Y-69657142D01*
X211856190Y-70038095D01*
X211427619Y-69085714D02*
X211380000Y-69038095D01*
X211332380Y-68942857D01*
X211332380Y-68704761D01*
X211380000Y-68609523D01*
X211427619Y-68561904D01*
X211522857Y-68514285D01*
X211618095Y-68514285D01*
X211760952Y-68561904D01*
X212332380Y-69133333D01*
X212332380Y-68514285D01*
X197609523Y-117882380D02*
X197609523Y-116882380D01*
X197847619Y-116882380D01*
X197990476Y-116930000D01*
X198085714Y-117025238D01*
X198133333Y-117120476D01*
X198180952Y-117310952D01*
X198180952Y-117453809D01*
X198133333Y-117644285D01*
X198085714Y-117739523D01*
X197990476Y-117834761D01*
X197847619Y-117882380D01*
X197609523Y-117882380D01*
X199133333Y-117882380D02*
X198561904Y-117882380D01*
X198847619Y-117882380D02*
X198847619Y-116882380D01*
X198752380Y-117025238D01*
X198657142Y-117120476D01*
X198561904Y-117168095D01*
X199466666Y-116882380D02*
X200085714Y-116882380D01*
X199752380Y-117263333D01*
X199895238Y-117263333D01*
X199990476Y-117310952D01*
X200038095Y-117358571D01*
X200085714Y-117453809D01*
X200085714Y-117691904D01*
X200038095Y-117787142D01*
X199990476Y-117834761D01*
X199895238Y-117882380D01*
X199609523Y-117882380D01*
X199514285Y-117834761D01*
X199466666Y-117787142D01*
X200942857Y-116882380D02*
X200752380Y-116882380D01*
X200657142Y-116930000D01*
X200609523Y-116977619D01*
X200514285Y-117120476D01*
X200466666Y-117310952D01*
X200466666Y-117691904D01*
X200514285Y-117787142D01*
X200561904Y-117834761D01*
X200657142Y-117882380D01*
X200847619Y-117882380D01*
X200942857Y-117834761D01*
X200990476Y-117787142D01*
X201038095Y-117691904D01*
X201038095Y-117453809D01*
X200990476Y-117358571D01*
X200942857Y-117310952D01*
X200847619Y-117263333D01*
X200657142Y-117263333D01*
X200561904Y-117310952D01*
X200514285Y-117358571D01*
X200466666Y-117453809D01*
X235835714Y-109632380D02*
X235835714Y-108632380D01*
X236073809Y-108632380D01*
X236216666Y-108680000D01*
X236311904Y-108775238D01*
X236359523Y-108870476D01*
X236407142Y-109060952D01*
X236407142Y-109203809D01*
X236359523Y-109394285D01*
X236311904Y-109489523D01*
X236216666Y-109584761D01*
X236073809Y-109632380D01*
X235835714Y-109632380D01*
X237264285Y-108632380D02*
X237073809Y-108632380D01*
X236978571Y-108680000D01*
X236930952Y-108727619D01*
X236835714Y-108870476D01*
X236788095Y-109060952D01*
X236788095Y-109441904D01*
X236835714Y-109537142D01*
X236883333Y-109584761D01*
X236978571Y-109632380D01*
X237169047Y-109632380D01*
X237264285Y-109584761D01*
X237311904Y-109537142D01*
X237359523Y-109441904D01*
X237359523Y-109203809D01*
X237311904Y-109108571D01*
X237264285Y-109060952D01*
X237169047Y-109013333D01*
X236978571Y-109013333D01*
X236883333Y-109060952D01*
X236835714Y-109108571D01*
X236788095Y-109203809D01*
X238311904Y-109632380D02*
X237740476Y-109632380D01*
X238026190Y-109632380D02*
X238026190Y-108632380D01*
X237930952Y-108775238D01*
X237835714Y-108870476D01*
X237740476Y-108918095D01*
X216350714Y-105882380D02*
X216350714Y-104882380D01*
X216588809Y-104882380D01*
X216731666Y-104930000D01*
X216826904Y-105025238D01*
X216874523Y-105120476D01*
X216922142Y-105310952D01*
X216922142Y-105453809D01*
X216874523Y-105644285D01*
X216826904Y-105739523D01*
X216731666Y-105834761D01*
X216588809Y-105882380D01*
X216350714Y-105882380D01*
X217303095Y-104977619D02*
X217350714Y-104930000D01*
X217445952Y-104882380D01*
X217684047Y-104882380D01*
X217779285Y-104930000D01*
X217826904Y-104977619D01*
X217874523Y-105072857D01*
X217874523Y-105168095D01*
X217826904Y-105310952D01*
X217255476Y-105882380D01*
X217874523Y-105882380D01*
X218207857Y-104882380D02*
X218874523Y-104882380D01*
X218445952Y-105882380D01*
X183796904Y-97132380D02*
X183796904Y-96132380D01*
X184035000Y-96132380D01*
X184177857Y-96180000D01*
X184273095Y-96275238D01*
X184320714Y-96370476D01*
X184368333Y-96560952D01*
X184368333Y-96703809D01*
X184320714Y-96894285D01*
X184273095Y-96989523D01*
X184177857Y-97084761D01*
X184035000Y-97132380D01*
X183796904Y-97132380D01*
X184701666Y-96132380D02*
X185368333Y-96132380D01*
X184939761Y-97132380D01*
X224585714Y-110632380D02*
X224585714Y-109632380D01*
X224823809Y-109632380D01*
X224966666Y-109680000D01*
X225061904Y-109775238D01*
X225109523Y-109870476D01*
X225157142Y-110060952D01*
X225157142Y-110203809D01*
X225109523Y-110394285D01*
X225061904Y-110489523D01*
X224966666Y-110584761D01*
X224823809Y-110632380D01*
X224585714Y-110632380D01*
X226061904Y-109632380D02*
X225585714Y-109632380D01*
X225538095Y-110108571D01*
X225585714Y-110060952D01*
X225680952Y-110013333D01*
X225919047Y-110013333D01*
X226014285Y-110060952D01*
X226061904Y-110108571D01*
X226109523Y-110203809D01*
X226109523Y-110441904D01*
X226061904Y-110537142D01*
X226014285Y-110584761D01*
X225919047Y-110632380D01*
X225680952Y-110632380D01*
X225585714Y-110584761D01*
X225538095Y-110537142D01*
X226585714Y-110632380D02*
X226776190Y-110632380D01*
X226871428Y-110584761D01*
X226919047Y-110537142D01*
X227014285Y-110394285D01*
X227061904Y-110203809D01*
X227061904Y-109822857D01*
X227014285Y-109727619D01*
X226966666Y-109680000D01*
X226871428Y-109632380D01*
X226680952Y-109632380D01*
X226585714Y-109680000D01*
X226538095Y-109727619D01*
X226490476Y-109822857D01*
X226490476Y-110060952D01*
X226538095Y-110156190D01*
X226585714Y-110203809D01*
X226680952Y-110251428D01*
X226871428Y-110251428D01*
X226966666Y-110203809D01*
X227014285Y-110156190D01*
X227061904Y-110060952D01*
X196320714Y-99882380D02*
X196320714Y-98882380D01*
X196558809Y-98882380D01*
X196701666Y-98930000D01*
X196796904Y-99025238D01*
X196844523Y-99120476D01*
X196892142Y-99310952D01*
X196892142Y-99453809D01*
X196844523Y-99644285D01*
X196796904Y-99739523D01*
X196701666Y-99834761D01*
X196558809Y-99882380D01*
X196320714Y-99882380D01*
X197225476Y-98882380D02*
X197844523Y-98882380D01*
X197511190Y-99263333D01*
X197654047Y-99263333D01*
X197749285Y-99310952D01*
X197796904Y-99358571D01*
X197844523Y-99453809D01*
X197844523Y-99691904D01*
X197796904Y-99787142D01*
X197749285Y-99834761D01*
X197654047Y-99882380D01*
X197368333Y-99882380D01*
X197273095Y-99834761D01*
X197225476Y-99787142D01*
X198796904Y-99882380D02*
X198225476Y-99882380D01*
X198511190Y-99882380D02*
X198511190Y-98882380D01*
X198415952Y-99025238D01*
X198320714Y-99120476D01*
X198225476Y-99168095D01*
X159159523Y-114282380D02*
X159159523Y-113282380D01*
X159397619Y-113282380D01*
X159540476Y-113330000D01*
X159635714Y-113425238D01*
X159683333Y-113520476D01*
X159730952Y-113710952D01*
X159730952Y-113853809D01*
X159683333Y-114044285D01*
X159635714Y-114139523D01*
X159540476Y-114234761D01*
X159397619Y-114282380D01*
X159159523Y-114282380D01*
X160683333Y-114282380D02*
X160111904Y-114282380D01*
X160397619Y-114282380D02*
X160397619Y-113282380D01*
X160302380Y-113425238D01*
X160207142Y-113520476D01*
X160111904Y-113568095D01*
X161635714Y-114282380D02*
X161064285Y-114282380D01*
X161350000Y-114282380D02*
X161350000Y-113282380D01*
X161254761Y-113425238D01*
X161159523Y-113520476D01*
X161064285Y-113568095D01*
X162492857Y-113282380D02*
X162302380Y-113282380D01*
X162207142Y-113330000D01*
X162159523Y-113377619D01*
X162064285Y-113520476D01*
X162016666Y-113710952D01*
X162016666Y-114091904D01*
X162064285Y-114187142D01*
X162111904Y-114234761D01*
X162207142Y-114282380D01*
X162397619Y-114282380D01*
X162492857Y-114234761D01*
X162540476Y-114187142D01*
X162588095Y-114091904D01*
X162588095Y-113853809D01*
X162540476Y-113758571D01*
X162492857Y-113710952D01*
X162397619Y-113663333D01*
X162207142Y-113663333D01*
X162111904Y-113710952D01*
X162064285Y-113758571D01*
X162016666Y-113853809D01*
X239100714Y-112882380D02*
X239100714Y-111882380D01*
X239338809Y-111882380D01*
X239481666Y-111930000D01*
X239576904Y-112025238D01*
X239624523Y-112120476D01*
X239672142Y-112310952D01*
X239672142Y-112453809D01*
X239624523Y-112644285D01*
X239576904Y-112739523D01*
X239481666Y-112834761D01*
X239338809Y-112882380D01*
X239100714Y-112882380D01*
X240148333Y-112882380D02*
X240338809Y-112882380D01*
X240434047Y-112834761D01*
X240481666Y-112787142D01*
X240576904Y-112644285D01*
X240624523Y-112453809D01*
X240624523Y-112072857D01*
X240576904Y-111977619D01*
X240529285Y-111930000D01*
X240434047Y-111882380D01*
X240243571Y-111882380D01*
X240148333Y-111930000D01*
X240100714Y-111977619D01*
X240053095Y-112072857D01*
X240053095Y-112310952D01*
X240100714Y-112406190D01*
X240148333Y-112453809D01*
X240243571Y-112501428D01*
X240434047Y-112501428D01*
X240529285Y-112453809D01*
X240576904Y-112406190D01*
X240624523Y-112310952D01*
X240957857Y-111882380D02*
X241576904Y-111882380D01*
X241243571Y-112263333D01*
X241386428Y-112263333D01*
X241481666Y-112310952D01*
X241529285Y-112358571D01*
X241576904Y-112453809D01*
X241576904Y-112691904D01*
X241529285Y-112787142D01*
X241481666Y-112834761D01*
X241386428Y-112882380D01*
X241100714Y-112882380D01*
X241005476Y-112834761D01*
X240957857Y-112787142D01*
X214085714Y-104632380D02*
X214085714Y-103632380D01*
X214323809Y-103632380D01*
X214466666Y-103680000D01*
X214561904Y-103775238D01*
X214609523Y-103870476D01*
X214657142Y-104060952D01*
X214657142Y-104203809D01*
X214609523Y-104394285D01*
X214561904Y-104489523D01*
X214466666Y-104584761D01*
X214323809Y-104632380D01*
X214085714Y-104632380D01*
X215609523Y-104632380D02*
X215038095Y-104632380D01*
X215323809Y-104632380D02*
X215323809Y-103632380D01*
X215228571Y-103775238D01*
X215133333Y-103870476D01*
X215038095Y-103918095D01*
X216561904Y-104632380D02*
X215990476Y-104632380D01*
X216276190Y-104632380D02*
X216276190Y-103632380D01*
X216180952Y-103775238D01*
X216085714Y-103870476D01*
X215990476Y-103918095D01*
X200570714Y-101382380D02*
X200570714Y-100382380D01*
X200808809Y-100382380D01*
X200951666Y-100430000D01*
X201046904Y-100525238D01*
X201094523Y-100620476D01*
X201142142Y-100810952D01*
X201142142Y-100953809D01*
X201094523Y-101144285D01*
X201046904Y-101239523D01*
X200951666Y-101334761D01*
X200808809Y-101382380D01*
X200570714Y-101382380D01*
X202094523Y-101382380D02*
X201523095Y-101382380D01*
X201808809Y-101382380D02*
X201808809Y-100382380D01*
X201713571Y-100525238D01*
X201618333Y-100620476D01*
X201523095Y-100668095D01*
X202999285Y-100382380D02*
X202523095Y-100382380D01*
X202475476Y-100858571D01*
X202523095Y-100810952D01*
X202618333Y-100763333D01*
X202856428Y-100763333D01*
X202951666Y-100810952D01*
X202999285Y-100858571D01*
X203046904Y-100953809D01*
X203046904Y-101191904D01*
X202999285Y-101287142D01*
X202951666Y-101334761D01*
X202856428Y-101382380D01*
X202618333Y-101382380D01*
X202523095Y-101334761D01*
X202475476Y-101287142D01*
X222585714Y-101382380D02*
X222585714Y-100382380D01*
X222823809Y-100382380D01*
X222966666Y-100430000D01*
X223061904Y-100525238D01*
X223109523Y-100620476D01*
X223157142Y-100810952D01*
X223157142Y-100953809D01*
X223109523Y-101144285D01*
X223061904Y-101239523D01*
X222966666Y-101334761D01*
X222823809Y-101382380D01*
X222585714Y-101382380D01*
X224109523Y-101382380D02*
X223538095Y-101382380D01*
X223823809Y-101382380D02*
X223823809Y-100382380D01*
X223728571Y-100525238D01*
X223633333Y-100620476D01*
X223538095Y-100668095D01*
X224490476Y-100477619D02*
X224538095Y-100430000D01*
X224633333Y-100382380D01*
X224871428Y-100382380D01*
X224966666Y-100430000D01*
X225014285Y-100477619D01*
X225061904Y-100572857D01*
X225061904Y-100668095D01*
X225014285Y-100810952D01*
X224442857Y-101382380D01*
X225061904Y-101382380D01*
X134085714Y-108472380D02*
X134085714Y-107472380D01*
X134323809Y-107472380D01*
X134466666Y-107520000D01*
X134561904Y-107615238D01*
X134609523Y-107710476D01*
X134657142Y-107900952D01*
X134657142Y-108043809D01*
X134609523Y-108234285D01*
X134561904Y-108329523D01*
X134466666Y-108424761D01*
X134323809Y-108472380D01*
X134085714Y-108472380D01*
X135609523Y-108472380D02*
X135038095Y-108472380D01*
X135323809Y-108472380D02*
X135323809Y-107472380D01*
X135228571Y-107615238D01*
X135133333Y-107710476D01*
X135038095Y-107758095D01*
X135942857Y-107472380D02*
X136609523Y-107472380D01*
X136180952Y-108472380D01*
X183609523Y-120382380D02*
X183609523Y-119382380D01*
X183847619Y-119382380D01*
X183990476Y-119430000D01*
X184085714Y-119525238D01*
X184133333Y-119620476D01*
X184180952Y-119810952D01*
X184180952Y-119953809D01*
X184133333Y-120144285D01*
X184085714Y-120239523D01*
X183990476Y-120334761D01*
X183847619Y-120382380D01*
X183609523Y-120382380D01*
X185133333Y-120382380D02*
X184561904Y-120382380D01*
X184847619Y-120382380D02*
X184847619Y-119382380D01*
X184752380Y-119525238D01*
X184657142Y-119620476D01*
X184561904Y-119668095D01*
X185752380Y-119382380D02*
X185847619Y-119382380D01*
X185942857Y-119430000D01*
X185990476Y-119477619D01*
X186038095Y-119572857D01*
X186085714Y-119763333D01*
X186085714Y-120001428D01*
X186038095Y-120191904D01*
X185990476Y-120287142D01*
X185942857Y-120334761D01*
X185847619Y-120382380D01*
X185752380Y-120382380D01*
X185657142Y-120334761D01*
X185609523Y-120287142D01*
X185561904Y-120191904D01*
X185514285Y-120001428D01*
X185514285Y-119763333D01*
X185561904Y-119572857D01*
X185609523Y-119477619D01*
X185657142Y-119430000D01*
X185752380Y-119382380D01*
X186466666Y-119477619D02*
X186514285Y-119430000D01*
X186609523Y-119382380D01*
X186847619Y-119382380D01*
X186942857Y-119430000D01*
X186990476Y-119477619D01*
X187038095Y-119572857D01*
X187038095Y-119668095D01*
X186990476Y-119810952D01*
X186419047Y-120382380D01*
X187038095Y-120382380D01*
X142835714Y-107882380D02*
X142835714Y-106882380D01*
X143073809Y-106882380D01*
X143216666Y-106930000D01*
X143311904Y-107025238D01*
X143359523Y-107120476D01*
X143407142Y-107310952D01*
X143407142Y-107453809D01*
X143359523Y-107644285D01*
X143311904Y-107739523D01*
X143216666Y-107834761D01*
X143073809Y-107882380D01*
X142835714Y-107882380D01*
X143740476Y-106882380D02*
X144359523Y-106882380D01*
X144026190Y-107263333D01*
X144169047Y-107263333D01*
X144264285Y-107310952D01*
X144311904Y-107358571D01*
X144359523Y-107453809D01*
X144359523Y-107691904D01*
X144311904Y-107787142D01*
X144264285Y-107834761D01*
X144169047Y-107882380D01*
X143883333Y-107882380D01*
X143788095Y-107834761D01*
X143740476Y-107787142D01*
X145216666Y-107215714D02*
X145216666Y-107882380D01*
X144978571Y-106834761D02*
X144740476Y-107549047D01*
X145359523Y-107549047D01*
X198109523Y-115882380D02*
X198109523Y-114882380D01*
X198347619Y-114882380D01*
X198490476Y-114930000D01*
X198585714Y-115025238D01*
X198633333Y-115120476D01*
X198680952Y-115310952D01*
X198680952Y-115453809D01*
X198633333Y-115644285D01*
X198585714Y-115739523D01*
X198490476Y-115834761D01*
X198347619Y-115882380D01*
X198109523Y-115882380D01*
X199633333Y-115882380D02*
X199061904Y-115882380D01*
X199347619Y-115882380D02*
X199347619Y-114882380D01*
X199252380Y-115025238D01*
X199157142Y-115120476D01*
X199061904Y-115168095D01*
X199966666Y-114882380D02*
X200585714Y-114882380D01*
X200252380Y-115263333D01*
X200395238Y-115263333D01*
X200490476Y-115310952D01*
X200538095Y-115358571D01*
X200585714Y-115453809D01*
X200585714Y-115691904D01*
X200538095Y-115787142D01*
X200490476Y-115834761D01*
X200395238Y-115882380D01*
X200109523Y-115882380D01*
X200014285Y-115834761D01*
X199966666Y-115787142D01*
X200919047Y-114882380D02*
X201585714Y-114882380D01*
X201157142Y-115882380D01*
X184124523Y-117882380D02*
X184124523Y-116882380D01*
X184362619Y-116882380D01*
X184505476Y-116930000D01*
X184600714Y-117025238D01*
X184648333Y-117120476D01*
X184695952Y-117310952D01*
X184695952Y-117453809D01*
X184648333Y-117644285D01*
X184600714Y-117739523D01*
X184505476Y-117834761D01*
X184362619Y-117882380D01*
X184124523Y-117882380D01*
X185648333Y-117882380D02*
X185076904Y-117882380D01*
X185362619Y-117882380D02*
X185362619Y-116882380D01*
X185267380Y-117025238D01*
X185172142Y-117120476D01*
X185076904Y-117168095D01*
X185981666Y-116882380D02*
X186600714Y-116882380D01*
X186267380Y-117263333D01*
X186410238Y-117263333D01*
X186505476Y-117310952D01*
X186553095Y-117358571D01*
X186600714Y-117453809D01*
X186600714Y-117691904D01*
X186553095Y-117787142D01*
X186505476Y-117834761D01*
X186410238Y-117882380D01*
X186124523Y-117882380D01*
X186029285Y-117834761D01*
X185981666Y-117787142D01*
X187505476Y-116882380D02*
X187029285Y-116882380D01*
X186981666Y-117358571D01*
X187029285Y-117310952D01*
X187124523Y-117263333D01*
X187362619Y-117263333D01*
X187457857Y-117310952D01*
X187505476Y-117358571D01*
X187553095Y-117453809D01*
X187553095Y-117691904D01*
X187505476Y-117787142D01*
X187457857Y-117834761D01*
X187362619Y-117882380D01*
X187124523Y-117882380D01*
X187029285Y-117834761D01*
X186981666Y-117787142D01*
X188500714Y-79932380D02*
X188500714Y-78932380D01*
X188738809Y-78932380D01*
X188881666Y-78980000D01*
X188976904Y-79075238D01*
X189024523Y-79170476D01*
X189072142Y-79360952D01*
X189072142Y-79503809D01*
X189024523Y-79694285D01*
X188976904Y-79789523D01*
X188881666Y-79884761D01*
X188738809Y-79932380D01*
X188500714Y-79932380D01*
X190024523Y-79932380D02*
X189453095Y-79932380D01*
X189738809Y-79932380D02*
X189738809Y-78932380D01*
X189643571Y-79075238D01*
X189548333Y-79170476D01*
X189453095Y-79218095D01*
X190881666Y-78932380D02*
X190691190Y-78932380D01*
X190595952Y-78980000D01*
X190548333Y-79027619D01*
X190453095Y-79170476D01*
X190405476Y-79360952D01*
X190405476Y-79741904D01*
X190453095Y-79837142D01*
X190500714Y-79884761D01*
X190595952Y-79932380D01*
X190786428Y-79932380D01*
X190881666Y-79884761D01*
X190929285Y-79837142D01*
X190976904Y-79741904D01*
X190976904Y-79503809D01*
X190929285Y-79408571D01*
X190881666Y-79360952D01*
X190786428Y-79313333D01*
X190595952Y-79313333D01*
X190500714Y-79360952D01*
X190453095Y-79408571D01*
X190405476Y-79503809D01*
X179335714Y-89382380D02*
X179335714Y-88382380D01*
X179573809Y-88382380D01*
X179716666Y-88430000D01*
X179811904Y-88525238D01*
X179859523Y-88620476D01*
X179907142Y-88810952D01*
X179907142Y-88953809D01*
X179859523Y-89144285D01*
X179811904Y-89239523D01*
X179716666Y-89334761D01*
X179573809Y-89382380D01*
X179335714Y-89382380D01*
X180383333Y-89382380D02*
X180573809Y-89382380D01*
X180669047Y-89334761D01*
X180716666Y-89287142D01*
X180811904Y-89144285D01*
X180859523Y-88953809D01*
X180859523Y-88572857D01*
X180811904Y-88477619D01*
X180764285Y-88430000D01*
X180669047Y-88382380D01*
X180478571Y-88382380D01*
X180383333Y-88430000D01*
X180335714Y-88477619D01*
X180288095Y-88572857D01*
X180288095Y-88810952D01*
X180335714Y-88906190D01*
X180383333Y-88953809D01*
X180478571Y-89001428D01*
X180669047Y-89001428D01*
X180764285Y-88953809D01*
X180811904Y-88906190D01*
X180859523Y-88810952D01*
X181764285Y-88382380D02*
X181288095Y-88382380D01*
X181240476Y-88858571D01*
X181288095Y-88810952D01*
X181383333Y-88763333D01*
X181621428Y-88763333D01*
X181716666Y-88810952D01*
X181764285Y-88858571D01*
X181811904Y-88953809D01*
X181811904Y-89191904D01*
X181764285Y-89287142D01*
X181716666Y-89334761D01*
X181621428Y-89382380D01*
X181383333Y-89382380D01*
X181288095Y-89334761D01*
X181240476Y-89287142D01*
X192561904Y-106382380D02*
X192561904Y-105382380D01*
X192800000Y-105382380D01*
X192942857Y-105430000D01*
X193038095Y-105525238D01*
X193085714Y-105620476D01*
X193133333Y-105810952D01*
X193133333Y-105953809D01*
X193085714Y-106144285D01*
X193038095Y-106239523D01*
X192942857Y-106334761D01*
X192800000Y-106382380D01*
X192561904Y-106382380D01*
X193609523Y-106382380D02*
X193800000Y-106382380D01*
X193895238Y-106334761D01*
X193942857Y-106287142D01*
X194038095Y-106144285D01*
X194085714Y-105953809D01*
X194085714Y-105572857D01*
X194038095Y-105477619D01*
X193990476Y-105430000D01*
X193895238Y-105382380D01*
X193704761Y-105382380D01*
X193609523Y-105430000D01*
X193561904Y-105477619D01*
X193514285Y-105572857D01*
X193514285Y-105810952D01*
X193561904Y-105906190D01*
X193609523Y-105953809D01*
X193704761Y-106001428D01*
X193895238Y-106001428D01*
X193990476Y-105953809D01*
X194038095Y-105906190D01*
X194085714Y-105810952D01*
X125809523Y-69032380D02*
X125809523Y-68032380D01*
X126047619Y-68032380D01*
X126190476Y-68080000D01*
X126285714Y-68175238D01*
X126333333Y-68270476D01*
X126380952Y-68460952D01*
X126380952Y-68603809D01*
X126333333Y-68794285D01*
X126285714Y-68889523D01*
X126190476Y-68984761D01*
X126047619Y-69032380D01*
X125809523Y-69032380D01*
X127333333Y-69032380D02*
X126761904Y-69032380D01*
X127047619Y-69032380D02*
X127047619Y-68032380D01*
X126952380Y-68175238D01*
X126857142Y-68270476D01*
X126761904Y-68318095D01*
X127714285Y-68127619D02*
X127761904Y-68080000D01*
X127857142Y-68032380D01*
X128095238Y-68032380D01*
X128190476Y-68080000D01*
X128238095Y-68127619D01*
X128285714Y-68222857D01*
X128285714Y-68318095D01*
X128238095Y-68460952D01*
X127666666Y-69032380D01*
X128285714Y-69032380D01*
X128857142Y-68460952D02*
X128761904Y-68413333D01*
X128714285Y-68365714D01*
X128666666Y-68270476D01*
X128666666Y-68222857D01*
X128714285Y-68127619D01*
X128761904Y-68080000D01*
X128857142Y-68032380D01*
X129047619Y-68032380D01*
X129142857Y-68080000D01*
X129190476Y-68127619D01*
X129238095Y-68222857D01*
X129238095Y-68270476D01*
X129190476Y-68365714D01*
X129142857Y-68413333D01*
X129047619Y-68460952D01*
X128857142Y-68460952D01*
X128761904Y-68508571D01*
X128714285Y-68556190D01*
X128666666Y-68651428D01*
X128666666Y-68841904D01*
X128714285Y-68937142D01*
X128761904Y-68984761D01*
X128857142Y-69032380D01*
X129047619Y-69032380D01*
X129142857Y-68984761D01*
X129190476Y-68937142D01*
X129238095Y-68841904D01*
X129238095Y-68651428D01*
X129190476Y-68556190D01*
X129142857Y-68508571D01*
X129047619Y-68460952D01*
X199320714Y-108382380D02*
X199320714Y-107382380D01*
X199558809Y-107382380D01*
X199701666Y-107430000D01*
X199796904Y-107525238D01*
X199844523Y-107620476D01*
X199892142Y-107810952D01*
X199892142Y-107953809D01*
X199844523Y-108144285D01*
X199796904Y-108239523D01*
X199701666Y-108334761D01*
X199558809Y-108382380D01*
X199320714Y-108382380D01*
X200463571Y-107810952D02*
X200368333Y-107763333D01*
X200320714Y-107715714D01*
X200273095Y-107620476D01*
X200273095Y-107572857D01*
X200320714Y-107477619D01*
X200368333Y-107430000D01*
X200463571Y-107382380D01*
X200654047Y-107382380D01*
X200749285Y-107430000D01*
X200796904Y-107477619D01*
X200844523Y-107572857D01*
X200844523Y-107620476D01*
X200796904Y-107715714D01*
X200749285Y-107763333D01*
X200654047Y-107810952D01*
X200463571Y-107810952D01*
X200368333Y-107858571D01*
X200320714Y-107906190D01*
X200273095Y-108001428D01*
X200273095Y-108191904D01*
X200320714Y-108287142D01*
X200368333Y-108334761D01*
X200463571Y-108382380D01*
X200654047Y-108382380D01*
X200749285Y-108334761D01*
X200796904Y-108287142D01*
X200844523Y-108191904D01*
X200844523Y-108001428D01*
X200796904Y-107906190D01*
X200749285Y-107858571D01*
X200654047Y-107810952D01*
X201320714Y-108382380D02*
X201511190Y-108382380D01*
X201606428Y-108334761D01*
X201654047Y-108287142D01*
X201749285Y-108144285D01*
X201796904Y-107953809D01*
X201796904Y-107572857D01*
X201749285Y-107477619D01*
X201701666Y-107430000D01*
X201606428Y-107382380D01*
X201415952Y-107382380D01*
X201320714Y-107430000D01*
X201273095Y-107477619D01*
X201225476Y-107572857D01*
X201225476Y-107810952D01*
X201273095Y-107906190D01*
X201320714Y-107953809D01*
X201415952Y-108001428D01*
X201606428Y-108001428D01*
X201701666Y-107953809D01*
X201749285Y-107906190D01*
X201796904Y-107810952D01*
X234109523Y-112132380D02*
X234109523Y-111132380D01*
X234347619Y-111132380D01*
X234490476Y-111180000D01*
X234585714Y-111275238D01*
X234633333Y-111370476D01*
X234680952Y-111560952D01*
X234680952Y-111703809D01*
X234633333Y-111894285D01*
X234585714Y-111989523D01*
X234490476Y-112084761D01*
X234347619Y-112132380D01*
X234109523Y-112132380D01*
X235633333Y-112132380D02*
X235061904Y-112132380D01*
X235347619Y-112132380D02*
X235347619Y-111132380D01*
X235252380Y-111275238D01*
X235157142Y-111370476D01*
X235061904Y-111418095D01*
X236490476Y-111465714D02*
X236490476Y-112132380D01*
X236252380Y-111084761D02*
X236014285Y-111799047D01*
X236633333Y-111799047D01*
X237204761Y-111132380D02*
X237300000Y-111132380D01*
X237395238Y-111180000D01*
X237442857Y-111227619D01*
X237490476Y-111322857D01*
X237538095Y-111513333D01*
X237538095Y-111751428D01*
X237490476Y-111941904D01*
X237442857Y-112037142D01*
X237395238Y-112084761D01*
X237300000Y-112132380D01*
X237204761Y-112132380D01*
X237109523Y-112084761D01*
X237061904Y-112037142D01*
X237014285Y-111941904D01*
X236966666Y-111751428D01*
X236966666Y-111513333D01*
X237014285Y-111322857D01*
X237061904Y-111227619D01*
X237109523Y-111180000D01*
X237204761Y-111132380D01*
X172844523Y-97382380D02*
X172844523Y-96382380D01*
X173082619Y-96382380D01*
X173225476Y-96430000D01*
X173320714Y-96525238D01*
X173368333Y-96620476D01*
X173415952Y-96810952D01*
X173415952Y-96953809D01*
X173368333Y-97144285D01*
X173320714Y-97239523D01*
X173225476Y-97334761D01*
X173082619Y-97382380D01*
X172844523Y-97382380D01*
X174368333Y-97382380D02*
X173796904Y-97382380D01*
X174082619Y-97382380D02*
X174082619Y-96382380D01*
X173987380Y-96525238D01*
X173892142Y-96620476D01*
X173796904Y-96668095D01*
X174749285Y-96477619D02*
X174796904Y-96430000D01*
X174892142Y-96382380D01*
X175130238Y-96382380D01*
X175225476Y-96430000D01*
X175273095Y-96477619D01*
X175320714Y-96572857D01*
X175320714Y-96668095D01*
X175273095Y-96810952D01*
X174701666Y-97382380D01*
X175320714Y-97382380D01*
X175654047Y-96382380D02*
X176320714Y-96382380D01*
X175892142Y-97382380D01*
X241835714Y-81882380D02*
X241835714Y-80882380D01*
X242073809Y-80882380D01*
X242216666Y-80930000D01*
X242311904Y-81025238D01*
X242359523Y-81120476D01*
X242407142Y-81310952D01*
X242407142Y-81453809D01*
X242359523Y-81644285D01*
X242311904Y-81739523D01*
X242216666Y-81834761D01*
X242073809Y-81882380D01*
X241835714Y-81882380D01*
X242740476Y-80882380D02*
X243407142Y-80882380D01*
X242978571Y-81882380D01*
X243930952Y-81310952D02*
X243835714Y-81263333D01*
X243788095Y-81215714D01*
X243740476Y-81120476D01*
X243740476Y-81072857D01*
X243788095Y-80977619D01*
X243835714Y-80930000D01*
X243930952Y-80882380D01*
X244121428Y-80882380D01*
X244216666Y-80930000D01*
X244264285Y-80977619D01*
X244311904Y-81072857D01*
X244311904Y-81120476D01*
X244264285Y-81215714D01*
X244216666Y-81263333D01*
X244121428Y-81310952D01*
X243930952Y-81310952D01*
X243835714Y-81358571D01*
X243788095Y-81406190D01*
X243740476Y-81501428D01*
X243740476Y-81691904D01*
X243788095Y-81787142D01*
X243835714Y-81834761D01*
X243930952Y-81882380D01*
X244121428Y-81882380D01*
X244216666Y-81834761D01*
X244264285Y-81787142D01*
X244311904Y-81691904D01*
X244311904Y-81501428D01*
X244264285Y-81406190D01*
X244216666Y-81358571D01*
X244121428Y-81310952D01*
X207344523Y-120882380D02*
X207344523Y-119882380D01*
X207582619Y-119882380D01*
X207725476Y-119930000D01*
X207820714Y-120025238D01*
X207868333Y-120120476D01*
X207915952Y-120310952D01*
X207915952Y-120453809D01*
X207868333Y-120644285D01*
X207820714Y-120739523D01*
X207725476Y-120834761D01*
X207582619Y-120882380D01*
X207344523Y-120882380D01*
X208868333Y-120882380D02*
X208296904Y-120882380D01*
X208582619Y-120882380D02*
X208582619Y-119882380D01*
X208487380Y-120025238D01*
X208392142Y-120120476D01*
X208296904Y-120168095D01*
X209201666Y-119882380D02*
X209820714Y-119882380D01*
X209487380Y-120263333D01*
X209630238Y-120263333D01*
X209725476Y-120310952D01*
X209773095Y-120358571D01*
X209820714Y-120453809D01*
X209820714Y-120691904D01*
X209773095Y-120787142D01*
X209725476Y-120834761D01*
X209630238Y-120882380D01*
X209344523Y-120882380D01*
X209249285Y-120834761D01*
X209201666Y-120787142D01*
X210392142Y-120310952D02*
X210296904Y-120263333D01*
X210249285Y-120215714D01*
X210201666Y-120120476D01*
X210201666Y-120072857D01*
X210249285Y-119977619D01*
X210296904Y-119930000D01*
X210392142Y-119882380D01*
X210582619Y-119882380D01*
X210677857Y-119930000D01*
X210725476Y-119977619D01*
X210773095Y-120072857D01*
X210773095Y-120120476D01*
X210725476Y-120215714D01*
X210677857Y-120263333D01*
X210582619Y-120310952D01*
X210392142Y-120310952D01*
X210296904Y-120358571D01*
X210249285Y-120406190D01*
X210201666Y-120501428D01*
X210201666Y-120691904D01*
X210249285Y-120787142D01*
X210296904Y-120834761D01*
X210392142Y-120882380D01*
X210582619Y-120882380D01*
X210677857Y-120834761D01*
X210725476Y-120787142D01*
X210773095Y-120691904D01*
X210773095Y-120501428D01*
X210725476Y-120406190D01*
X210677857Y-120358571D01*
X210582619Y-120310952D01*
X184100714Y-107382380D02*
X184100714Y-106382380D01*
X184338809Y-106382380D01*
X184481666Y-106430000D01*
X184576904Y-106525238D01*
X184624523Y-106620476D01*
X184672142Y-106810952D01*
X184672142Y-106953809D01*
X184624523Y-107144285D01*
X184576904Y-107239523D01*
X184481666Y-107334761D01*
X184338809Y-107382380D01*
X184100714Y-107382380D01*
X185053095Y-106477619D02*
X185100714Y-106430000D01*
X185195952Y-106382380D01*
X185434047Y-106382380D01*
X185529285Y-106430000D01*
X185576904Y-106477619D01*
X185624523Y-106572857D01*
X185624523Y-106668095D01*
X185576904Y-106810952D01*
X185005476Y-107382380D01*
X185624523Y-107382380D01*
X186481666Y-106715714D02*
X186481666Y-107382380D01*
X186243571Y-106334761D02*
X186005476Y-107049047D01*
X186624523Y-107049047D01*
X229859523Y-82382380D02*
X229859523Y-81382380D01*
X230097619Y-81382380D01*
X230240476Y-81430000D01*
X230335714Y-81525238D01*
X230383333Y-81620476D01*
X230430952Y-81810952D01*
X230430952Y-81953809D01*
X230383333Y-82144285D01*
X230335714Y-82239523D01*
X230240476Y-82334761D01*
X230097619Y-82382380D01*
X229859523Y-82382380D01*
X231383333Y-82382380D02*
X230811904Y-82382380D01*
X231097619Y-82382380D02*
X231097619Y-81382380D01*
X231002380Y-81525238D01*
X230907142Y-81620476D01*
X230811904Y-81668095D01*
X232335714Y-82382380D02*
X231764285Y-82382380D01*
X232050000Y-82382380D02*
X232050000Y-81382380D01*
X231954761Y-81525238D01*
X231859523Y-81620476D01*
X231764285Y-81668095D01*
X232954761Y-81382380D02*
X233050000Y-81382380D01*
X233145238Y-81430000D01*
X233192857Y-81477619D01*
X233240476Y-81572857D01*
X233288095Y-81763333D01*
X233288095Y-82001428D01*
X233240476Y-82191904D01*
X233192857Y-82287142D01*
X233145238Y-82334761D01*
X233050000Y-82382380D01*
X232954761Y-82382380D01*
X232859523Y-82334761D01*
X232811904Y-82287142D01*
X232764285Y-82191904D01*
X232716666Y-82001428D01*
X232716666Y-81763333D01*
X232764285Y-81572857D01*
X232811904Y-81477619D01*
X232859523Y-81430000D01*
X232954761Y-81382380D01*
X145859523Y-114882380D02*
X145859523Y-113882380D01*
X146097619Y-113882380D01*
X146240476Y-113930000D01*
X146335714Y-114025238D01*
X146383333Y-114120476D01*
X146430952Y-114310952D01*
X146430952Y-114453809D01*
X146383333Y-114644285D01*
X146335714Y-114739523D01*
X146240476Y-114834761D01*
X146097619Y-114882380D01*
X145859523Y-114882380D01*
X147383333Y-114882380D02*
X146811904Y-114882380D01*
X147097619Y-114882380D02*
X147097619Y-113882380D01*
X147002380Y-114025238D01*
X146907142Y-114120476D01*
X146811904Y-114168095D01*
X148335714Y-114882380D02*
X147764285Y-114882380D01*
X148050000Y-114882380D02*
X148050000Y-113882380D01*
X147954761Y-114025238D01*
X147859523Y-114120476D01*
X147764285Y-114168095D01*
X149192857Y-114215714D02*
X149192857Y-114882380D01*
X148954761Y-113834761D02*
X148716666Y-114549047D01*
X149335714Y-114549047D01*
X161585714Y-111872380D02*
X161585714Y-110872380D01*
X161823809Y-110872380D01*
X161966666Y-110920000D01*
X162061904Y-111015238D01*
X162109523Y-111110476D01*
X162157142Y-111300952D01*
X162157142Y-111443809D01*
X162109523Y-111634285D01*
X162061904Y-111729523D01*
X161966666Y-111824761D01*
X161823809Y-111872380D01*
X161585714Y-111872380D01*
X163014285Y-110872380D02*
X162823809Y-110872380D01*
X162728571Y-110920000D01*
X162680952Y-110967619D01*
X162585714Y-111110476D01*
X162538095Y-111300952D01*
X162538095Y-111681904D01*
X162585714Y-111777142D01*
X162633333Y-111824761D01*
X162728571Y-111872380D01*
X162919047Y-111872380D01*
X163014285Y-111824761D01*
X163061904Y-111777142D01*
X163109523Y-111681904D01*
X163109523Y-111443809D01*
X163061904Y-111348571D01*
X163014285Y-111300952D01*
X162919047Y-111253333D01*
X162728571Y-111253333D01*
X162633333Y-111300952D01*
X162585714Y-111348571D01*
X162538095Y-111443809D01*
X163680952Y-111300952D02*
X163585714Y-111253333D01*
X163538095Y-111205714D01*
X163490476Y-111110476D01*
X163490476Y-111062857D01*
X163538095Y-110967619D01*
X163585714Y-110920000D01*
X163680952Y-110872380D01*
X163871428Y-110872380D01*
X163966666Y-110920000D01*
X164014285Y-110967619D01*
X164061904Y-111062857D01*
X164061904Y-111110476D01*
X164014285Y-111205714D01*
X163966666Y-111253333D01*
X163871428Y-111300952D01*
X163680952Y-111300952D01*
X163585714Y-111348571D01*
X163538095Y-111396190D01*
X163490476Y-111491428D01*
X163490476Y-111681904D01*
X163538095Y-111777142D01*
X163585714Y-111824761D01*
X163680952Y-111872380D01*
X163871428Y-111872380D01*
X163966666Y-111824761D01*
X164014285Y-111777142D01*
X164061904Y-111681904D01*
X164061904Y-111491428D01*
X164014285Y-111396190D01*
X163966666Y-111348571D01*
X163871428Y-111300952D01*
X133585714Y-116222380D02*
X133585714Y-115222380D01*
X133823809Y-115222380D01*
X133966666Y-115270000D01*
X134061904Y-115365238D01*
X134109523Y-115460476D01*
X134157142Y-115650952D01*
X134157142Y-115793809D01*
X134109523Y-115984285D01*
X134061904Y-116079523D01*
X133966666Y-116174761D01*
X133823809Y-116222380D01*
X133585714Y-116222380D01*
X134633333Y-116222380D02*
X134823809Y-116222380D01*
X134919047Y-116174761D01*
X134966666Y-116127142D01*
X135061904Y-115984285D01*
X135109523Y-115793809D01*
X135109523Y-115412857D01*
X135061904Y-115317619D01*
X135014285Y-115270000D01*
X134919047Y-115222380D01*
X134728571Y-115222380D01*
X134633333Y-115270000D01*
X134585714Y-115317619D01*
X134538095Y-115412857D01*
X134538095Y-115650952D01*
X134585714Y-115746190D01*
X134633333Y-115793809D01*
X134728571Y-115841428D01*
X134919047Y-115841428D01*
X135014285Y-115793809D01*
X135061904Y-115746190D01*
X135109523Y-115650952D01*
X135442857Y-115222380D02*
X136109523Y-115222380D01*
X135680952Y-116222380D01*
X220859523Y-117882380D02*
X220859523Y-116882380D01*
X221097619Y-116882380D01*
X221240476Y-116930000D01*
X221335714Y-117025238D01*
X221383333Y-117120476D01*
X221430952Y-117310952D01*
X221430952Y-117453809D01*
X221383333Y-117644285D01*
X221335714Y-117739523D01*
X221240476Y-117834761D01*
X221097619Y-117882380D01*
X220859523Y-117882380D01*
X222383333Y-117882380D02*
X221811904Y-117882380D01*
X222097619Y-117882380D02*
X222097619Y-116882380D01*
X222002380Y-117025238D01*
X221907142Y-117120476D01*
X221811904Y-117168095D01*
X222716666Y-116882380D02*
X223335714Y-116882380D01*
X223002380Y-117263333D01*
X223145238Y-117263333D01*
X223240476Y-117310952D01*
X223288095Y-117358571D01*
X223335714Y-117453809D01*
X223335714Y-117691904D01*
X223288095Y-117787142D01*
X223240476Y-117834761D01*
X223145238Y-117882380D01*
X222859523Y-117882380D01*
X222764285Y-117834761D01*
X222716666Y-117787142D01*
X223811904Y-117882380D02*
X224002380Y-117882380D01*
X224097619Y-117834761D01*
X224145238Y-117787142D01*
X224240476Y-117644285D01*
X224288095Y-117453809D01*
X224288095Y-117072857D01*
X224240476Y-116977619D01*
X224192857Y-116930000D01*
X224097619Y-116882380D01*
X223907142Y-116882380D01*
X223811904Y-116930000D01*
X223764285Y-116977619D01*
X223716666Y-117072857D01*
X223716666Y-117310952D01*
X223764285Y-117406190D01*
X223811904Y-117453809D01*
X223907142Y-117501428D01*
X224097619Y-117501428D01*
X224192857Y-117453809D01*
X224240476Y-117406190D01*
X224288095Y-117310952D01*
X230109523Y-110882380D02*
X230109523Y-109882380D01*
X230347619Y-109882380D01*
X230490476Y-109930000D01*
X230585714Y-110025238D01*
X230633333Y-110120476D01*
X230680952Y-110310952D01*
X230680952Y-110453809D01*
X230633333Y-110644285D01*
X230585714Y-110739523D01*
X230490476Y-110834761D01*
X230347619Y-110882380D01*
X230109523Y-110882380D01*
X231633333Y-110882380D02*
X231061904Y-110882380D01*
X231347619Y-110882380D02*
X231347619Y-109882380D01*
X231252380Y-110025238D01*
X231157142Y-110120476D01*
X231061904Y-110168095D01*
X232014285Y-109977619D02*
X232061904Y-109930000D01*
X232157142Y-109882380D01*
X232395238Y-109882380D01*
X232490476Y-109930000D01*
X232538095Y-109977619D01*
X232585714Y-110072857D01*
X232585714Y-110168095D01*
X232538095Y-110310952D01*
X231966666Y-110882380D01*
X232585714Y-110882380D01*
X233442857Y-110215714D02*
X233442857Y-110882380D01*
X233204761Y-109834761D02*
X232966666Y-110549047D01*
X233585714Y-110549047D01*
X181585714Y-85132380D02*
X181585714Y-84132380D01*
X181823809Y-84132380D01*
X181966666Y-84180000D01*
X182061904Y-84275238D01*
X182109523Y-84370476D01*
X182157142Y-84560952D01*
X182157142Y-84703809D01*
X182109523Y-84894285D01*
X182061904Y-84989523D01*
X181966666Y-85084761D01*
X181823809Y-85132380D01*
X181585714Y-85132380D01*
X182490476Y-84132380D02*
X183109523Y-84132380D01*
X182776190Y-84513333D01*
X182919047Y-84513333D01*
X183014285Y-84560952D01*
X183061904Y-84608571D01*
X183109523Y-84703809D01*
X183109523Y-84941904D01*
X183061904Y-85037142D01*
X183014285Y-85084761D01*
X182919047Y-85132380D01*
X182633333Y-85132380D01*
X182538095Y-85084761D01*
X182490476Y-85037142D01*
X183490476Y-84227619D02*
X183538095Y-84180000D01*
X183633333Y-84132380D01*
X183871428Y-84132380D01*
X183966666Y-84180000D01*
X184014285Y-84227619D01*
X184061904Y-84322857D01*
X184061904Y-84418095D01*
X184014285Y-84560952D01*
X183442857Y-85132380D01*
X184061904Y-85132380D01*
X161233333Y-78617142D02*
X161185714Y-78664761D01*
X161042857Y-78712380D01*
X160947619Y-78712380D01*
X160804761Y-78664761D01*
X160709523Y-78569523D01*
X160661904Y-78474285D01*
X160614285Y-78283809D01*
X160614285Y-78140952D01*
X160661904Y-77950476D01*
X160709523Y-77855238D01*
X160804761Y-77760000D01*
X160947619Y-77712380D01*
X161042857Y-77712380D01*
X161185714Y-77760000D01*
X161233333Y-77807619D01*
X161614285Y-77807619D02*
X161661904Y-77760000D01*
X161757142Y-77712380D01*
X161995238Y-77712380D01*
X162090476Y-77760000D01*
X162138095Y-77807619D01*
X162185714Y-77902857D01*
X162185714Y-77998095D01*
X162138095Y-78140952D01*
X161566666Y-78712380D01*
X162185714Y-78712380D01*
X186359523Y-112632380D02*
X186359523Y-111632380D01*
X186597619Y-111632380D01*
X186740476Y-111680000D01*
X186835714Y-111775238D01*
X186883333Y-111870476D01*
X186930952Y-112060952D01*
X186930952Y-112203809D01*
X186883333Y-112394285D01*
X186835714Y-112489523D01*
X186740476Y-112584761D01*
X186597619Y-112632380D01*
X186359523Y-112632380D01*
X187883333Y-112632380D02*
X187311904Y-112632380D01*
X187597619Y-112632380D02*
X187597619Y-111632380D01*
X187502380Y-111775238D01*
X187407142Y-111870476D01*
X187311904Y-111918095D01*
X188264285Y-111727619D02*
X188311904Y-111680000D01*
X188407142Y-111632380D01*
X188645238Y-111632380D01*
X188740476Y-111680000D01*
X188788095Y-111727619D01*
X188835714Y-111822857D01*
X188835714Y-111918095D01*
X188788095Y-112060952D01*
X188216666Y-112632380D01*
X188835714Y-112632380D01*
X189454761Y-111632380D02*
X189550000Y-111632380D01*
X189645238Y-111680000D01*
X189692857Y-111727619D01*
X189740476Y-111822857D01*
X189788095Y-112013333D01*
X189788095Y-112251428D01*
X189740476Y-112441904D01*
X189692857Y-112537142D01*
X189645238Y-112584761D01*
X189550000Y-112632380D01*
X189454761Y-112632380D01*
X189359523Y-112584761D01*
X189311904Y-112537142D01*
X189264285Y-112441904D01*
X189216666Y-112251428D01*
X189216666Y-112013333D01*
X189264285Y-111822857D01*
X189311904Y-111727619D01*
X189359523Y-111680000D01*
X189454761Y-111632380D01*
X209085714Y-105382380D02*
X209085714Y-104382380D01*
X209323809Y-104382380D01*
X209466666Y-104430000D01*
X209561904Y-104525238D01*
X209609523Y-104620476D01*
X209657142Y-104810952D01*
X209657142Y-104953809D01*
X209609523Y-105144285D01*
X209561904Y-105239523D01*
X209466666Y-105334761D01*
X209323809Y-105382380D01*
X209085714Y-105382380D01*
X210514285Y-104715714D02*
X210514285Y-105382380D01*
X210276190Y-104334761D02*
X210038095Y-105049047D01*
X210657142Y-105049047D01*
X210990476Y-104477619D02*
X211038095Y-104430000D01*
X211133333Y-104382380D01*
X211371428Y-104382380D01*
X211466666Y-104430000D01*
X211514285Y-104477619D01*
X211561904Y-104572857D01*
X211561904Y-104668095D01*
X211514285Y-104810952D01*
X210942857Y-105382380D01*
X211561904Y-105382380D01*
X130059523Y-88922380D02*
X130059523Y-87922380D01*
X130297619Y-87922380D01*
X130440476Y-87970000D01*
X130535714Y-88065238D01*
X130583333Y-88160476D01*
X130630952Y-88350952D01*
X130630952Y-88493809D01*
X130583333Y-88684285D01*
X130535714Y-88779523D01*
X130440476Y-88874761D01*
X130297619Y-88922380D01*
X130059523Y-88922380D01*
X131583333Y-88922380D02*
X131011904Y-88922380D01*
X131297619Y-88922380D02*
X131297619Y-87922380D01*
X131202380Y-88065238D01*
X131107142Y-88160476D01*
X131011904Y-88208095D01*
X132535714Y-88922380D02*
X131964285Y-88922380D01*
X132250000Y-88922380D02*
X132250000Y-87922380D01*
X132154761Y-88065238D01*
X132059523Y-88160476D01*
X131964285Y-88208095D01*
X132916666Y-88017619D02*
X132964285Y-87970000D01*
X133059523Y-87922380D01*
X133297619Y-87922380D01*
X133392857Y-87970000D01*
X133440476Y-88017619D01*
X133488095Y-88112857D01*
X133488095Y-88208095D01*
X133440476Y-88350952D01*
X132869047Y-88922380D01*
X133488095Y-88922380D01*
X156546904Y-105632380D02*
X156546904Y-104632380D01*
X156785000Y-104632380D01*
X156927857Y-104680000D01*
X157023095Y-104775238D01*
X157070714Y-104870476D01*
X157118333Y-105060952D01*
X157118333Y-105203809D01*
X157070714Y-105394285D01*
X157023095Y-105489523D01*
X156927857Y-105584761D01*
X156785000Y-105632380D01*
X156546904Y-105632380D01*
X157975476Y-104965714D02*
X157975476Y-105632380D01*
X157737380Y-104584761D02*
X157499285Y-105299047D01*
X158118333Y-105299047D01*
X157109523Y-114282380D02*
X157109523Y-113282380D01*
X157347619Y-113282380D01*
X157490476Y-113330000D01*
X157585714Y-113425238D01*
X157633333Y-113520476D01*
X157680952Y-113710952D01*
X157680952Y-113853809D01*
X157633333Y-114044285D01*
X157585714Y-114139523D01*
X157490476Y-114234761D01*
X157347619Y-114282380D01*
X157109523Y-114282380D01*
X158633333Y-114282380D02*
X158061904Y-114282380D01*
X158347619Y-114282380D02*
X158347619Y-113282380D01*
X158252380Y-113425238D01*
X158157142Y-113520476D01*
X158061904Y-113568095D01*
X158966666Y-113282380D02*
X159585714Y-113282380D01*
X159252380Y-113663333D01*
X159395238Y-113663333D01*
X159490476Y-113710952D01*
X159538095Y-113758571D01*
X159585714Y-113853809D01*
X159585714Y-114091904D01*
X159538095Y-114187142D01*
X159490476Y-114234761D01*
X159395238Y-114282380D01*
X159109523Y-114282380D01*
X159014285Y-114234761D01*
X158966666Y-114187142D01*
X160538095Y-114282380D02*
X159966666Y-114282380D01*
X160252380Y-114282380D02*
X160252380Y-113282380D01*
X160157142Y-113425238D01*
X160061904Y-113520476D01*
X159966666Y-113568095D01*
X243859523Y-114632380D02*
X243859523Y-113632380D01*
X244097619Y-113632380D01*
X244240476Y-113680000D01*
X244335714Y-113775238D01*
X244383333Y-113870476D01*
X244430952Y-114060952D01*
X244430952Y-114203809D01*
X244383333Y-114394285D01*
X244335714Y-114489523D01*
X244240476Y-114584761D01*
X244097619Y-114632380D01*
X243859523Y-114632380D01*
X245383333Y-114632380D02*
X244811904Y-114632380D01*
X245097619Y-114632380D02*
X245097619Y-113632380D01*
X245002380Y-113775238D01*
X244907142Y-113870476D01*
X244811904Y-113918095D01*
X245764285Y-113727619D02*
X245811904Y-113680000D01*
X245907142Y-113632380D01*
X246145238Y-113632380D01*
X246240476Y-113680000D01*
X246288095Y-113727619D01*
X246335714Y-113822857D01*
X246335714Y-113918095D01*
X246288095Y-114060952D01*
X245716666Y-114632380D01*
X246335714Y-114632380D01*
X247240476Y-113632380D02*
X246764285Y-113632380D01*
X246716666Y-114108571D01*
X246764285Y-114060952D01*
X246859523Y-114013333D01*
X247097619Y-114013333D01*
X247192857Y-114060952D01*
X247240476Y-114108571D01*
X247288095Y-114203809D01*
X247288095Y-114441904D01*
X247240476Y-114537142D01*
X247192857Y-114584761D01*
X247097619Y-114632380D01*
X246859523Y-114632380D01*
X246764285Y-114584761D01*
X246716666Y-114537142D01*
X228570714Y-108382380D02*
X228570714Y-107382380D01*
X228808809Y-107382380D01*
X228951666Y-107430000D01*
X229046904Y-107525238D01*
X229094523Y-107620476D01*
X229142142Y-107810952D01*
X229142142Y-107953809D01*
X229094523Y-108144285D01*
X229046904Y-108239523D01*
X228951666Y-108334761D01*
X228808809Y-108382380D01*
X228570714Y-108382380D01*
X229618333Y-108382380D02*
X229808809Y-108382380D01*
X229904047Y-108334761D01*
X229951666Y-108287142D01*
X230046904Y-108144285D01*
X230094523Y-107953809D01*
X230094523Y-107572857D01*
X230046904Y-107477619D01*
X229999285Y-107430000D01*
X229904047Y-107382380D01*
X229713571Y-107382380D01*
X229618333Y-107430000D01*
X229570714Y-107477619D01*
X229523095Y-107572857D01*
X229523095Y-107810952D01*
X229570714Y-107906190D01*
X229618333Y-107953809D01*
X229713571Y-108001428D01*
X229904047Y-108001428D01*
X229999285Y-107953809D01*
X230046904Y-107906190D01*
X230094523Y-107810952D01*
X230475476Y-107477619D02*
X230523095Y-107430000D01*
X230618333Y-107382380D01*
X230856428Y-107382380D01*
X230951666Y-107430000D01*
X230999285Y-107477619D01*
X231046904Y-107572857D01*
X231046904Y-107668095D01*
X230999285Y-107810952D01*
X230427857Y-108382380D01*
X231046904Y-108382380D01*
X186085714Y-97882380D02*
X186085714Y-96882380D01*
X186323809Y-96882380D01*
X186466666Y-96930000D01*
X186561904Y-97025238D01*
X186609523Y-97120476D01*
X186657142Y-97310952D01*
X186657142Y-97453809D01*
X186609523Y-97644285D01*
X186561904Y-97739523D01*
X186466666Y-97834761D01*
X186323809Y-97882380D01*
X186085714Y-97882380D01*
X187038095Y-96977619D02*
X187085714Y-96930000D01*
X187180952Y-96882380D01*
X187419047Y-96882380D01*
X187514285Y-96930000D01*
X187561904Y-96977619D01*
X187609523Y-97072857D01*
X187609523Y-97168095D01*
X187561904Y-97310952D01*
X186990476Y-97882380D01*
X187609523Y-97882380D01*
X187942857Y-96882380D02*
X188561904Y-96882380D01*
X188228571Y-97263333D01*
X188371428Y-97263333D01*
X188466666Y-97310952D01*
X188514285Y-97358571D01*
X188561904Y-97453809D01*
X188561904Y-97691904D01*
X188514285Y-97787142D01*
X188466666Y-97834761D01*
X188371428Y-97882380D01*
X188085714Y-97882380D01*
X187990476Y-97834761D01*
X187942857Y-97787142D01*
X199320714Y-106132380D02*
X199320714Y-105132380D01*
X199558809Y-105132380D01*
X199701666Y-105180000D01*
X199796904Y-105275238D01*
X199844523Y-105370476D01*
X199892142Y-105560952D01*
X199892142Y-105703809D01*
X199844523Y-105894285D01*
X199796904Y-105989523D01*
X199701666Y-106084761D01*
X199558809Y-106132380D01*
X199320714Y-106132380D01*
X200796904Y-105132380D02*
X200320714Y-105132380D01*
X200273095Y-105608571D01*
X200320714Y-105560952D01*
X200415952Y-105513333D01*
X200654047Y-105513333D01*
X200749285Y-105560952D01*
X200796904Y-105608571D01*
X200844523Y-105703809D01*
X200844523Y-105941904D01*
X200796904Y-106037142D01*
X200749285Y-106084761D01*
X200654047Y-106132380D01*
X200415952Y-106132380D01*
X200320714Y-106084761D01*
X200273095Y-106037142D01*
X201177857Y-105132380D02*
X201844523Y-105132380D01*
X201415952Y-106132380D01*
X199109523Y-114132380D02*
X199109523Y-113132380D01*
X199347619Y-113132380D01*
X199490476Y-113180000D01*
X199585714Y-113275238D01*
X199633333Y-113370476D01*
X199680952Y-113560952D01*
X199680952Y-113703809D01*
X199633333Y-113894285D01*
X199585714Y-113989523D01*
X199490476Y-114084761D01*
X199347619Y-114132380D01*
X199109523Y-114132380D01*
X200633333Y-114132380D02*
X200061904Y-114132380D01*
X200347619Y-114132380D02*
X200347619Y-113132380D01*
X200252380Y-113275238D01*
X200157142Y-113370476D01*
X200061904Y-113418095D01*
X201014285Y-113227619D02*
X201061904Y-113180000D01*
X201157142Y-113132380D01*
X201395238Y-113132380D01*
X201490476Y-113180000D01*
X201538095Y-113227619D01*
X201585714Y-113322857D01*
X201585714Y-113418095D01*
X201538095Y-113560952D01*
X200966666Y-114132380D01*
X201585714Y-114132380D01*
X202538095Y-114132380D02*
X201966666Y-114132380D01*
X202252380Y-114132380D02*
X202252380Y-113132380D01*
X202157142Y-113275238D01*
X202061904Y-113370476D01*
X201966666Y-113418095D01*
X143335714Y-112882380D02*
X143335714Y-111882380D01*
X143573809Y-111882380D01*
X143716666Y-111930000D01*
X143811904Y-112025238D01*
X143859523Y-112120476D01*
X143907142Y-112310952D01*
X143907142Y-112453809D01*
X143859523Y-112644285D01*
X143811904Y-112739523D01*
X143716666Y-112834761D01*
X143573809Y-112882380D01*
X143335714Y-112882380D01*
X144478571Y-112310952D02*
X144383333Y-112263333D01*
X144335714Y-112215714D01*
X144288095Y-112120476D01*
X144288095Y-112072857D01*
X144335714Y-111977619D01*
X144383333Y-111930000D01*
X144478571Y-111882380D01*
X144669047Y-111882380D01*
X144764285Y-111930000D01*
X144811904Y-111977619D01*
X144859523Y-112072857D01*
X144859523Y-112120476D01*
X144811904Y-112215714D01*
X144764285Y-112263333D01*
X144669047Y-112310952D01*
X144478571Y-112310952D01*
X144383333Y-112358571D01*
X144335714Y-112406190D01*
X144288095Y-112501428D01*
X144288095Y-112691904D01*
X144335714Y-112787142D01*
X144383333Y-112834761D01*
X144478571Y-112882380D01*
X144669047Y-112882380D01*
X144764285Y-112834761D01*
X144811904Y-112787142D01*
X144859523Y-112691904D01*
X144859523Y-112501428D01*
X144811904Y-112406190D01*
X144764285Y-112358571D01*
X144669047Y-112310952D01*
X145240476Y-111977619D02*
X145288095Y-111930000D01*
X145383333Y-111882380D01*
X145621428Y-111882380D01*
X145716666Y-111930000D01*
X145764285Y-111977619D01*
X145811904Y-112072857D01*
X145811904Y-112168095D01*
X145764285Y-112310952D01*
X145192857Y-112882380D01*
X145811904Y-112882380D01*
X134335714Y-114472380D02*
X134335714Y-113472380D01*
X134573809Y-113472380D01*
X134716666Y-113520000D01*
X134811904Y-113615238D01*
X134859523Y-113710476D01*
X134907142Y-113900952D01*
X134907142Y-114043809D01*
X134859523Y-114234285D01*
X134811904Y-114329523D01*
X134716666Y-114424761D01*
X134573809Y-114472380D01*
X134335714Y-114472380D01*
X135478571Y-113900952D02*
X135383333Y-113853333D01*
X135335714Y-113805714D01*
X135288095Y-113710476D01*
X135288095Y-113662857D01*
X135335714Y-113567619D01*
X135383333Y-113520000D01*
X135478571Y-113472380D01*
X135669047Y-113472380D01*
X135764285Y-113520000D01*
X135811904Y-113567619D01*
X135859523Y-113662857D01*
X135859523Y-113710476D01*
X135811904Y-113805714D01*
X135764285Y-113853333D01*
X135669047Y-113900952D01*
X135478571Y-113900952D01*
X135383333Y-113948571D01*
X135335714Y-113996190D01*
X135288095Y-114091428D01*
X135288095Y-114281904D01*
X135335714Y-114377142D01*
X135383333Y-114424761D01*
X135478571Y-114472380D01*
X135669047Y-114472380D01*
X135764285Y-114424761D01*
X135811904Y-114377142D01*
X135859523Y-114281904D01*
X135859523Y-114091428D01*
X135811904Y-113996190D01*
X135764285Y-113948571D01*
X135669047Y-113900952D01*
X136811904Y-114472380D02*
X136240476Y-114472380D01*
X136526190Y-114472380D02*
X136526190Y-113472380D01*
X136430952Y-113615238D01*
X136335714Y-113710476D01*
X136240476Y-113758095D01*
X143320714Y-111132380D02*
X143320714Y-110132380D01*
X143558809Y-110132380D01*
X143701666Y-110180000D01*
X143796904Y-110275238D01*
X143844523Y-110370476D01*
X143892142Y-110560952D01*
X143892142Y-110703809D01*
X143844523Y-110894285D01*
X143796904Y-110989523D01*
X143701666Y-111084761D01*
X143558809Y-111132380D01*
X143320714Y-111132380D01*
X144749285Y-110132380D02*
X144558809Y-110132380D01*
X144463571Y-110180000D01*
X144415952Y-110227619D01*
X144320714Y-110370476D01*
X144273095Y-110560952D01*
X144273095Y-110941904D01*
X144320714Y-111037142D01*
X144368333Y-111084761D01*
X144463571Y-111132380D01*
X144654047Y-111132380D01*
X144749285Y-111084761D01*
X144796904Y-111037142D01*
X144844523Y-110941904D01*
X144844523Y-110703809D01*
X144796904Y-110608571D01*
X144749285Y-110560952D01*
X144654047Y-110513333D01*
X144463571Y-110513333D01*
X144368333Y-110560952D01*
X144320714Y-110608571D01*
X144273095Y-110703809D01*
X145701666Y-110132380D02*
X145511190Y-110132380D01*
X145415952Y-110180000D01*
X145368333Y-110227619D01*
X145273095Y-110370476D01*
X145225476Y-110560952D01*
X145225476Y-110941904D01*
X145273095Y-111037142D01*
X145320714Y-111084761D01*
X145415952Y-111132380D01*
X145606428Y-111132380D01*
X145701666Y-111084761D01*
X145749285Y-111037142D01*
X145796904Y-110941904D01*
X145796904Y-110703809D01*
X145749285Y-110608571D01*
X145701666Y-110560952D01*
X145606428Y-110513333D01*
X145415952Y-110513333D01*
X145320714Y-110560952D01*
X145273095Y-110608571D01*
X145225476Y-110703809D01*
X172585714Y-109132380D02*
X172585714Y-108132380D01*
X172823809Y-108132380D01*
X172966666Y-108180000D01*
X173061904Y-108275238D01*
X173109523Y-108370476D01*
X173157142Y-108560952D01*
X173157142Y-108703809D01*
X173109523Y-108894285D01*
X173061904Y-108989523D01*
X172966666Y-109084761D01*
X172823809Y-109132380D01*
X172585714Y-109132380D01*
X173490476Y-108132380D02*
X174157142Y-108132380D01*
X173728571Y-109132380D01*
X174728571Y-108132380D02*
X174823809Y-108132380D01*
X174919047Y-108180000D01*
X174966666Y-108227619D01*
X175014285Y-108322857D01*
X175061904Y-108513333D01*
X175061904Y-108751428D01*
X175014285Y-108941904D01*
X174966666Y-109037142D01*
X174919047Y-109084761D01*
X174823809Y-109132380D01*
X174728571Y-109132380D01*
X174633333Y-109084761D01*
X174585714Y-109037142D01*
X174538095Y-108941904D01*
X174490476Y-108751428D01*
X174490476Y-108513333D01*
X174538095Y-108322857D01*
X174585714Y-108227619D01*
X174633333Y-108180000D01*
X174728571Y-108132380D01*
X168359523Y-100132380D02*
X168359523Y-99132380D01*
X168597619Y-99132380D01*
X168740476Y-99180000D01*
X168835714Y-99275238D01*
X168883333Y-99370476D01*
X168930952Y-99560952D01*
X168930952Y-99703809D01*
X168883333Y-99894285D01*
X168835714Y-99989523D01*
X168740476Y-100084761D01*
X168597619Y-100132380D01*
X168359523Y-100132380D01*
X169883333Y-100132380D02*
X169311904Y-100132380D01*
X169597619Y-100132380D02*
X169597619Y-99132380D01*
X169502380Y-99275238D01*
X169407142Y-99370476D01*
X169311904Y-99418095D01*
X170740476Y-99465714D02*
X170740476Y-100132380D01*
X170502380Y-99084761D02*
X170264285Y-99799047D01*
X170883333Y-99799047D01*
X171169047Y-99132380D02*
X171788095Y-99132380D01*
X171454761Y-99513333D01*
X171597619Y-99513333D01*
X171692857Y-99560952D01*
X171740476Y-99608571D01*
X171788095Y-99703809D01*
X171788095Y-99941904D01*
X171740476Y-100037142D01*
X171692857Y-100084761D01*
X171597619Y-100132380D01*
X171311904Y-100132380D01*
X171216666Y-100084761D01*
X171169047Y-100037142D01*
X220344523Y-116132380D02*
X220344523Y-115132380D01*
X220582619Y-115132380D01*
X220725476Y-115180000D01*
X220820714Y-115275238D01*
X220868333Y-115370476D01*
X220915952Y-115560952D01*
X220915952Y-115703809D01*
X220868333Y-115894285D01*
X220820714Y-115989523D01*
X220725476Y-116084761D01*
X220582619Y-116132380D01*
X220344523Y-116132380D01*
X221868333Y-116132380D02*
X221296904Y-116132380D01*
X221582619Y-116132380D02*
X221582619Y-115132380D01*
X221487380Y-115275238D01*
X221392142Y-115370476D01*
X221296904Y-115418095D01*
X222249285Y-115227619D02*
X222296904Y-115180000D01*
X222392142Y-115132380D01*
X222630238Y-115132380D01*
X222725476Y-115180000D01*
X222773095Y-115227619D01*
X222820714Y-115322857D01*
X222820714Y-115418095D01*
X222773095Y-115560952D01*
X222201666Y-116132380D01*
X222820714Y-116132380D01*
X223154047Y-115132380D02*
X223773095Y-115132380D01*
X223439761Y-115513333D01*
X223582619Y-115513333D01*
X223677857Y-115560952D01*
X223725476Y-115608571D01*
X223773095Y-115703809D01*
X223773095Y-115941904D01*
X223725476Y-116037142D01*
X223677857Y-116084761D01*
X223582619Y-116132380D01*
X223296904Y-116132380D01*
X223201666Y-116084761D01*
X223154047Y-116037142D01*
X160835714Y-106382380D02*
X160835714Y-105382380D01*
X161073809Y-105382380D01*
X161216666Y-105430000D01*
X161311904Y-105525238D01*
X161359523Y-105620476D01*
X161407142Y-105810952D01*
X161407142Y-105953809D01*
X161359523Y-106144285D01*
X161311904Y-106239523D01*
X161216666Y-106334761D01*
X161073809Y-106382380D01*
X160835714Y-106382380D01*
X161740476Y-105382380D02*
X162359523Y-105382380D01*
X162026190Y-105763333D01*
X162169047Y-105763333D01*
X162264285Y-105810952D01*
X162311904Y-105858571D01*
X162359523Y-105953809D01*
X162359523Y-106191904D01*
X162311904Y-106287142D01*
X162264285Y-106334761D01*
X162169047Y-106382380D01*
X161883333Y-106382380D01*
X161788095Y-106334761D01*
X161740476Y-106287142D01*
X163216666Y-105382380D02*
X163026190Y-105382380D01*
X162930952Y-105430000D01*
X162883333Y-105477619D01*
X162788095Y-105620476D01*
X162740476Y-105810952D01*
X162740476Y-106191904D01*
X162788095Y-106287142D01*
X162835714Y-106334761D01*
X162930952Y-106382380D01*
X163121428Y-106382380D01*
X163216666Y-106334761D01*
X163264285Y-106287142D01*
X163311904Y-106191904D01*
X163311904Y-105953809D01*
X163264285Y-105858571D01*
X163216666Y-105810952D01*
X163121428Y-105763333D01*
X162930952Y-105763333D01*
X162835714Y-105810952D01*
X162788095Y-105858571D01*
X162740476Y-105953809D01*
X205585714Y-104882380D02*
X205585714Y-103882380D01*
X205823809Y-103882380D01*
X205966666Y-103930000D01*
X206061904Y-104025238D01*
X206109523Y-104120476D01*
X206157142Y-104310952D01*
X206157142Y-104453809D01*
X206109523Y-104644285D01*
X206061904Y-104739523D01*
X205966666Y-104834761D01*
X205823809Y-104882380D01*
X205585714Y-104882380D01*
X206538095Y-103977619D02*
X206585714Y-103930000D01*
X206680952Y-103882380D01*
X206919047Y-103882380D01*
X207014285Y-103930000D01*
X207061904Y-103977619D01*
X207109523Y-104072857D01*
X207109523Y-104168095D01*
X207061904Y-104310952D01*
X206490476Y-104882380D01*
X207109523Y-104882380D01*
X207966666Y-103882380D02*
X207776190Y-103882380D01*
X207680952Y-103930000D01*
X207633333Y-103977619D01*
X207538095Y-104120476D01*
X207490476Y-104310952D01*
X207490476Y-104691904D01*
X207538095Y-104787142D01*
X207585714Y-104834761D01*
X207680952Y-104882380D01*
X207871428Y-104882380D01*
X207966666Y-104834761D01*
X208014285Y-104787142D01*
X208061904Y-104691904D01*
X208061904Y-104453809D01*
X208014285Y-104358571D01*
X207966666Y-104310952D01*
X207871428Y-104263333D01*
X207680952Y-104263333D01*
X207585714Y-104310952D01*
X207538095Y-104358571D01*
X207490476Y-104453809D01*
X210094523Y-115882380D02*
X210094523Y-114882380D01*
X210332619Y-114882380D01*
X210475476Y-114930000D01*
X210570714Y-115025238D01*
X210618333Y-115120476D01*
X210665952Y-115310952D01*
X210665952Y-115453809D01*
X210618333Y-115644285D01*
X210570714Y-115739523D01*
X210475476Y-115834761D01*
X210332619Y-115882380D01*
X210094523Y-115882380D01*
X211618333Y-115882380D02*
X211046904Y-115882380D01*
X211332619Y-115882380D02*
X211332619Y-114882380D01*
X211237380Y-115025238D01*
X211142142Y-115120476D01*
X211046904Y-115168095D01*
X212237380Y-114882380D02*
X212332619Y-114882380D01*
X212427857Y-114930000D01*
X212475476Y-114977619D01*
X212523095Y-115072857D01*
X212570714Y-115263333D01*
X212570714Y-115501428D01*
X212523095Y-115691904D01*
X212475476Y-115787142D01*
X212427857Y-115834761D01*
X212332619Y-115882380D01*
X212237380Y-115882380D01*
X212142142Y-115834761D01*
X212094523Y-115787142D01*
X212046904Y-115691904D01*
X211999285Y-115501428D01*
X211999285Y-115263333D01*
X212046904Y-115072857D01*
X212094523Y-114977619D01*
X212142142Y-114930000D01*
X212237380Y-114882380D01*
X213427857Y-114882380D02*
X213237380Y-114882380D01*
X213142142Y-114930000D01*
X213094523Y-114977619D01*
X212999285Y-115120476D01*
X212951666Y-115310952D01*
X212951666Y-115691904D01*
X212999285Y-115787142D01*
X213046904Y-115834761D01*
X213142142Y-115882380D01*
X213332619Y-115882380D01*
X213427857Y-115834761D01*
X213475476Y-115787142D01*
X213523095Y-115691904D01*
X213523095Y-115453809D01*
X213475476Y-115358571D01*
X213427857Y-115310952D01*
X213332619Y-115263333D01*
X213142142Y-115263333D01*
X213046904Y-115310952D01*
X212999285Y-115358571D01*
X212951666Y-115453809D01*
X161109523Y-113632380D02*
X161109523Y-112632380D01*
X161347619Y-112632380D01*
X161490476Y-112680000D01*
X161585714Y-112775238D01*
X161633333Y-112870476D01*
X161680952Y-113060952D01*
X161680952Y-113203809D01*
X161633333Y-113394285D01*
X161585714Y-113489523D01*
X161490476Y-113584761D01*
X161347619Y-113632380D01*
X161109523Y-113632380D01*
X162633333Y-113632380D02*
X162061904Y-113632380D01*
X162347619Y-113632380D02*
X162347619Y-112632380D01*
X162252380Y-112775238D01*
X162157142Y-112870476D01*
X162061904Y-112918095D01*
X163252380Y-112632380D02*
X163347619Y-112632380D01*
X163442857Y-112680000D01*
X163490476Y-112727619D01*
X163538095Y-112822857D01*
X163585714Y-113013333D01*
X163585714Y-113251428D01*
X163538095Y-113441904D01*
X163490476Y-113537142D01*
X163442857Y-113584761D01*
X163347619Y-113632380D01*
X163252380Y-113632380D01*
X163157142Y-113584761D01*
X163109523Y-113537142D01*
X163061904Y-113441904D01*
X163014285Y-113251428D01*
X163014285Y-113013333D01*
X163061904Y-112822857D01*
X163109523Y-112727619D01*
X163157142Y-112680000D01*
X163252380Y-112632380D01*
X164204761Y-112632380D02*
X164300000Y-112632380D01*
X164395238Y-112680000D01*
X164442857Y-112727619D01*
X164490476Y-112822857D01*
X164538095Y-113013333D01*
X164538095Y-113251428D01*
X164490476Y-113441904D01*
X164442857Y-113537142D01*
X164395238Y-113584761D01*
X164300000Y-113632380D01*
X164204761Y-113632380D01*
X164109523Y-113584761D01*
X164061904Y-113537142D01*
X164014285Y-113441904D01*
X163966666Y-113251428D01*
X163966666Y-113013333D01*
X164014285Y-112822857D01*
X164061904Y-112727619D01*
X164109523Y-112680000D01*
X164204761Y-112632380D01*
X182311904Y-106382380D02*
X182311904Y-105382380D01*
X182550000Y-105382380D01*
X182692857Y-105430000D01*
X182788095Y-105525238D01*
X182835714Y-105620476D01*
X182883333Y-105810952D01*
X182883333Y-105953809D01*
X182835714Y-106144285D01*
X182788095Y-106239523D01*
X182692857Y-106334761D01*
X182550000Y-106382380D01*
X182311904Y-106382380D01*
X183454761Y-105810952D02*
X183359523Y-105763333D01*
X183311904Y-105715714D01*
X183264285Y-105620476D01*
X183264285Y-105572857D01*
X183311904Y-105477619D01*
X183359523Y-105430000D01*
X183454761Y-105382380D01*
X183645238Y-105382380D01*
X183740476Y-105430000D01*
X183788095Y-105477619D01*
X183835714Y-105572857D01*
X183835714Y-105620476D01*
X183788095Y-105715714D01*
X183740476Y-105763333D01*
X183645238Y-105810952D01*
X183454761Y-105810952D01*
X183359523Y-105858571D01*
X183311904Y-105906190D01*
X183264285Y-106001428D01*
X183264285Y-106191904D01*
X183311904Y-106287142D01*
X183359523Y-106334761D01*
X183454761Y-106382380D01*
X183645238Y-106382380D01*
X183740476Y-106334761D01*
X183788095Y-106287142D01*
X183835714Y-106191904D01*
X183835714Y-106001428D01*
X183788095Y-105906190D01*
X183740476Y-105858571D01*
X183645238Y-105810952D01*
X207385714Y-77332380D02*
X207385714Y-76332380D01*
X207623809Y-76332380D01*
X207766666Y-76380000D01*
X207861904Y-76475238D01*
X207909523Y-76570476D01*
X207957142Y-76760952D01*
X207957142Y-76903809D01*
X207909523Y-77094285D01*
X207861904Y-77189523D01*
X207766666Y-77284761D01*
X207623809Y-77332380D01*
X207385714Y-77332380D01*
X208290476Y-76332380D02*
X208909523Y-76332380D01*
X208576190Y-76713333D01*
X208719047Y-76713333D01*
X208814285Y-76760952D01*
X208861904Y-76808571D01*
X208909523Y-76903809D01*
X208909523Y-77141904D01*
X208861904Y-77237142D01*
X208814285Y-77284761D01*
X208719047Y-77332380D01*
X208433333Y-77332380D01*
X208338095Y-77284761D01*
X208290476Y-77237142D01*
X209528571Y-76332380D02*
X209623809Y-76332380D01*
X209719047Y-76380000D01*
X209766666Y-76427619D01*
X209814285Y-76522857D01*
X209861904Y-76713333D01*
X209861904Y-76951428D01*
X209814285Y-77141904D01*
X209766666Y-77237142D01*
X209719047Y-77284761D01*
X209623809Y-77332380D01*
X209528571Y-77332380D01*
X209433333Y-77284761D01*
X209385714Y-77237142D01*
X209338095Y-77141904D01*
X209290476Y-76951428D01*
X209290476Y-76713333D01*
X209338095Y-76522857D01*
X209385714Y-76427619D01*
X209433333Y-76380000D01*
X209528571Y-76332380D01*
X167311904Y-104882380D02*
X167311904Y-103882380D01*
X167550000Y-103882380D01*
X167692857Y-103930000D01*
X167788095Y-104025238D01*
X167835714Y-104120476D01*
X167883333Y-104310952D01*
X167883333Y-104453809D01*
X167835714Y-104644285D01*
X167788095Y-104739523D01*
X167692857Y-104834761D01*
X167550000Y-104882380D01*
X167311904Y-104882380D01*
X168788095Y-103882380D02*
X168311904Y-103882380D01*
X168264285Y-104358571D01*
X168311904Y-104310952D01*
X168407142Y-104263333D01*
X168645238Y-104263333D01*
X168740476Y-104310952D01*
X168788095Y-104358571D01*
X168835714Y-104453809D01*
X168835714Y-104691904D01*
X168788095Y-104787142D01*
X168740476Y-104834761D01*
X168645238Y-104882380D01*
X168407142Y-104882380D01*
X168311904Y-104834761D01*
X168264285Y-104787142D01*
X139811904Y-106132380D02*
X139811904Y-105132380D01*
X140050000Y-105132380D01*
X140192857Y-105180000D01*
X140288095Y-105275238D01*
X140335714Y-105370476D01*
X140383333Y-105560952D01*
X140383333Y-105703809D01*
X140335714Y-105894285D01*
X140288095Y-105989523D01*
X140192857Y-106084761D01*
X140050000Y-106132380D01*
X139811904Y-106132380D01*
X140764285Y-105227619D02*
X140811904Y-105180000D01*
X140907142Y-105132380D01*
X141145238Y-105132380D01*
X141240476Y-105180000D01*
X141288095Y-105227619D01*
X141335714Y-105322857D01*
X141335714Y-105418095D01*
X141288095Y-105560952D01*
X140716666Y-106132380D01*
X141335714Y-106132380D01*
X161820714Y-111882380D02*
X161820714Y-110882380D01*
X162058809Y-110882380D01*
X162201666Y-110930000D01*
X162296904Y-111025238D01*
X162344523Y-111120476D01*
X162392142Y-111310952D01*
X162392142Y-111453809D01*
X162344523Y-111644285D01*
X162296904Y-111739523D01*
X162201666Y-111834761D01*
X162058809Y-111882380D01*
X161820714Y-111882380D01*
X162963571Y-111310952D02*
X162868333Y-111263333D01*
X162820714Y-111215714D01*
X162773095Y-111120476D01*
X162773095Y-111072857D01*
X162820714Y-110977619D01*
X162868333Y-110930000D01*
X162963571Y-110882380D01*
X163154047Y-110882380D01*
X163249285Y-110930000D01*
X163296904Y-110977619D01*
X163344523Y-111072857D01*
X163344523Y-111120476D01*
X163296904Y-111215714D01*
X163249285Y-111263333D01*
X163154047Y-111310952D01*
X162963571Y-111310952D01*
X162868333Y-111358571D01*
X162820714Y-111406190D01*
X162773095Y-111501428D01*
X162773095Y-111691904D01*
X162820714Y-111787142D01*
X162868333Y-111834761D01*
X162963571Y-111882380D01*
X163154047Y-111882380D01*
X163249285Y-111834761D01*
X163296904Y-111787142D01*
X163344523Y-111691904D01*
X163344523Y-111501428D01*
X163296904Y-111406190D01*
X163249285Y-111358571D01*
X163154047Y-111310952D01*
X164201666Y-111215714D02*
X164201666Y-111882380D01*
X163963571Y-110834761D02*
X163725476Y-111549047D01*
X164344523Y-111549047D01*
X242570714Y-67382380D02*
X242570714Y-66382380D01*
X242808809Y-66382380D01*
X242951666Y-66430000D01*
X243046904Y-66525238D01*
X243094523Y-66620476D01*
X243142142Y-66810952D01*
X243142142Y-66953809D01*
X243094523Y-67144285D01*
X243046904Y-67239523D01*
X242951666Y-67334761D01*
X242808809Y-67382380D01*
X242570714Y-67382380D01*
X243999285Y-66382380D02*
X243808809Y-66382380D01*
X243713571Y-66430000D01*
X243665952Y-66477619D01*
X243570714Y-66620476D01*
X243523095Y-66810952D01*
X243523095Y-67191904D01*
X243570714Y-67287142D01*
X243618333Y-67334761D01*
X243713571Y-67382380D01*
X243904047Y-67382380D01*
X243999285Y-67334761D01*
X244046904Y-67287142D01*
X244094523Y-67191904D01*
X244094523Y-66953809D01*
X244046904Y-66858571D01*
X243999285Y-66810952D01*
X243904047Y-66763333D01*
X243713571Y-66763333D01*
X243618333Y-66810952D01*
X243570714Y-66858571D01*
X243523095Y-66953809D01*
X244475476Y-66477619D02*
X244523095Y-66430000D01*
X244618333Y-66382380D01*
X244856428Y-66382380D01*
X244951666Y-66430000D01*
X244999285Y-66477619D01*
X245046904Y-66572857D01*
X245046904Y-66668095D01*
X244999285Y-66810952D01*
X244427857Y-67382380D01*
X245046904Y-67382380D01*
X183594523Y-122382380D02*
X183594523Y-121382380D01*
X183832619Y-121382380D01*
X183975476Y-121430000D01*
X184070714Y-121525238D01*
X184118333Y-121620476D01*
X184165952Y-121810952D01*
X184165952Y-121953809D01*
X184118333Y-122144285D01*
X184070714Y-122239523D01*
X183975476Y-122334761D01*
X183832619Y-122382380D01*
X183594523Y-122382380D01*
X185118333Y-122382380D02*
X184546904Y-122382380D01*
X184832619Y-122382380D02*
X184832619Y-121382380D01*
X184737380Y-121525238D01*
X184642142Y-121620476D01*
X184546904Y-121668095D01*
X186070714Y-122382380D02*
X185499285Y-122382380D01*
X185785000Y-122382380D02*
X185785000Y-121382380D01*
X185689761Y-121525238D01*
X185594523Y-121620476D01*
X185499285Y-121668095D01*
X186642142Y-121810952D02*
X186546904Y-121763333D01*
X186499285Y-121715714D01*
X186451666Y-121620476D01*
X186451666Y-121572857D01*
X186499285Y-121477619D01*
X186546904Y-121430000D01*
X186642142Y-121382380D01*
X186832619Y-121382380D01*
X186927857Y-121430000D01*
X186975476Y-121477619D01*
X187023095Y-121572857D01*
X187023095Y-121620476D01*
X186975476Y-121715714D01*
X186927857Y-121763333D01*
X186832619Y-121810952D01*
X186642142Y-121810952D01*
X186546904Y-121858571D01*
X186499285Y-121906190D01*
X186451666Y-122001428D01*
X186451666Y-122191904D01*
X186499285Y-122287142D01*
X186546904Y-122334761D01*
X186642142Y-122382380D01*
X186832619Y-122382380D01*
X186927857Y-122334761D01*
X186975476Y-122287142D01*
X187023095Y-122191904D01*
X187023095Y-122001428D01*
X186975476Y-121906190D01*
X186927857Y-121858571D01*
X186832619Y-121810952D01*
X193320714Y-95882380D02*
X193320714Y-94882380D01*
X193558809Y-94882380D01*
X193701666Y-94930000D01*
X193796904Y-95025238D01*
X193844523Y-95120476D01*
X193892142Y-95310952D01*
X193892142Y-95453809D01*
X193844523Y-95644285D01*
X193796904Y-95739523D01*
X193701666Y-95834761D01*
X193558809Y-95882380D01*
X193320714Y-95882380D01*
X194749285Y-95215714D02*
X194749285Y-95882380D01*
X194511190Y-94834761D02*
X194273095Y-95549047D01*
X194892142Y-95549047D01*
X195177857Y-94882380D02*
X195844523Y-94882380D01*
X195415952Y-95882380D01*
X226085714Y-71632380D02*
X226085714Y-70632380D01*
X226323809Y-70632380D01*
X226466666Y-70680000D01*
X226561904Y-70775238D01*
X226609523Y-70870476D01*
X226657142Y-71060952D01*
X226657142Y-71203809D01*
X226609523Y-71394285D01*
X226561904Y-71489523D01*
X226466666Y-71584761D01*
X226323809Y-71632380D01*
X226085714Y-71632380D01*
X227514285Y-70965714D02*
X227514285Y-71632380D01*
X227276190Y-70584761D02*
X227038095Y-71299047D01*
X227657142Y-71299047D01*
X228466666Y-70632380D02*
X228276190Y-70632380D01*
X228180952Y-70680000D01*
X228133333Y-70727619D01*
X228038095Y-70870476D01*
X227990476Y-71060952D01*
X227990476Y-71441904D01*
X228038095Y-71537142D01*
X228085714Y-71584761D01*
X228180952Y-71632380D01*
X228371428Y-71632380D01*
X228466666Y-71584761D01*
X228514285Y-71537142D01*
X228561904Y-71441904D01*
X228561904Y-71203809D01*
X228514285Y-71108571D01*
X228466666Y-71060952D01*
X228371428Y-71013333D01*
X228180952Y-71013333D01*
X228085714Y-71060952D01*
X228038095Y-71108571D01*
X227990476Y-71203809D01*
X194320714Y-105382380D02*
X194320714Y-104382380D01*
X194558809Y-104382380D01*
X194701666Y-104430000D01*
X194796904Y-104525238D01*
X194844523Y-104620476D01*
X194892142Y-104810952D01*
X194892142Y-104953809D01*
X194844523Y-105144285D01*
X194796904Y-105239523D01*
X194701666Y-105334761D01*
X194558809Y-105382380D01*
X194320714Y-105382380D01*
X195273095Y-104477619D02*
X195320714Y-104430000D01*
X195415952Y-104382380D01*
X195654047Y-104382380D01*
X195749285Y-104430000D01*
X195796904Y-104477619D01*
X195844523Y-104572857D01*
X195844523Y-104668095D01*
X195796904Y-104810952D01*
X195225476Y-105382380D01*
X195844523Y-105382380D01*
X196749285Y-104382380D02*
X196273095Y-104382380D01*
X196225476Y-104858571D01*
X196273095Y-104810952D01*
X196368333Y-104763333D01*
X196606428Y-104763333D01*
X196701666Y-104810952D01*
X196749285Y-104858571D01*
X196796904Y-104953809D01*
X196796904Y-105191904D01*
X196749285Y-105287142D01*
X196701666Y-105334761D01*
X196606428Y-105382380D01*
X196368333Y-105382380D01*
X196273095Y-105334761D01*
X196225476Y-105287142D01*
X120059523Y-78872380D02*
X120059523Y-77872380D01*
X120297619Y-77872380D01*
X120440476Y-77920000D01*
X120535714Y-78015238D01*
X120583333Y-78110476D01*
X120630952Y-78300952D01*
X120630952Y-78443809D01*
X120583333Y-78634285D01*
X120535714Y-78729523D01*
X120440476Y-78824761D01*
X120297619Y-78872380D01*
X120059523Y-78872380D01*
X121583333Y-78872380D02*
X121011904Y-78872380D01*
X121297619Y-78872380D02*
X121297619Y-77872380D01*
X121202380Y-78015238D01*
X121107142Y-78110476D01*
X121011904Y-78158095D01*
X122440476Y-78205714D02*
X122440476Y-78872380D01*
X122202380Y-77824761D02*
X121964285Y-78539047D01*
X122583333Y-78539047D01*
X123392857Y-78205714D02*
X123392857Y-78872380D01*
X123154761Y-77824761D02*
X122916666Y-78539047D01*
X123535714Y-78539047D01*
X229124523Y-109632380D02*
X229124523Y-108632380D01*
X229362619Y-108632380D01*
X229505476Y-108680000D01*
X229600714Y-108775238D01*
X229648333Y-108870476D01*
X229695952Y-109060952D01*
X229695952Y-109203809D01*
X229648333Y-109394285D01*
X229600714Y-109489523D01*
X229505476Y-109584761D01*
X229362619Y-109632380D01*
X229124523Y-109632380D01*
X230648333Y-109632380D02*
X230076904Y-109632380D01*
X230362619Y-109632380D02*
X230362619Y-108632380D01*
X230267380Y-108775238D01*
X230172142Y-108870476D01*
X230076904Y-108918095D01*
X231267380Y-108632380D02*
X231362619Y-108632380D01*
X231457857Y-108680000D01*
X231505476Y-108727619D01*
X231553095Y-108822857D01*
X231600714Y-109013333D01*
X231600714Y-109251428D01*
X231553095Y-109441904D01*
X231505476Y-109537142D01*
X231457857Y-109584761D01*
X231362619Y-109632380D01*
X231267380Y-109632380D01*
X231172142Y-109584761D01*
X231124523Y-109537142D01*
X231076904Y-109441904D01*
X231029285Y-109251428D01*
X231029285Y-109013333D01*
X231076904Y-108822857D01*
X231124523Y-108727619D01*
X231172142Y-108680000D01*
X231267380Y-108632380D01*
X232172142Y-109060952D02*
X232076904Y-109013333D01*
X232029285Y-108965714D01*
X231981666Y-108870476D01*
X231981666Y-108822857D01*
X232029285Y-108727619D01*
X232076904Y-108680000D01*
X232172142Y-108632380D01*
X232362619Y-108632380D01*
X232457857Y-108680000D01*
X232505476Y-108727619D01*
X232553095Y-108822857D01*
X232553095Y-108870476D01*
X232505476Y-108965714D01*
X232457857Y-109013333D01*
X232362619Y-109060952D01*
X232172142Y-109060952D01*
X232076904Y-109108571D01*
X232029285Y-109156190D01*
X231981666Y-109251428D01*
X231981666Y-109441904D01*
X232029285Y-109537142D01*
X232076904Y-109584761D01*
X232172142Y-109632380D01*
X232362619Y-109632380D01*
X232457857Y-109584761D01*
X232505476Y-109537142D01*
X232553095Y-109441904D01*
X232553095Y-109251428D01*
X232505476Y-109156190D01*
X232457857Y-109108571D01*
X232362619Y-109060952D01*
X129609523Y-117722380D02*
X129609523Y-116722380D01*
X129847619Y-116722380D01*
X129990476Y-116770000D01*
X130085714Y-116865238D01*
X130133333Y-116960476D01*
X130180952Y-117150952D01*
X130180952Y-117293809D01*
X130133333Y-117484285D01*
X130085714Y-117579523D01*
X129990476Y-117674761D01*
X129847619Y-117722380D01*
X129609523Y-117722380D01*
X131133333Y-117722380D02*
X130561904Y-117722380D01*
X130847619Y-117722380D02*
X130847619Y-116722380D01*
X130752380Y-116865238D01*
X130657142Y-116960476D01*
X130561904Y-117008095D01*
X131514285Y-116817619D02*
X131561904Y-116770000D01*
X131657142Y-116722380D01*
X131895238Y-116722380D01*
X131990476Y-116770000D01*
X132038095Y-116817619D01*
X132085714Y-116912857D01*
X132085714Y-117008095D01*
X132038095Y-117150952D01*
X131466666Y-117722380D01*
X132085714Y-117722380D01*
X132561904Y-117722380D02*
X132752380Y-117722380D01*
X132847619Y-117674761D01*
X132895238Y-117627142D01*
X132990476Y-117484285D01*
X133038095Y-117293809D01*
X133038095Y-116912857D01*
X132990476Y-116817619D01*
X132942857Y-116770000D01*
X132847619Y-116722380D01*
X132657142Y-116722380D01*
X132561904Y-116770000D01*
X132514285Y-116817619D01*
X132466666Y-116912857D01*
X132466666Y-117150952D01*
X132514285Y-117246190D01*
X132561904Y-117293809D01*
X132657142Y-117341428D01*
X132847619Y-117341428D01*
X132942857Y-117293809D01*
X132990476Y-117246190D01*
X133038095Y-117150952D01*
X161233333Y-80242142D02*
X161185714Y-80289761D01*
X161042857Y-80337380D01*
X160947619Y-80337380D01*
X160804761Y-80289761D01*
X160709523Y-80194523D01*
X160661904Y-80099285D01*
X160614285Y-79908809D01*
X160614285Y-79765952D01*
X160661904Y-79575476D01*
X160709523Y-79480238D01*
X160804761Y-79385000D01*
X160947619Y-79337380D01*
X161042857Y-79337380D01*
X161185714Y-79385000D01*
X161233333Y-79432619D01*
X161566666Y-79337380D02*
X162185714Y-79337380D01*
X161852380Y-79718333D01*
X161995238Y-79718333D01*
X162090476Y-79765952D01*
X162138095Y-79813571D01*
X162185714Y-79908809D01*
X162185714Y-80146904D01*
X162138095Y-80242142D01*
X162090476Y-80289761D01*
X161995238Y-80337380D01*
X161709523Y-80337380D01*
X161614285Y-80289761D01*
X161566666Y-80242142D01*
X225335714Y-106132380D02*
X225335714Y-105132380D01*
X225573809Y-105132380D01*
X225716666Y-105180000D01*
X225811904Y-105275238D01*
X225859523Y-105370476D01*
X225907142Y-105560952D01*
X225907142Y-105703809D01*
X225859523Y-105894285D01*
X225811904Y-105989523D01*
X225716666Y-106084761D01*
X225573809Y-106132380D01*
X225335714Y-106132380D01*
X226764285Y-105465714D02*
X226764285Y-106132380D01*
X226526190Y-105084761D02*
X226288095Y-105799047D01*
X226907142Y-105799047D01*
X227716666Y-105465714D02*
X227716666Y-106132380D01*
X227478571Y-105084761D02*
X227240476Y-105799047D01*
X227859523Y-105799047D01*
X167320714Y-112132380D02*
X167320714Y-111132380D01*
X167558809Y-111132380D01*
X167701666Y-111180000D01*
X167796904Y-111275238D01*
X167844523Y-111370476D01*
X167892142Y-111560952D01*
X167892142Y-111703809D01*
X167844523Y-111894285D01*
X167796904Y-111989523D01*
X167701666Y-112084761D01*
X167558809Y-112132380D01*
X167320714Y-112132380D01*
X168796904Y-111132380D02*
X168320714Y-111132380D01*
X168273095Y-111608571D01*
X168320714Y-111560952D01*
X168415952Y-111513333D01*
X168654047Y-111513333D01*
X168749285Y-111560952D01*
X168796904Y-111608571D01*
X168844523Y-111703809D01*
X168844523Y-111941904D01*
X168796904Y-112037142D01*
X168749285Y-112084761D01*
X168654047Y-112132380D01*
X168415952Y-112132380D01*
X168320714Y-112084761D01*
X168273095Y-112037142D01*
X169177857Y-111132380D02*
X169796904Y-111132380D01*
X169463571Y-111513333D01*
X169606428Y-111513333D01*
X169701666Y-111560952D01*
X169749285Y-111608571D01*
X169796904Y-111703809D01*
X169796904Y-111941904D01*
X169749285Y-112037142D01*
X169701666Y-112084761D01*
X169606428Y-112132380D01*
X169320714Y-112132380D01*
X169225476Y-112084761D01*
X169177857Y-112037142D01*
X182874523Y-112632380D02*
X182874523Y-111632380D01*
X183112619Y-111632380D01*
X183255476Y-111680000D01*
X183350714Y-111775238D01*
X183398333Y-111870476D01*
X183445952Y-112060952D01*
X183445952Y-112203809D01*
X183398333Y-112394285D01*
X183350714Y-112489523D01*
X183255476Y-112584761D01*
X183112619Y-112632380D01*
X182874523Y-112632380D01*
X184398333Y-112632380D02*
X183826904Y-112632380D01*
X184112619Y-112632380D02*
X184112619Y-111632380D01*
X184017380Y-111775238D01*
X183922142Y-111870476D01*
X183826904Y-111918095D01*
X185017380Y-111632380D02*
X185112619Y-111632380D01*
X185207857Y-111680000D01*
X185255476Y-111727619D01*
X185303095Y-111822857D01*
X185350714Y-112013333D01*
X185350714Y-112251428D01*
X185303095Y-112441904D01*
X185255476Y-112537142D01*
X185207857Y-112584761D01*
X185112619Y-112632380D01*
X185017380Y-112632380D01*
X184922142Y-112584761D01*
X184874523Y-112537142D01*
X184826904Y-112441904D01*
X184779285Y-112251428D01*
X184779285Y-112013333D01*
X184826904Y-111822857D01*
X184874523Y-111727619D01*
X184922142Y-111680000D01*
X185017380Y-111632380D01*
X185684047Y-111632380D02*
X186303095Y-111632380D01*
X185969761Y-112013333D01*
X186112619Y-112013333D01*
X186207857Y-112060952D01*
X186255476Y-112108571D01*
X186303095Y-112203809D01*
X186303095Y-112441904D01*
X186255476Y-112537142D01*
X186207857Y-112584761D01*
X186112619Y-112632380D01*
X185826904Y-112632380D01*
X185731666Y-112584761D01*
X185684047Y-112537142D01*
X230622380Y-64429166D02*
X230146190Y-64762500D01*
X230622380Y-65000595D02*
X229622380Y-65000595D01*
X229622380Y-64619642D01*
X229670000Y-64524404D01*
X229717619Y-64476785D01*
X229812857Y-64429166D01*
X229955714Y-64429166D01*
X230050952Y-64476785D01*
X230098571Y-64524404D01*
X230146190Y-64619642D01*
X230146190Y-65000595D01*
X229622380Y-63572023D02*
X229622380Y-63762500D01*
X229670000Y-63857738D01*
X229717619Y-63905357D01*
X229860476Y-64000595D01*
X230050952Y-64048214D01*
X230431904Y-64048214D01*
X230527142Y-64000595D01*
X230574761Y-63952976D01*
X230622380Y-63857738D01*
X230622380Y-63667261D01*
X230574761Y-63572023D01*
X230527142Y-63524404D01*
X230431904Y-63476785D01*
X230193809Y-63476785D01*
X230098571Y-63524404D01*
X230050952Y-63572023D01*
X230003333Y-63667261D01*
X230003333Y-63857738D01*
X230050952Y-63952976D01*
X230098571Y-64000595D01*
X230193809Y-64048214D01*
X166359523Y-122632380D02*
X166359523Y-121632380D01*
X166597619Y-121632380D01*
X166740476Y-121680000D01*
X166835714Y-121775238D01*
X166883333Y-121870476D01*
X166930952Y-122060952D01*
X166930952Y-122203809D01*
X166883333Y-122394285D01*
X166835714Y-122489523D01*
X166740476Y-122584761D01*
X166597619Y-122632380D01*
X166359523Y-122632380D01*
X167883333Y-122632380D02*
X167311904Y-122632380D01*
X167597619Y-122632380D02*
X167597619Y-121632380D01*
X167502380Y-121775238D01*
X167407142Y-121870476D01*
X167311904Y-121918095D01*
X168216666Y-121632380D02*
X168835714Y-121632380D01*
X168502380Y-122013333D01*
X168645238Y-122013333D01*
X168740476Y-122060952D01*
X168788095Y-122108571D01*
X168835714Y-122203809D01*
X168835714Y-122441904D01*
X168788095Y-122537142D01*
X168740476Y-122584761D01*
X168645238Y-122632380D01*
X168359523Y-122632380D01*
X168264285Y-122584761D01*
X168216666Y-122537142D01*
X169169047Y-121632380D02*
X169788095Y-121632380D01*
X169454761Y-122013333D01*
X169597619Y-122013333D01*
X169692857Y-122060952D01*
X169740476Y-122108571D01*
X169788095Y-122203809D01*
X169788095Y-122441904D01*
X169740476Y-122537142D01*
X169692857Y-122584761D01*
X169597619Y-122632380D01*
X169311904Y-122632380D01*
X169216666Y-122584761D01*
X169169047Y-122537142D01*
X153335714Y-110382380D02*
X153335714Y-109382380D01*
X153573809Y-109382380D01*
X153716666Y-109430000D01*
X153811904Y-109525238D01*
X153859523Y-109620476D01*
X153907142Y-109810952D01*
X153907142Y-109953809D01*
X153859523Y-110144285D01*
X153811904Y-110239523D01*
X153716666Y-110334761D01*
X153573809Y-110382380D01*
X153335714Y-110382380D01*
X154478571Y-109810952D02*
X154383333Y-109763333D01*
X154335714Y-109715714D01*
X154288095Y-109620476D01*
X154288095Y-109572857D01*
X154335714Y-109477619D01*
X154383333Y-109430000D01*
X154478571Y-109382380D01*
X154669047Y-109382380D01*
X154764285Y-109430000D01*
X154811904Y-109477619D01*
X154859523Y-109572857D01*
X154859523Y-109620476D01*
X154811904Y-109715714D01*
X154764285Y-109763333D01*
X154669047Y-109810952D01*
X154478571Y-109810952D01*
X154383333Y-109858571D01*
X154335714Y-109906190D01*
X154288095Y-110001428D01*
X154288095Y-110191904D01*
X154335714Y-110287142D01*
X154383333Y-110334761D01*
X154478571Y-110382380D01*
X154669047Y-110382380D01*
X154764285Y-110334761D01*
X154811904Y-110287142D01*
X154859523Y-110191904D01*
X154859523Y-110001428D01*
X154811904Y-109906190D01*
X154764285Y-109858571D01*
X154669047Y-109810952D01*
X155192857Y-109382380D02*
X155811904Y-109382380D01*
X155478571Y-109763333D01*
X155621428Y-109763333D01*
X155716666Y-109810952D01*
X155764285Y-109858571D01*
X155811904Y-109953809D01*
X155811904Y-110191904D01*
X155764285Y-110287142D01*
X155716666Y-110334761D01*
X155621428Y-110382380D01*
X155335714Y-110382380D01*
X155240476Y-110334761D01*
X155192857Y-110287142D01*
X166844523Y-120632380D02*
X166844523Y-119632380D01*
X167082619Y-119632380D01*
X167225476Y-119680000D01*
X167320714Y-119775238D01*
X167368333Y-119870476D01*
X167415952Y-120060952D01*
X167415952Y-120203809D01*
X167368333Y-120394285D01*
X167320714Y-120489523D01*
X167225476Y-120584761D01*
X167082619Y-120632380D01*
X166844523Y-120632380D01*
X168368333Y-120632380D02*
X167796904Y-120632380D01*
X168082619Y-120632380D02*
X168082619Y-119632380D01*
X167987380Y-119775238D01*
X167892142Y-119870476D01*
X167796904Y-119918095D01*
X169320714Y-120632380D02*
X168749285Y-120632380D01*
X169035000Y-120632380D02*
X169035000Y-119632380D01*
X168939761Y-119775238D01*
X168844523Y-119870476D01*
X168749285Y-119918095D01*
X169654047Y-119632380D02*
X170320714Y-119632380D01*
X169892142Y-120632380D01*
X186320714Y-106632380D02*
X186320714Y-105632380D01*
X186558809Y-105632380D01*
X186701666Y-105680000D01*
X186796904Y-105775238D01*
X186844523Y-105870476D01*
X186892142Y-106060952D01*
X186892142Y-106203809D01*
X186844523Y-106394285D01*
X186796904Y-106489523D01*
X186701666Y-106584761D01*
X186558809Y-106632380D01*
X186320714Y-106632380D01*
X187796904Y-105632380D02*
X187320714Y-105632380D01*
X187273095Y-106108571D01*
X187320714Y-106060952D01*
X187415952Y-106013333D01*
X187654047Y-106013333D01*
X187749285Y-106060952D01*
X187796904Y-106108571D01*
X187844523Y-106203809D01*
X187844523Y-106441904D01*
X187796904Y-106537142D01*
X187749285Y-106584761D01*
X187654047Y-106632380D01*
X187415952Y-106632380D01*
X187320714Y-106584761D01*
X187273095Y-106537142D01*
X188701666Y-105632380D02*
X188511190Y-105632380D01*
X188415952Y-105680000D01*
X188368333Y-105727619D01*
X188273095Y-105870476D01*
X188225476Y-106060952D01*
X188225476Y-106441904D01*
X188273095Y-106537142D01*
X188320714Y-106584761D01*
X188415952Y-106632380D01*
X188606428Y-106632380D01*
X188701666Y-106584761D01*
X188749285Y-106537142D01*
X188796904Y-106441904D01*
X188796904Y-106203809D01*
X188749285Y-106108571D01*
X188701666Y-106060952D01*
X188606428Y-106013333D01*
X188415952Y-106013333D01*
X188320714Y-106060952D01*
X188273095Y-106108571D01*
X188225476Y-106203809D01*
X197935714Y-76532380D02*
X197935714Y-75532380D01*
X198173809Y-75532380D01*
X198316666Y-75580000D01*
X198411904Y-75675238D01*
X198459523Y-75770476D01*
X198507142Y-75960952D01*
X198507142Y-76103809D01*
X198459523Y-76294285D01*
X198411904Y-76389523D01*
X198316666Y-76484761D01*
X198173809Y-76532380D01*
X197935714Y-76532380D01*
X199459523Y-76532380D02*
X198888095Y-76532380D01*
X199173809Y-76532380D02*
X199173809Y-75532380D01*
X199078571Y-75675238D01*
X198983333Y-75770476D01*
X198888095Y-75818095D01*
X200316666Y-75865714D02*
X200316666Y-76532380D01*
X200078571Y-75484761D02*
X199840476Y-76199047D01*
X200459523Y-76199047D01*
X143085714Y-109382380D02*
X143085714Y-108382380D01*
X143323809Y-108382380D01*
X143466666Y-108430000D01*
X143561904Y-108525238D01*
X143609523Y-108620476D01*
X143657142Y-108810952D01*
X143657142Y-108953809D01*
X143609523Y-109144285D01*
X143561904Y-109239523D01*
X143466666Y-109334761D01*
X143323809Y-109382380D01*
X143085714Y-109382380D01*
X144561904Y-108382380D02*
X144085714Y-108382380D01*
X144038095Y-108858571D01*
X144085714Y-108810952D01*
X144180952Y-108763333D01*
X144419047Y-108763333D01*
X144514285Y-108810952D01*
X144561904Y-108858571D01*
X144609523Y-108953809D01*
X144609523Y-109191904D01*
X144561904Y-109287142D01*
X144514285Y-109334761D01*
X144419047Y-109382380D01*
X144180952Y-109382380D01*
X144085714Y-109334761D01*
X144038095Y-109287142D01*
X145228571Y-108382380D02*
X145323809Y-108382380D01*
X145419047Y-108430000D01*
X145466666Y-108477619D01*
X145514285Y-108572857D01*
X145561904Y-108763333D01*
X145561904Y-109001428D01*
X145514285Y-109191904D01*
X145466666Y-109287142D01*
X145419047Y-109334761D01*
X145323809Y-109382380D01*
X145228571Y-109382380D01*
X145133333Y-109334761D01*
X145085714Y-109287142D01*
X145038095Y-109191904D01*
X144990476Y-109001428D01*
X144990476Y-108763333D01*
X145038095Y-108572857D01*
X145085714Y-108477619D01*
X145133333Y-108430000D01*
X145228571Y-108382380D01*
X244859523Y-117632380D02*
X244859523Y-116632380D01*
X245097619Y-116632380D01*
X245240476Y-116680000D01*
X245335714Y-116775238D01*
X245383333Y-116870476D01*
X245430952Y-117060952D01*
X245430952Y-117203809D01*
X245383333Y-117394285D01*
X245335714Y-117489523D01*
X245240476Y-117584761D01*
X245097619Y-117632380D01*
X244859523Y-117632380D01*
X246383333Y-117632380D02*
X245811904Y-117632380D01*
X246097619Y-117632380D02*
X246097619Y-116632380D01*
X246002380Y-116775238D01*
X245907142Y-116870476D01*
X245811904Y-116918095D01*
X247240476Y-116965714D02*
X247240476Y-117632380D01*
X247002380Y-116584761D02*
X246764285Y-117299047D01*
X247383333Y-117299047D01*
X248288095Y-117632380D02*
X247716666Y-117632380D01*
X248002380Y-117632380D02*
X248002380Y-116632380D01*
X247907142Y-116775238D01*
X247811904Y-116870476D01*
X247716666Y-116918095D01*
X235585714Y-107632380D02*
X235585714Y-106632380D01*
X235823809Y-106632380D01*
X235966666Y-106680000D01*
X236061904Y-106775238D01*
X236109523Y-106870476D01*
X236157142Y-107060952D01*
X236157142Y-107203809D01*
X236109523Y-107394285D01*
X236061904Y-107489523D01*
X235966666Y-107584761D01*
X235823809Y-107632380D01*
X235585714Y-107632380D01*
X237014285Y-106965714D02*
X237014285Y-107632380D01*
X236776190Y-106584761D02*
X236538095Y-107299047D01*
X237157142Y-107299047D01*
X238014285Y-106632380D02*
X237538095Y-106632380D01*
X237490476Y-107108571D01*
X237538095Y-107060952D01*
X237633333Y-107013333D01*
X237871428Y-107013333D01*
X237966666Y-107060952D01*
X238014285Y-107108571D01*
X238061904Y-107203809D01*
X238061904Y-107441904D01*
X238014285Y-107537142D01*
X237966666Y-107584761D01*
X237871428Y-107632380D01*
X237633333Y-107632380D01*
X237538095Y-107584761D01*
X237490476Y-107537142D01*
X225335714Y-104132380D02*
X225335714Y-103132380D01*
X225573809Y-103132380D01*
X225716666Y-103180000D01*
X225811904Y-103275238D01*
X225859523Y-103370476D01*
X225907142Y-103560952D01*
X225907142Y-103703809D01*
X225859523Y-103894285D01*
X225811904Y-103989523D01*
X225716666Y-104084761D01*
X225573809Y-104132380D01*
X225335714Y-104132380D01*
X226288095Y-103227619D02*
X226335714Y-103180000D01*
X226430952Y-103132380D01*
X226669047Y-103132380D01*
X226764285Y-103180000D01*
X226811904Y-103227619D01*
X226859523Y-103322857D01*
X226859523Y-103418095D01*
X226811904Y-103560952D01*
X226240476Y-104132380D01*
X226859523Y-104132380D01*
X227430952Y-103560952D02*
X227335714Y-103513333D01*
X227288095Y-103465714D01*
X227240476Y-103370476D01*
X227240476Y-103322857D01*
X227288095Y-103227619D01*
X227335714Y-103180000D01*
X227430952Y-103132380D01*
X227621428Y-103132380D01*
X227716666Y-103180000D01*
X227764285Y-103227619D01*
X227811904Y-103322857D01*
X227811904Y-103370476D01*
X227764285Y-103465714D01*
X227716666Y-103513333D01*
X227621428Y-103560952D01*
X227430952Y-103560952D01*
X227335714Y-103608571D01*
X227288095Y-103656190D01*
X227240476Y-103751428D01*
X227240476Y-103941904D01*
X227288095Y-104037142D01*
X227335714Y-104084761D01*
X227430952Y-104132380D01*
X227621428Y-104132380D01*
X227716666Y-104084761D01*
X227764285Y-104037142D01*
X227811904Y-103941904D01*
X227811904Y-103751428D01*
X227764285Y-103656190D01*
X227716666Y-103608571D01*
X227621428Y-103560952D01*
X174253214Y-79732380D02*
X174253214Y-78732380D01*
X174491309Y-78732380D01*
X174634166Y-78780000D01*
X174729404Y-78875238D01*
X174777023Y-78970476D01*
X174824642Y-79160952D01*
X174824642Y-79303809D01*
X174777023Y-79494285D01*
X174729404Y-79589523D01*
X174634166Y-79684761D01*
X174491309Y-79732380D01*
X174253214Y-79732380D01*
X175681785Y-79065714D02*
X175681785Y-79732380D01*
X175443690Y-78684761D02*
X175205595Y-79399047D01*
X175824642Y-79399047D01*
X176348452Y-79160952D02*
X176253214Y-79113333D01*
X176205595Y-79065714D01*
X176157976Y-78970476D01*
X176157976Y-78922857D01*
X176205595Y-78827619D01*
X176253214Y-78780000D01*
X176348452Y-78732380D01*
X176538928Y-78732380D01*
X176634166Y-78780000D01*
X176681785Y-78827619D01*
X176729404Y-78922857D01*
X176729404Y-78970476D01*
X176681785Y-79065714D01*
X176634166Y-79113333D01*
X176538928Y-79160952D01*
X176348452Y-79160952D01*
X176253214Y-79208571D01*
X176205595Y-79256190D01*
X176157976Y-79351428D01*
X176157976Y-79541904D01*
X176205595Y-79637142D01*
X176253214Y-79684761D01*
X176348452Y-79732380D01*
X176538928Y-79732380D01*
X176634166Y-79684761D01*
X176681785Y-79637142D01*
X176729404Y-79541904D01*
X176729404Y-79351428D01*
X176681785Y-79256190D01*
X176634166Y-79208571D01*
X176538928Y-79160952D01*
X183874523Y-114882380D02*
X183874523Y-113882380D01*
X184112619Y-113882380D01*
X184255476Y-113930000D01*
X184350714Y-114025238D01*
X184398333Y-114120476D01*
X184445952Y-114310952D01*
X184445952Y-114453809D01*
X184398333Y-114644285D01*
X184350714Y-114739523D01*
X184255476Y-114834761D01*
X184112619Y-114882380D01*
X183874523Y-114882380D01*
X185398333Y-114882380D02*
X184826904Y-114882380D01*
X185112619Y-114882380D02*
X185112619Y-113882380D01*
X185017380Y-114025238D01*
X184922142Y-114120476D01*
X184826904Y-114168095D01*
X186350714Y-114882380D02*
X185779285Y-114882380D01*
X186065000Y-114882380D02*
X186065000Y-113882380D01*
X185969761Y-114025238D01*
X185874523Y-114120476D01*
X185779285Y-114168095D01*
X186826904Y-114882380D02*
X187017380Y-114882380D01*
X187112619Y-114834761D01*
X187160238Y-114787142D01*
X187255476Y-114644285D01*
X187303095Y-114453809D01*
X187303095Y-114072857D01*
X187255476Y-113977619D01*
X187207857Y-113930000D01*
X187112619Y-113882380D01*
X186922142Y-113882380D01*
X186826904Y-113930000D01*
X186779285Y-113977619D01*
X186731666Y-114072857D01*
X186731666Y-114310952D01*
X186779285Y-114406190D01*
X186826904Y-114453809D01*
X186922142Y-114501428D01*
X187112619Y-114501428D01*
X187207857Y-114453809D01*
X187255476Y-114406190D01*
X187303095Y-114310952D01*
X223570714Y-113132380D02*
X223570714Y-112132380D01*
X223808809Y-112132380D01*
X223951666Y-112180000D01*
X224046904Y-112275238D01*
X224094523Y-112370476D01*
X224142142Y-112560952D01*
X224142142Y-112703809D01*
X224094523Y-112894285D01*
X224046904Y-112989523D01*
X223951666Y-113084761D01*
X223808809Y-113132380D01*
X223570714Y-113132380D01*
X224475476Y-112132380D02*
X225142142Y-112132380D01*
X224713571Y-113132380D01*
X225999285Y-112132380D02*
X225523095Y-112132380D01*
X225475476Y-112608571D01*
X225523095Y-112560952D01*
X225618333Y-112513333D01*
X225856428Y-112513333D01*
X225951666Y-112560952D01*
X225999285Y-112608571D01*
X226046904Y-112703809D01*
X226046904Y-112941904D01*
X225999285Y-113037142D01*
X225951666Y-113084761D01*
X225856428Y-113132380D01*
X225618333Y-113132380D01*
X225523095Y-113084761D01*
X225475476Y-113037142D01*
X153335714Y-108132380D02*
X153335714Y-107132380D01*
X153573809Y-107132380D01*
X153716666Y-107180000D01*
X153811904Y-107275238D01*
X153859523Y-107370476D01*
X153907142Y-107560952D01*
X153907142Y-107703809D01*
X153859523Y-107894285D01*
X153811904Y-107989523D01*
X153716666Y-108084761D01*
X153573809Y-108132380D01*
X153335714Y-108132380D01*
X154764285Y-107132380D02*
X154573809Y-107132380D01*
X154478571Y-107180000D01*
X154430952Y-107227619D01*
X154335714Y-107370476D01*
X154288095Y-107560952D01*
X154288095Y-107941904D01*
X154335714Y-108037142D01*
X154383333Y-108084761D01*
X154478571Y-108132380D01*
X154669047Y-108132380D01*
X154764285Y-108084761D01*
X154811904Y-108037142D01*
X154859523Y-107941904D01*
X154859523Y-107703809D01*
X154811904Y-107608571D01*
X154764285Y-107560952D01*
X154669047Y-107513333D01*
X154478571Y-107513333D01*
X154383333Y-107560952D01*
X154335714Y-107608571D01*
X154288095Y-107703809D01*
X155192857Y-107132380D02*
X155859523Y-107132380D01*
X155430952Y-108132380D01*
X235820714Y-105632380D02*
X235820714Y-104632380D01*
X236058809Y-104632380D01*
X236201666Y-104680000D01*
X236296904Y-104775238D01*
X236344523Y-104870476D01*
X236392142Y-105060952D01*
X236392142Y-105203809D01*
X236344523Y-105394285D01*
X236296904Y-105489523D01*
X236201666Y-105584761D01*
X236058809Y-105632380D01*
X235820714Y-105632380D01*
X236773095Y-104727619D02*
X236820714Y-104680000D01*
X236915952Y-104632380D01*
X237154047Y-104632380D01*
X237249285Y-104680000D01*
X237296904Y-104727619D01*
X237344523Y-104822857D01*
X237344523Y-104918095D01*
X237296904Y-105060952D01*
X236725476Y-105632380D01*
X237344523Y-105632380D01*
X237820714Y-105632380D02*
X238011190Y-105632380D01*
X238106428Y-105584761D01*
X238154047Y-105537142D01*
X238249285Y-105394285D01*
X238296904Y-105203809D01*
X238296904Y-104822857D01*
X238249285Y-104727619D01*
X238201666Y-104680000D01*
X238106428Y-104632380D01*
X237915952Y-104632380D01*
X237820714Y-104680000D01*
X237773095Y-104727619D01*
X237725476Y-104822857D01*
X237725476Y-105060952D01*
X237773095Y-105156190D01*
X237820714Y-105203809D01*
X237915952Y-105251428D01*
X238106428Y-105251428D01*
X238201666Y-105203809D01*
X238249285Y-105156190D01*
X238296904Y-105060952D01*
X161233333Y-81867142D02*
X161185714Y-81914761D01*
X161042857Y-81962380D01*
X160947619Y-81962380D01*
X160804761Y-81914761D01*
X160709523Y-81819523D01*
X160661904Y-81724285D01*
X160614285Y-81533809D01*
X160614285Y-81390952D01*
X160661904Y-81200476D01*
X160709523Y-81105238D01*
X160804761Y-81010000D01*
X160947619Y-80962380D01*
X161042857Y-80962380D01*
X161185714Y-81010000D01*
X161233333Y-81057619D01*
X162185714Y-81962380D02*
X161614285Y-81962380D01*
X161900000Y-81962380D02*
X161900000Y-80962380D01*
X161804761Y-81105238D01*
X161709523Y-81200476D01*
X161614285Y-81248095D01*
X167335714Y-116722380D02*
X167335714Y-115722380D01*
X167573809Y-115722380D01*
X167716666Y-115770000D01*
X167811904Y-115865238D01*
X167859523Y-115960476D01*
X167907142Y-116150952D01*
X167907142Y-116293809D01*
X167859523Y-116484285D01*
X167811904Y-116579523D01*
X167716666Y-116674761D01*
X167573809Y-116722380D01*
X167335714Y-116722380D01*
X168764285Y-115722380D02*
X168573809Y-115722380D01*
X168478571Y-115770000D01*
X168430952Y-115817619D01*
X168335714Y-115960476D01*
X168288095Y-116150952D01*
X168288095Y-116531904D01*
X168335714Y-116627142D01*
X168383333Y-116674761D01*
X168478571Y-116722380D01*
X168669047Y-116722380D01*
X168764285Y-116674761D01*
X168811904Y-116627142D01*
X168859523Y-116531904D01*
X168859523Y-116293809D01*
X168811904Y-116198571D01*
X168764285Y-116150952D01*
X168669047Y-116103333D01*
X168478571Y-116103333D01*
X168383333Y-116150952D01*
X168335714Y-116198571D01*
X168288095Y-116293809D01*
X169335714Y-116722380D02*
X169526190Y-116722380D01*
X169621428Y-116674761D01*
X169669047Y-116627142D01*
X169764285Y-116484285D01*
X169811904Y-116293809D01*
X169811904Y-115912857D01*
X169764285Y-115817619D01*
X169716666Y-115770000D01*
X169621428Y-115722380D01*
X169430952Y-115722380D01*
X169335714Y-115770000D01*
X169288095Y-115817619D01*
X169240476Y-115912857D01*
X169240476Y-116150952D01*
X169288095Y-116246190D01*
X169335714Y-116293809D01*
X169430952Y-116341428D01*
X169621428Y-116341428D01*
X169716666Y-116293809D01*
X169764285Y-116246190D01*
X169811904Y-116150952D01*
X241359523Y-114382380D02*
X241359523Y-113382380D01*
X241597619Y-113382380D01*
X241740476Y-113430000D01*
X241835714Y-113525238D01*
X241883333Y-113620476D01*
X241930952Y-113810952D01*
X241930952Y-113953809D01*
X241883333Y-114144285D01*
X241835714Y-114239523D01*
X241740476Y-114334761D01*
X241597619Y-114382380D01*
X241359523Y-114382380D01*
X242883333Y-114382380D02*
X242311904Y-114382380D01*
X242597619Y-114382380D02*
X242597619Y-113382380D01*
X242502380Y-113525238D01*
X242407142Y-113620476D01*
X242311904Y-113668095D01*
X243502380Y-113382380D02*
X243597619Y-113382380D01*
X243692857Y-113430000D01*
X243740476Y-113477619D01*
X243788095Y-113572857D01*
X243835714Y-113763333D01*
X243835714Y-114001428D01*
X243788095Y-114191904D01*
X243740476Y-114287142D01*
X243692857Y-114334761D01*
X243597619Y-114382380D01*
X243502380Y-114382380D01*
X243407142Y-114334761D01*
X243359523Y-114287142D01*
X243311904Y-114191904D01*
X243264285Y-114001428D01*
X243264285Y-113763333D01*
X243311904Y-113572857D01*
X243359523Y-113477619D01*
X243407142Y-113430000D01*
X243502380Y-113382380D01*
X244311904Y-114382380D02*
X244502380Y-114382380D01*
X244597619Y-114334761D01*
X244645238Y-114287142D01*
X244740476Y-114144285D01*
X244788095Y-113953809D01*
X244788095Y-113572857D01*
X244740476Y-113477619D01*
X244692857Y-113430000D01*
X244597619Y-113382380D01*
X244407142Y-113382380D01*
X244311904Y-113430000D01*
X244264285Y-113477619D01*
X244216666Y-113572857D01*
X244216666Y-113810952D01*
X244264285Y-113906190D01*
X244311904Y-113953809D01*
X244407142Y-114001428D01*
X244597619Y-114001428D01*
X244692857Y-113953809D01*
X244740476Y-113906190D01*
X244788095Y-113810952D01*
X176594523Y-93382380D02*
X176594523Y-92382380D01*
X176832619Y-92382380D01*
X176975476Y-92430000D01*
X177070714Y-92525238D01*
X177118333Y-92620476D01*
X177165952Y-92810952D01*
X177165952Y-92953809D01*
X177118333Y-93144285D01*
X177070714Y-93239523D01*
X176975476Y-93334761D01*
X176832619Y-93382380D01*
X176594523Y-93382380D01*
X178118333Y-93382380D02*
X177546904Y-93382380D01*
X177832619Y-93382380D02*
X177832619Y-92382380D01*
X177737380Y-92525238D01*
X177642142Y-92620476D01*
X177546904Y-92668095D01*
X179070714Y-93382380D02*
X178499285Y-93382380D01*
X178785000Y-93382380D02*
X178785000Y-92382380D01*
X178689761Y-92525238D01*
X178594523Y-92620476D01*
X178499285Y-92668095D01*
X180023095Y-93382380D02*
X179451666Y-93382380D01*
X179737380Y-93382380D02*
X179737380Y-92382380D01*
X179642142Y-92525238D01*
X179546904Y-92620476D01*
X179451666Y-92668095D01*
X250100714Y-71632380D02*
X250100714Y-70632380D01*
X250338809Y-70632380D01*
X250481666Y-70680000D01*
X250576904Y-70775238D01*
X250624523Y-70870476D01*
X250672142Y-71060952D01*
X250672142Y-71203809D01*
X250624523Y-71394285D01*
X250576904Y-71489523D01*
X250481666Y-71584761D01*
X250338809Y-71632380D01*
X250100714Y-71632380D01*
X251148333Y-71632380D02*
X251338809Y-71632380D01*
X251434047Y-71584761D01*
X251481666Y-71537142D01*
X251576904Y-71394285D01*
X251624523Y-71203809D01*
X251624523Y-70822857D01*
X251576904Y-70727619D01*
X251529285Y-70680000D01*
X251434047Y-70632380D01*
X251243571Y-70632380D01*
X251148333Y-70680000D01*
X251100714Y-70727619D01*
X251053095Y-70822857D01*
X251053095Y-71060952D01*
X251100714Y-71156190D01*
X251148333Y-71203809D01*
X251243571Y-71251428D01*
X251434047Y-71251428D01*
X251529285Y-71203809D01*
X251576904Y-71156190D01*
X251624523Y-71060952D01*
X252481666Y-70965714D02*
X252481666Y-71632380D01*
X252243571Y-70584761D02*
X252005476Y-71299047D01*
X252624523Y-71299047D01*
X135100714Y-110722380D02*
X135100714Y-109722380D01*
X135338809Y-109722380D01*
X135481666Y-109770000D01*
X135576904Y-109865238D01*
X135624523Y-109960476D01*
X135672142Y-110150952D01*
X135672142Y-110293809D01*
X135624523Y-110484285D01*
X135576904Y-110579523D01*
X135481666Y-110674761D01*
X135338809Y-110722380D01*
X135100714Y-110722380D01*
X136529285Y-110055714D02*
X136529285Y-110722380D01*
X136291190Y-109674761D02*
X136053095Y-110389047D01*
X136672142Y-110389047D01*
X137100714Y-110722380D02*
X137291190Y-110722380D01*
X137386428Y-110674761D01*
X137434047Y-110627142D01*
X137529285Y-110484285D01*
X137576904Y-110293809D01*
X137576904Y-109912857D01*
X137529285Y-109817619D01*
X137481666Y-109770000D01*
X137386428Y-109722380D01*
X137195952Y-109722380D01*
X137100714Y-109770000D01*
X137053095Y-109817619D01*
X137005476Y-109912857D01*
X137005476Y-110150952D01*
X137053095Y-110246190D01*
X137100714Y-110293809D01*
X137195952Y-110341428D01*
X137386428Y-110341428D01*
X137481666Y-110293809D01*
X137529285Y-110246190D01*
X137576904Y-110150952D01*
X167320714Y-109632380D02*
X167320714Y-108632380D01*
X167558809Y-108632380D01*
X167701666Y-108680000D01*
X167796904Y-108775238D01*
X167844523Y-108870476D01*
X167892142Y-109060952D01*
X167892142Y-109203809D01*
X167844523Y-109394285D01*
X167796904Y-109489523D01*
X167701666Y-109584761D01*
X167558809Y-109632380D01*
X167320714Y-109632380D01*
X168225476Y-108632380D02*
X168844523Y-108632380D01*
X168511190Y-109013333D01*
X168654047Y-109013333D01*
X168749285Y-109060952D01*
X168796904Y-109108571D01*
X168844523Y-109203809D01*
X168844523Y-109441904D01*
X168796904Y-109537142D01*
X168749285Y-109584761D01*
X168654047Y-109632380D01*
X168368333Y-109632380D01*
X168273095Y-109584761D01*
X168225476Y-109537142D01*
X169177857Y-108632380D02*
X169844523Y-108632380D01*
X169415952Y-109632380D01*
X211335714Y-107882380D02*
X211335714Y-106882380D01*
X211573809Y-106882380D01*
X211716666Y-106930000D01*
X211811904Y-107025238D01*
X211859523Y-107120476D01*
X211907142Y-107310952D01*
X211907142Y-107453809D01*
X211859523Y-107644285D01*
X211811904Y-107739523D01*
X211716666Y-107834761D01*
X211573809Y-107882380D01*
X211335714Y-107882380D01*
X212240476Y-106882380D02*
X212907142Y-106882380D01*
X212478571Y-107882380D01*
X213716666Y-107215714D02*
X213716666Y-107882380D01*
X213478571Y-106834761D02*
X213240476Y-107549047D01*
X213859523Y-107549047D01*
X191335714Y-91382380D02*
X191335714Y-90382380D01*
X191573809Y-90382380D01*
X191716666Y-90430000D01*
X191811904Y-90525238D01*
X191859523Y-90620476D01*
X191907142Y-90810952D01*
X191907142Y-90953809D01*
X191859523Y-91144285D01*
X191811904Y-91239523D01*
X191716666Y-91334761D01*
X191573809Y-91382380D01*
X191335714Y-91382380D01*
X192764285Y-90382380D02*
X192573809Y-90382380D01*
X192478571Y-90430000D01*
X192430952Y-90477619D01*
X192335714Y-90620476D01*
X192288095Y-90810952D01*
X192288095Y-91191904D01*
X192335714Y-91287142D01*
X192383333Y-91334761D01*
X192478571Y-91382380D01*
X192669047Y-91382380D01*
X192764285Y-91334761D01*
X192811904Y-91287142D01*
X192859523Y-91191904D01*
X192859523Y-90953809D01*
X192811904Y-90858571D01*
X192764285Y-90810952D01*
X192669047Y-90763333D01*
X192478571Y-90763333D01*
X192383333Y-90810952D01*
X192335714Y-90858571D01*
X192288095Y-90953809D01*
X193192857Y-90382380D02*
X193811904Y-90382380D01*
X193478571Y-90763333D01*
X193621428Y-90763333D01*
X193716666Y-90810952D01*
X193764285Y-90858571D01*
X193811904Y-90953809D01*
X193811904Y-91191904D01*
X193764285Y-91287142D01*
X193716666Y-91334761D01*
X193621428Y-91382380D01*
X193335714Y-91382380D01*
X193240476Y-91334761D01*
X193192857Y-91287142D01*
X181359523Y-123382380D02*
X181359523Y-122382380D01*
X181597619Y-122382380D01*
X181740476Y-122430000D01*
X181835714Y-122525238D01*
X181883333Y-122620476D01*
X181930952Y-122810952D01*
X181930952Y-122953809D01*
X181883333Y-123144285D01*
X181835714Y-123239523D01*
X181740476Y-123334761D01*
X181597619Y-123382380D01*
X181359523Y-123382380D01*
X182883333Y-123382380D02*
X182311904Y-123382380D01*
X182597619Y-123382380D02*
X182597619Y-122382380D01*
X182502380Y-122525238D01*
X182407142Y-122620476D01*
X182311904Y-122668095D01*
X183216666Y-122382380D02*
X183835714Y-122382380D01*
X183502380Y-122763333D01*
X183645238Y-122763333D01*
X183740476Y-122810952D01*
X183788095Y-122858571D01*
X183835714Y-122953809D01*
X183835714Y-123191904D01*
X183788095Y-123287142D01*
X183740476Y-123334761D01*
X183645238Y-123382380D01*
X183359523Y-123382380D01*
X183264285Y-123334761D01*
X183216666Y-123287142D01*
X184692857Y-122715714D02*
X184692857Y-123382380D01*
X184454761Y-122334761D02*
X184216666Y-123049047D01*
X184835714Y-123049047D01*
X166585714Y-107132380D02*
X166585714Y-106132380D01*
X166823809Y-106132380D01*
X166966666Y-106180000D01*
X167061904Y-106275238D01*
X167109523Y-106370476D01*
X167157142Y-106560952D01*
X167157142Y-106703809D01*
X167109523Y-106894285D01*
X167061904Y-106989523D01*
X166966666Y-107084761D01*
X166823809Y-107132380D01*
X166585714Y-107132380D01*
X167538095Y-106227619D02*
X167585714Y-106180000D01*
X167680952Y-106132380D01*
X167919047Y-106132380D01*
X168014285Y-106180000D01*
X168061904Y-106227619D01*
X168109523Y-106322857D01*
X168109523Y-106418095D01*
X168061904Y-106560952D01*
X167490476Y-107132380D01*
X168109523Y-107132380D01*
X169061904Y-107132380D02*
X168490476Y-107132380D01*
X168776190Y-107132380D02*
X168776190Y-106132380D01*
X168680952Y-106275238D01*
X168585714Y-106370476D01*
X168490476Y-106418095D01*
X158600714Y-105132380D02*
X158600714Y-104132380D01*
X158838809Y-104132380D01*
X158981666Y-104180000D01*
X159076904Y-104275238D01*
X159124523Y-104370476D01*
X159172142Y-104560952D01*
X159172142Y-104703809D01*
X159124523Y-104894285D01*
X159076904Y-104989523D01*
X158981666Y-105084761D01*
X158838809Y-105132380D01*
X158600714Y-105132380D01*
X159553095Y-104227619D02*
X159600714Y-104180000D01*
X159695952Y-104132380D01*
X159934047Y-104132380D01*
X160029285Y-104180000D01*
X160076904Y-104227619D01*
X160124523Y-104322857D01*
X160124523Y-104418095D01*
X160076904Y-104560952D01*
X159505476Y-105132380D01*
X160124523Y-105132380D01*
X160743571Y-104132380D02*
X160838809Y-104132380D01*
X160934047Y-104180000D01*
X160981666Y-104227619D01*
X161029285Y-104322857D01*
X161076904Y-104513333D01*
X161076904Y-104751428D01*
X161029285Y-104941904D01*
X160981666Y-105037142D01*
X160934047Y-105084761D01*
X160838809Y-105132380D01*
X160743571Y-105132380D01*
X160648333Y-105084761D01*
X160600714Y-105037142D01*
X160553095Y-104941904D01*
X160505476Y-104751428D01*
X160505476Y-104513333D01*
X160553095Y-104322857D01*
X160600714Y-104227619D01*
X160648333Y-104180000D01*
X160743571Y-104132380D01*
X180835714Y-111882380D02*
X180835714Y-110882380D01*
X181073809Y-110882380D01*
X181216666Y-110930000D01*
X181311904Y-111025238D01*
X181359523Y-111120476D01*
X181407142Y-111310952D01*
X181407142Y-111453809D01*
X181359523Y-111644285D01*
X181311904Y-111739523D01*
X181216666Y-111834761D01*
X181073809Y-111882380D01*
X180835714Y-111882380D01*
X181978571Y-111310952D02*
X181883333Y-111263333D01*
X181835714Y-111215714D01*
X181788095Y-111120476D01*
X181788095Y-111072857D01*
X181835714Y-110977619D01*
X181883333Y-110930000D01*
X181978571Y-110882380D01*
X182169047Y-110882380D01*
X182264285Y-110930000D01*
X182311904Y-110977619D01*
X182359523Y-111072857D01*
X182359523Y-111120476D01*
X182311904Y-111215714D01*
X182264285Y-111263333D01*
X182169047Y-111310952D01*
X181978571Y-111310952D01*
X181883333Y-111358571D01*
X181835714Y-111406190D01*
X181788095Y-111501428D01*
X181788095Y-111691904D01*
X181835714Y-111787142D01*
X181883333Y-111834761D01*
X181978571Y-111882380D01*
X182169047Y-111882380D01*
X182264285Y-111834761D01*
X182311904Y-111787142D01*
X182359523Y-111691904D01*
X182359523Y-111501428D01*
X182311904Y-111406190D01*
X182264285Y-111358571D01*
X182169047Y-111310952D01*
X182692857Y-110882380D02*
X183359523Y-110882380D01*
X182930952Y-111882380D01*
X159632380Y-89091666D02*
X159156190Y-89425000D01*
X159632380Y-89663095D02*
X158632380Y-89663095D01*
X158632380Y-89282142D01*
X158680000Y-89186904D01*
X158727619Y-89139285D01*
X158822857Y-89091666D01*
X158965714Y-89091666D01*
X159060952Y-89139285D01*
X159108571Y-89186904D01*
X159156190Y-89282142D01*
X159156190Y-89663095D01*
X158632380Y-88758333D02*
X158632380Y-88139285D01*
X159013333Y-88472619D01*
X159013333Y-88329761D01*
X159060952Y-88234523D01*
X159108571Y-88186904D01*
X159203809Y-88139285D01*
X159441904Y-88139285D01*
X159537142Y-88186904D01*
X159584761Y-88234523D01*
X159632380Y-88329761D01*
X159632380Y-88615476D01*
X159584761Y-88710714D01*
X159537142Y-88758333D01*
X154085714Y-111882380D02*
X154085714Y-110882380D01*
X154323809Y-110882380D01*
X154466666Y-110930000D01*
X154561904Y-111025238D01*
X154609523Y-111120476D01*
X154657142Y-111310952D01*
X154657142Y-111453809D01*
X154609523Y-111644285D01*
X154561904Y-111739523D01*
X154466666Y-111834761D01*
X154323809Y-111882380D01*
X154085714Y-111882380D01*
X155133333Y-111882380D02*
X155323809Y-111882380D01*
X155419047Y-111834761D01*
X155466666Y-111787142D01*
X155561904Y-111644285D01*
X155609523Y-111453809D01*
X155609523Y-111072857D01*
X155561904Y-110977619D01*
X155514285Y-110930000D01*
X155419047Y-110882380D01*
X155228571Y-110882380D01*
X155133333Y-110930000D01*
X155085714Y-110977619D01*
X155038095Y-111072857D01*
X155038095Y-111310952D01*
X155085714Y-111406190D01*
X155133333Y-111453809D01*
X155228571Y-111501428D01*
X155419047Y-111501428D01*
X155514285Y-111453809D01*
X155561904Y-111406190D01*
X155609523Y-111310952D01*
X156085714Y-111882380D02*
X156276190Y-111882380D01*
X156371428Y-111834761D01*
X156419047Y-111787142D01*
X156514285Y-111644285D01*
X156561904Y-111453809D01*
X156561904Y-111072857D01*
X156514285Y-110977619D01*
X156466666Y-110930000D01*
X156371428Y-110882380D01*
X156180952Y-110882380D01*
X156085714Y-110930000D01*
X156038095Y-110977619D01*
X155990476Y-111072857D01*
X155990476Y-111310952D01*
X156038095Y-111406190D01*
X156085714Y-111453809D01*
X156180952Y-111501428D01*
X156371428Y-111501428D01*
X156466666Y-111453809D01*
X156514285Y-111406190D01*
X156561904Y-111310952D01*
X169311904Y-103882380D02*
X169311904Y-102882380D01*
X169550000Y-102882380D01*
X169692857Y-102930000D01*
X169788095Y-103025238D01*
X169835714Y-103120476D01*
X169883333Y-103310952D01*
X169883333Y-103453809D01*
X169835714Y-103644285D01*
X169788095Y-103739523D01*
X169692857Y-103834761D01*
X169550000Y-103882380D01*
X169311904Y-103882380D01*
X170740476Y-102882380D02*
X170550000Y-102882380D01*
X170454761Y-102930000D01*
X170407142Y-102977619D01*
X170311904Y-103120476D01*
X170264285Y-103310952D01*
X170264285Y-103691904D01*
X170311904Y-103787142D01*
X170359523Y-103834761D01*
X170454761Y-103882380D01*
X170645238Y-103882380D01*
X170740476Y-103834761D01*
X170788095Y-103787142D01*
X170835714Y-103691904D01*
X170835714Y-103453809D01*
X170788095Y-103358571D01*
X170740476Y-103310952D01*
X170645238Y-103263333D01*
X170454761Y-103263333D01*
X170359523Y-103310952D01*
X170311904Y-103358571D01*
X170264285Y-103453809D01*
X199094523Y-110382380D02*
X199094523Y-109382380D01*
X199332619Y-109382380D01*
X199475476Y-109430000D01*
X199570714Y-109525238D01*
X199618333Y-109620476D01*
X199665952Y-109810952D01*
X199665952Y-109953809D01*
X199618333Y-110144285D01*
X199570714Y-110239523D01*
X199475476Y-110334761D01*
X199332619Y-110382380D01*
X199094523Y-110382380D01*
X200618333Y-110382380D02*
X200046904Y-110382380D01*
X200332619Y-110382380D02*
X200332619Y-109382380D01*
X200237380Y-109525238D01*
X200142142Y-109620476D01*
X200046904Y-109668095D01*
X201237380Y-109382380D02*
X201332619Y-109382380D01*
X201427857Y-109430000D01*
X201475476Y-109477619D01*
X201523095Y-109572857D01*
X201570714Y-109763333D01*
X201570714Y-110001428D01*
X201523095Y-110191904D01*
X201475476Y-110287142D01*
X201427857Y-110334761D01*
X201332619Y-110382380D01*
X201237380Y-110382380D01*
X201142142Y-110334761D01*
X201094523Y-110287142D01*
X201046904Y-110191904D01*
X200999285Y-110001428D01*
X200999285Y-109763333D01*
X201046904Y-109572857D01*
X201094523Y-109477619D01*
X201142142Y-109430000D01*
X201237380Y-109382380D01*
X202475476Y-109382380D02*
X201999285Y-109382380D01*
X201951666Y-109858571D01*
X201999285Y-109810952D01*
X202094523Y-109763333D01*
X202332619Y-109763333D01*
X202427857Y-109810952D01*
X202475476Y-109858571D01*
X202523095Y-109953809D01*
X202523095Y-110191904D01*
X202475476Y-110287142D01*
X202427857Y-110334761D01*
X202332619Y-110382380D01*
X202094523Y-110382380D01*
X201999285Y-110334761D01*
X201951666Y-110287142D01*
X225600714Y-108632380D02*
X225600714Y-107632380D01*
X225838809Y-107632380D01*
X225981666Y-107680000D01*
X226076904Y-107775238D01*
X226124523Y-107870476D01*
X226172142Y-108060952D01*
X226172142Y-108203809D01*
X226124523Y-108394285D01*
X226076904Y-108489523D01*
X225981666Y-108584761D01*
X225838809Y-108632380D01*
X225600714Y-108632380D01*
X227029285Y-107632380D02*
X226838809Y-107632380D01*
X226743571Y-107680000D01*
X226695952Y-107727619D01*
X226600714Y-107870476D01*
X226553095Y-108060952D01*
X226553095Y-108441904D01*
X226600714Y-108537142D01*
X226648333Y-108584761D01*
X226743571Y-108632380D01*
X226934047Y-108632380D01*
X227029285Y-108584761D01*
X227076904Y-108537142D01*
X227124523Y-108441904D01*
X227124523Y-108203809D01*
X227076904Y-108108571D01*
X227029285Y-108060952D01*
X226934047Y-108013333D01*
X226743571Y-108013333D01*
X226648333Y-108060952D01*
X226600714Y-108108571D01*
X226553095Y-108203809D01*
X227743571Y-107632380D02*
X227838809Y-107632380D01*
X227934047Y-107680000D01*
X227981666Y-107727619D01*
X228029285Y-107822857D01*
X228076904Y-108013333D01*
X228076904Y-108251428D01*
X228029285Y-108441904D01*
X227981666Y-108537142D01*
X227934047Y-108584761D01*
X227838809Y-108632380D01*
X227743571Y-108632380D01*
X227648333Y-108584761D01*
X227600714Y-108537142D01*
X227553095Y-108441904D01*
X227505476Y-108251428D01*
X227505476Y-108013333D01*
X227553095Y-107822857D01*
X227600714Y-107727619D01*
X227648333Y-107680000D01*
X227743571Y-107632380D01*
X153835714Y-106382380D02*
X153835714Y-105382380D01*
X154073809Y-105382380D01*
X154216666Y-105430000D01*
X154311904Y-105525238D01*
X154359523Y-105620476D01*
X154407142Y-105810952D01*
X154407142Y-105953809D01*
X154359523Y-106144285D01*
X154311904Y-106239523D01*
X154216666Y-106334761D01*
X154073809Y-106382380D01*
X153835714Y-106382380D01*
X155311904Y-105382380D02*
X154835714Y-105382380D01*
X154788095Y-105858571D01*
X154835714Y-105810952D01*
X154930952Y-105763333D01*
X155169047Y-105763333D01*
X155264285Y-105810952D01*
X155311904Y-105858571D01*
X155359523Y-105953809D01*
X155359523Y-106191904D01*
X155311904Y-106287142D01*
X155264285Y-106334761D01*
X155169047Y-106382380D01*
X154930952Y-106382380D01*
X154835714Y-106334761D01*
X154788095Y-106287142D01*
X156311904Y-106382380D02*
X155740476Y-106382380D01*
X156026190Y-106382380D02*
X156026190Y-105382380D01*
X155930952Y-105525238D01*
X155835714Y-105620476D01*
X155740476Y-105668095D01*
X214674523Y-84582380D02*
X214674523Y-83582380D01*
X214912619Y-83582380D01*
X215055476Y-83630000D01*
X215150714Y-83725238D01*
X215198333Y-83820476D01*
X215245952Y-84010952D01*
X215245952Y-84153809D01*
X215198333Y-84344285D01*
X215150714Y-84439523D01*
X215055476Y-84534761D01*
X214912619Y-84582380D01*
X214674523Y-84582380D01*
X216198333Y-84582380D02*
X215626904Y-84582380D01*
X215912619Y-84582380D02*
X215912619Y-83582380D01*
X215817380Y-83725238D01*
X215722142Y-83820476D01*
X215626904Y-83868095D01*
X217055476Y-83915714D02*
X217055476Y-84582380D01*
X216817380Y-83534761D02*
X216579285Y-84249047D01*
X217198333Y-84249047D01*
X217531666Y-83677619D02*
X217579285Y-83630000D01*
X217674523Y-83582380D01*
X217912619Y-83582380D01*
X218007857Y-83630000D01*
X218055476Y-83677619D01*
X218103095Y-83772857D01*
X218103095Y-83868095D01*
X218055476Y-84010952D01*
X217484047Y-84582380D01*
X218103095Y-84582380D01*
X177820714Y-109132380D02*
X177820714Y-108132380D01*
X178058809Y-108132380D01*
X178201666Y-108180000D01*
X178296904Y-108275238D01*
X178344523Y-108370476D01*
X178392142Y-108560952D01*
X178392142Y-108703809D01*
X178344523Y-108894285D01*
X178296904Y-108989523D01*
X178201666Y-109084761D01*
X178058809Y-109132380D01*
X177820714Y-109132380D01*
X178725476Y-108132380D02*
X179392142Y-108132380D01*
X178963571Y-109132380D01*
X180296904Y-109132380D02*
X179725476Y-109132380D01*
X180011190Y-109132380D02*
X180011190Y-108132380D01*
X179915952Y-108275238D01*
X179820714Y-108370476D01*
X179725476Y-108418095D01*
X233124523Y-94382380D02*
X233124523Y-93382380D01*
X233362619Y-93382380D01*
X233505476Y-93430000D01*
X233600714Y-93525238D01*
X233648333Y-93620476D01*
X233695952Y-93810952D01*
X233695952Y-93953809D01*
X233648333Y-94144285D01*
X233600714Y-94239523D01*
X233505476Y-94334761D01*
X233362619Y-94382380D01*
X233124523Y-94382380D01*
X234648333Y-94382380D02*
X234076904Y-94382380D01*
X234362619Y-94382380D02*
X234362619Y-93382380D01*
X234267380Y-93525238D01*
X234172142Y-93620476D01*
X234076904Y-93668095D01*
X235029285Y-93477619D02*
X235076904Y-93430000D01*
X235172142Y-93382380D01*
X235410238Y-93382380D01*
X235505476Y-93430000D01*
X235553095Y-93477619D01*
X235600714Y-93572857D01*
X235600714Y-93668095D01*
X235553095Y-93810952D01*
X234981666Y-94382380D01*
X235600714Y-94382380D01*
X236457857Y-93382380D02*
X236267380Y-93382380D01*
X236172142Y-93430000D01*
X236124523Y-93477619D01*
X236029285Y-93620476D01*
X235981666Y-93810952D01*
X235981666Y-94191904D01*
X236029285Y-94287142D01*
X236076904Y-94334761D01*
X236172142Y-94382380D01*
X236362619Y-94382380D01*
X236457857Y-94334761D01*
X236505476Y-94287142D01*
X236553095Y-94191904D01*
X236553095Y-93953809D01*
X236505476Y-93858571D01*
X236457857Y-93810952D01*
X236362619Y-93763333D01*
X236172142Y-93763333D01*
X236076904Y-93810952D01*
X236029285Y-93858571D01*
X235981666Y-93953809D01*
X174085714Y-107632380D02*
X174085714Y-106632380D01*
X174323809Y-106632380D01*
X174466666Y-106680000D01*
X174561904Y-106775238D01*
X174609523Y-106870476D01*
X174657142Y-107060952D01*
X174657142Y-107203809D01*
X174609523Y-107394285D01*
X174561904Y-107489523D01*
X174466666Y-107584761D01*
X174323809Y-107632380D01*
X174085714Y-107632380D01*
X175561904Y-106632380D02*
X175085714Y-106632380D01*
X175038095Y-107108571D01*
X175085714Y-107060952D01*
X175180952Y-107013333D01*
X175419047Y-107013333D01*
X175514285Y-107060952D01*
X175561904Y-107108571D01*
X175609523Y-107203809D01*
X175609523Y-107441904D01*
X175561904Y-107537142D01*
X175514285Y-107584761D01*
X175419047Y-107632380D01*
X175180952Y-107632380D01*
X175085714Y-107584761D01*
X175038095Y-107537142D01*
X176466666Y-106965714D02*
X176466666Y-107632380D01*
X176228571Y-106584761D02*
X175990476Y-107299047D01*
X176609523Y-107299047D01*
X227335714Y-106882380D02*
X227335714Y-105882380D01*
X227573809Y-105882380D01*
X227716666Y-105930000D01*
X227811904Y-106025238D01*
X227859523Y-106120476D01*
X227907142Y-106310952D01*
X227907142Y-106453809D01*
X227859523Y-106644285D01*
X227811904Y-106739523D01*
X227716666Y-106834761D01*
X227573809Y-106882380D01*
X227335714Y-106882380D01*
X228240476Y-105882380D02*
X228907142Y-105882380D01*
X228478571Y-106882380D01*
X229716666Y-105882380D02*
X229526190Y-105882380D01*
X229430952Y-105930000D01*
X229383333Y-105977619D01*
X229288095Y-106120476D01*
X229240476Y-106310952D01*
X229240476Y-106691904D01*
X229288095Y-106787142D01*
X229335714Y-106834761D01*
X229430952Y-106882380D01*
X229621428Y-106882380D01*
X229716666Y-106834761D01*
X229764285Y-106787142D01*
X229811904Y-106691904D01*
X229811904Y-106453809D01*
X229764285Y-106358571D01*
X229716666Y-106310952D01*
X229621428Y-106263333D01*
X229430952Y-106263333D01*
X229335714Y-106310952D01*
X229288095Y-106358571D01*
X229240476Y-106453809D01*
X141985714Y-85072380D02*
X141985714Y-84072380D01*
X142223809Y-84072380D01*
X142366666Y-84120000D01*
X142461904Y-84215238D01*
X142509523Y-84310476D01*
X142557142Y-84500952D01*
X142557142Y-84643809D01*
X142509523Y-84834285D01*
X142461904Y-84929523D01*
X142366666Y-85024761D01*
X142223809Y-85072380D01*
X141985714Y-85072380D01*
X143414285Y-84072380D02*
X143223809Y-84072380D01*
X143128571Y-84120000D01*
X143080952Y-84167619D01*
X142985714Y-84310476D01*
X142938095Y-84500952D01*
X142938095Y-84881904D01*
X142985714Y-84977142D01*
X143033333Y-85024761D01*
X143128571Y-85072380D01*
X143319047Y-85072380D01*
X143414285Y-85024761D01*
X143461904Y-84977142D01*
X143509523Y-84881904D01*
X143509523Y-84643809D01*
X143461904Y-84548571D01*
X143414285Y-84500952D01*
X143319047Y-84453333D01*
X143128571Y-84453333D01*
X143033333Y-84500952D01*
X142985714Y-84548571D01*
X142938095Y-84643809D01*
X144366666Y-84405714D02*
X144366666Y-85072380D01*
X144128571Y-84024761D02*
X143890476Y-84739047D01*
X144509523Y-84739047D01*
X179085714Y-107132380D02*
X179085714Y-106132380D01*
X179323809Y-106132380D01*
X179466666Y-106180000D01*
X179561904Y-106275238D01*
X179609523Y-106370476D01*
X179657142Y-106560952D01*
X179657142Y-106703809D01*
X179609523Y-106894285D01*
X179561904Y-106989523D01*
X179466666Y-107084761D01*
X179323809Y-107132380D01*
X179085714Y-107132380D01*
X180561904Y-106132380D02*
X180085714Y-106132380D01*
X180038095Y-106608571D01*
X180085714Y-106560952D01*
X180180952Y-106513333D01*
X180419047Y-106513333D01*
X180514285Y-106560952D01*
X180561904Y-106608571D01*
X180609523Y-106703809D01*
X180609523Y-106941904D01*
X180561904Y-107037142D01*
X180514285Y-107084761D01*
X180419047Y-107132380D01*
X180180952Y-107132380D01*
X180085714Y-107084761D01*
X180038095Y-107037142D01*
X181514285Y-106132380D02*
X181038095Y-106132380D01*
X180990476Y-106608571D01*
X181038095Y-106560952D01*
X181133333Y-106513333D01*
X181371428Y-106513333D01*
X181466666Y-106560952D01*
X181514285Y-106608571D01*
X181561904Y-106703809D01*
X181561904Y-106941904D01*
X181514285Y-107037142D01*
X181466666Y-107084761D01*
X181371428Y-107132380D01*
X181133333Y-107132380D01*
X181038095Y-107084761D01*
X180990476Y-107037142D01*
X144561904Y-105882380D02*
X144561904Y-104882380D01*
X144800000Y-104882380D01*
X144942857Y-104930000D01*
X145038095Y-105025238D01*
X145085714Y-105120476D01*
X145133333Y-105310952D01*
X145133333Y-105453809D01*
X145085714Y-105644285D01*
X145038095Y-105739523D01*
X144942857Y-105834761D01*
X144800000Y-105882380D01*
X144561904Y-105882380D01*
X145466666Y-104882380D02*
X146085714Y-104882380D01*
X145752380Y-105263333D01*
X145895238Y-105263333D01*
X145990476Y-105310952D01*
X146038095Y-105358571D01*
X146085714Y-105453809D01*
X146085714Y-105691904D01*
X146038095Y-105787142D01*
X145990476Y-105834761D01*
X145895238Y-105882380D01*
X145609523Y-105882380D01*
X145514285Y-105834761D01*
X145466666Y-105787142D01*
X222585714Y-114632380D02*
X222585714Y-113632380D01*
X222823809Y-113632380D01*
X222966666Y-113680000D01*
X223061904Y-113775238D01*
X223109523Y-113870476D01*
X223157142Y-114060952D01*
X223157142Y-114203809D01*
X223109523Y-114394285D01*
X223061904Y-114489523D01*
X222966666Y-114584761D01*
X222823809Y-114632380D01*
X222585714Y-114632380D01*
X223633333Y-114632380D02*
X223823809Y-114632380D01*
X223919047Y-114584761D01*
X223966666Y-114537142D01*
X224061904Y-114394285D01*
X224109523Y-114203809D01*
X224109523Y-113822857D01*
X224061904Y-113727619D01*
X224014285Y-113680000D01*
X223919047Y-113632380D01*
X223728571Y-113632380D01*
X223633333Y-113680000D01*
X223585714Y-113727619D01*
X223538095Y-113822857D01*
X223538095Y-114060952D01*
X223585714Y-114156190D01*
X223633333Y-114203809D01*
X223728571Y-114251428D01*
X223919047Y-114251428D01*
X224014285Y-114203809D01*
X224061904Y-114156190D01*
X224109523Y-114060952D01*
X225061904Y-114632380D02*
X224490476Y-114632380D01*
X224776190Y-114632380D02*
X224776190Y-113632380D01*
X224680952Y-113775238D01*
X224585714Y-113870476D01*
X224490476Y-113918095D01*
X227772380Y-64429166D02*
X227296190Y-64762500D01*
X227772380Y-65000595D02*
X226772380Y-65000595D01*
X226772380Y-64619642D01*
X226820000Y-64524404D01*
X226867619Y-64476785D01*
X226962857Y-64429166D01*
X227105714Y-64429166D01*
X227200952Y-64476785D01*
X227248571Y-64524404D01*
X227296190Y-64619642D01*
X227296190Y-65000595D01*
X226772380Y-63524404D02*
X226772380Y-64000595D01*
X227248571Y-64048214D01*
X227200952Y-64000595D01*
X227153333Y-63905357D01*
X227153333Y-63667261D01*
X227200952Y-63572023D01*
X227248571Y-63524404D01*
X227343809Y-63476785D01*
X227581904Y-63476785D01*
X227677142Y-63524404D01*
X227724761Y-63572023D01*
X227772380Y-63667261D01*
X227772380Y-63905357D01*
X227724761Y-64000595D01*
X227677142Y-64048214D01*
X132609523Y-118222380D02*
X132609523Y-117222380D01*
X132847619Y-117222380D01*
X132990476Y-117270000D01*
X133085714Y-117365238D01*
X133133333Y-117460476D01*
X133180952Y-117650952D01*
X133180952Y-117793809D01*
X133133333Y-117984285D01*
X133085714Y-118079523D01*
X132990476Y-118174761D01*
X132847619Y-118222380D01*
X132609523Y-118222380D01*
X134133333Y-118222380D02*
X133561904Y-118222380D01*
X133847619Y-118222380D02*
X133847619Y-117222380D01*
X133752380Y-117365238D01*
X133657142Y-117460476D01*
X133561904Y-117508095D01*
X135085714Y-118222380D02*
X134514285Y-118222380D01*
X134800000Y-118222380D02*
X134800000Y-117222380D01*
X134704761Y-117365238D01*
X134609523Y-117460476D01*
X134514285Y-117508095D01*
X135419047Y-117222380D02*
X136038095Y-117222380D01*
X135704761Y-117603333D01*
X135847619Y-117603333D01*
X135942857Y-117650952D01*
X135990476Y-117698571D01*
X136038095Y-117793809D01*
X136038095Y-118031904D01*
X135990476Y-118127142D01*
X135942857Y-118174761D01*
X135847619Y-118222380D01*
X135561904Y-118222380D01*
X135466666Y-118174761D01*
X135419047Y-118127142D01*
X224922380Y-64429166D02*
X224446190Y-64762500D01*
X224922380Y-65000595D02*
X223922380Y-65000595D01*
X223922380Y-64619642D01*
X223970000Y-64524404D01*
X224017619Y-64476785D01*
X224112857Y-64429166D01*
X224255714Y-64429166D01*
X224350952Y-64476785D01*
X224398571Y-64524404D01*
X224446190Y-64619642D01*
X224446190Y-65000595D01*
X224255714Y-63572023D02*
X224922380Y-63572023D01*
X223874761Y-63810119D02*
X224589047Y-64048214D01*
X224589047Y-63429166D01*
X189085714Y-86132380D02*
X189085714Y-85132380D01*
X189323809Y-85132380D01*
X189466666Y-85180000D01*
X189561904Y-85275238D01*
X189609523Y-85370476D01*
X189657142Y-85560952D01*
X189657142Y-85703809D01*
X189609523Y-85894285D01*
X189561904Y-85989523D01*
X189466666Y-86084761D01*
X189323809Y-86132380D01*
X189085714Y-86132380D01*
X189990476Y-85132380D02*
X190657142Y-85132380D01*
X190228571Y-86132380D01*
X191085714Y-86132380D02*
X191276190Y-86132380D01*
X191371428Y-86084761D01*
X191419047Y-86037142D01*
X191514285Y-85894285D01*
X191561904Y-85703809D01*
X191561904Y-85322857D01*
X191514285Y-85227619D01*
X191466666Y-85180000D01*
X191371428Y-85132380D01*
X191180952Y-85132380D01*
X191085714Y-85180000D01*
X191038095Y-85227619D01*
X190990476Y-85322857D01*
X190990476Y-85560952D01*
X191038095Y-85656190D01*
X191085714Y-85703809D01*
X191180952Y-85751428D01*
X191371428Y-85751428D01*
X191466666Y-85703809D01*
X191514285Y-85656190D01*
X191561904Y-85560952D01*
X201350714Y-107132380D02*
X201350714Y-106132380D01*
X201588809Y-106132380D01*
X201731666Y-106180000D01*
X201826904Y-106275238D01*
X201874523Y-106370476D01*
X201922142Y-106560952D01*
X201922142Y-106703809D01*
X201874523Y-106894285D01*
X201826904Y-106989523D01*
X201731666Y-107084761D01*
X201588809Y-107132380D01*
X201350714Y-107132380D01*
X202255476Y-106132380D02*
X202922142Y-106132380D01*
X202493571Y-107132380D01*
X203207857Y-106132380D02*
X203826904Y-106132380D01*
X203493571Y-106513333D01*
X203636428Y-106513333D01*
X203731666Y-106560952D01*
X203779285Y-106608571D01*
X203826904Y-106703809D01*
X203826904Y-106941904D01*
X203779285Y-107037142D01*
X203731666Y-107084761D01*
X203636428Y-107132380D01*
X203350714Y-107132380D01*
X203255476Y-107084761D01*
X203207857Y-107037142D01*
X211835714Y-105382380D02*
X211835714Y-104382380D01*
X212073809Y-104382380D01*
X212216666Y-104430000D01*
X212311904Y-104525238D01*
X212359523Y-104620476D01*
X212407142Y-104810952D01*
X212407142Y-104953809D01*
X212359523Y-105144285D01*
X212311904Y-105239523D01*
X212216666Y-105334761D01*
X212073809Y-105382380D01*
X211835714Y-105382380D01*
X213311904Y-104382380D02*
X212835714Y-104382380D01*
X212788095Y-104858571D01*
X212835714Y-104810952D01*
X212930952Y-104763333D01*
X213169047Y-104763333D01*
X213264285Y-104810952D01*
X213311904Y-104858571D01*
X213359523Y-104953809D01*
X213359523Y-105191904D01*
X213311904Y-105287142D01*
X213264285Y-105334761D01*
X213169047Y-105382380D01*
X212930952Y-105382380D01*
X212835714Y-105334761D01*
X212788095Y-105287142D01*
X213930952Y-104810952D02*
X213835714Y-104763333D01*
X213788095Y-104715714D01*
X213740476Y-104620476D01*
X213740476Y-104572857D01*
X213788095Y-104477619D01*
X213835714Y-104430000D01*
X213930952Y-104382380D01*
X214121428Y-104382380D01*
X214216666Y-104430000D01*
X214264285Y-104477619D01*
X214311904Y-104572857D01*
X214311904Y-104620476D01*
X214264285Y-104715714D01*
X214216666Y-104763333D01*
X214121428Y-104810952D01*
X213930952Y-104810952D01*
X213835714Y-104858571D01*
X213788095Y-104906190D01*
X213740476Y-105001428D01*
X213740476Y-105191904D01*
X213788095Y-105287142D01*
X213835714Y-105334761D01*
X213930952Y-105382380D01*
X214121428Y-105382380D01*
X214216666Y-105334761D01*
X214264285Y-105287142D01*
X214311904Y-105191904D01*
X214311904Y-105001428D01*
X214264285Y-104906190D01*
X214216666Y-104858571D01*
X214121428Y-104810952D01*
X196835714Y-105882380D02*
X196835714Y-104882380D01*
X197073809Y-104882380D01*
X197216666Y-104930000D01*
X197311904Y-105025238D01*
X197359523Y-105120476D01*
X197407142Y-105310952D01*
X197407142Y-105453809D01*
X197359523Y-105644285D01*
X197311904Y-105739523D01*
X197216666Y-105834761D01*
X197073809Y-105882380D01*
X196835714Y-105882380D01*
X198264285Y-105215714D02*
X198264285Y-105882380D01*
X198026190Y-104834761D02*
X197788095Y-105549047D01*
X198407142Y-105549047D01*
X199311904Y-105882380D02*
X198740476Y-105882380D01*
X199026190Y-105882380D02*
X199026190Y-104882380D01*
X198930952Y-105025238D01*
X198835714Y-105120476D01*
X198740476Y-105168095D01*
X148820714Y-105882380D02*
X148820714Y-104882380D01*
X149058809Y-104882380D01*
X149201666Y-104930000D01*
X149296904Y-105025238D01*
X149344523Y-105120476D01*
X149392142Y-105310952D01*
X149392142Y-105453809D01*
X149344523Y-105644285D01*
X149296904Y-105739523D01*
X149201666Y-105834761D01*
X149058809Y-105882380D01*
X148820714Y-105882380D01*
X149725476Y-104882380D02*
X150344523Y-104882380D01*
X150011190Y-105263333D01*
X150154047Y-105263333D01*
X150249285Y-105310952D01*
X150296904Y-105358571D01*
X150344523Y-105453809D01*
X150344523Y-105691904D01*
X150296904Y-105787142D01*
X150249285Y-105834761D01*
X150154047Y-105882380D01*
X149868333Y-105882380D01*
X149773095Y-105834761D01*
X149725476Y-105787142D01*
X151249285Y-104882380D02*
X150773095Y-104882380D01*
X150725476Y-105358571D01*
X150773095Y-105310952D01*
X150868333Y-105263333D01*
X151106428Y-105263333D01*
X151201666Y-105310952D01*
X151249285Y-105358571D01*
X151296904Y-105453809D01*
X151296904Y-105691904D01*
X151249285Y-105787142D01*
X151201666Y-105834761D01*
X151106428Y-105882380D01*
X150868333Y-105882380D01*
X150773095Y-105834761D01*
X150725476Y-105787142D01*
X167350714Y-116382380D02*
X167350714Y-115382380D01*
X167588809Y-115382380D01*
X167731666Y-115430000D01*
X167826904Y-115525238D01*
X167874523Y-115620476D01*
X167922142Y-115810952D01*
X167922142Y-115953809D01*
X167874523Y-116144285D01*
X167826904Y-116239523D01*
X167731666Y-116334761D01*
X167588809Y-116382380D01*
X167350714Y-116382380D01*
X168493571Y-115810952D02*
X168398333Y-115763333D01*
X168350714Y-115715714D01*
X168303095Y-115620476D01*
X168303095Y-115572857D01*
X168350714Y-115477619D01*
X168398333Y-115430000D01*
X168493571Y-115382380D01*
X168684047Y-115382380D01*
X168779285Y-115430000D01*
X168826904Y-115477619D01*
X168874523Y-115572857D01*
X168874523Y-115620476D01*
X168826904Y-115715714D01*
X168779285Y-115763333D01*
X168684047Y-115810952D01*
X168493571Y-115810952D01*
X168398333Y-115858571D01*
X168350714Y-115906190D01*
X168303095Y-116001428D01*
X168303095Y-116191904D01*
X168350714Y-116287142D01*
X168398333Y-116334761D01*
X168493571Y-116382380D01*
X168684047Y-116382380D01*
X168779285Y-116334761D01*
X168826904Y-116287142D01*
X168874523Y-116191904D01*
X168874523Y-116001428D01*
X168826904Y-115906190D01*
X168779285Y-115858571D01*
X168684047Y-115810952D01*
X169779285Y-115382380D02*
X169303095Y-115382380D01*
X169255476Y-115858571D01*
X169303095Y-115810952D01*
X169398333Y-115763333D01*
X169636428Y-115763333D01*
X169731666Y-115810952D01*
X169779285Y-115858571D01*
X169826904Y-115953809D01*
X169826904Y-116191904D01*
X169779285Y-116287142D01*
X169731666Y-116334761D01*
X169636428Y-116382380D01*
X169398333Y-116382380D01*
X169303095Y-116334761D01*
X169255476Y-116287142D01*
X184335714Y-99632380D02*
X184335714Y-98632380D01*
X184573809Y-98632380D01*
X184716666Y-98680000D01*
X184811904Y-98775238D01*
X184859523Y-98870476D01*
X184907142Y-99060952D01*
X184907142Y-99203809D01*
X184859523Y-99394285D01*
X184811904Y-99489523D01*
X184716666Y-99584761D01*
X184573809Y-99632380D01*
X184335714Y-99632380D01*
X185240476Y-98632380D02*
X185859523Y-98632380D01*
X185526190Y-99013333D01*
X185669047Y-99013333D01*
X185764285Y-99060952D01*
X185811904Y-99108571D01*
X185859523Y-99203809D01*
X185859523Y-99441904D01*
X185811904Y-99537142D01*
X185764285Y-99584761D01*
X185669047Y-99632380D01*
X185383333Y-99632380D01*
X185288095Y-99584761D01*
X185240476Y-99537142D01*
X186335714Y-99632380D02*
X186526190Y-99632380D01*
X186621428Y-99584761D01*
X186669047Y-99537142D01*
X186764285Y-99394285D01*
X186811904Y-99203809D01*
X186811904Y-98822857D01*
X186764285Y-98727619D01*
X186716666Y-98680000D01*
X186621428Y-98632380D01*
X186430952Y-98632380D01*
X186335714Y-98680000D01*
X186288095Y-98727619D01*
X186240476Y-98822857D01*
X186240476Y-99060952D01*
X186288095Y-99156190D01*
X186335714Y-99203809D01*
X186430952Y-99251428D01*
X186621428Y-99251428D01*
X186716666Y-99203809D01*
X186764285Y-99156190D01*
X186811904Y-99060952D01*
X184335714Y-110632380D02*
X184335714Y-109632380D01*
X184573809Y-109632380D01*
X184716666Y-109680000D01*
X184811904Y-109775238D01*
X184859523Y-109870476D01*
X184907142Y-110060952D01*
X184907142Y-110203809D01*
X184859523Y-110394285D01*
X184811904Y-110489523D01*
X184716666Y-110584761D01*
X184573809Y-110632380D01*
X184335714Y-110632380D01*
X185764285Y-109965714D02*
X185764285Y-110632380D01*
X185526190Y-109584761D02*
X185288095Y-110299047D01*
X185907142Y-110299047D01*
X186478571Y-109632380D02*
X186573809Y-109632380D01*
X186669047Y-109680000D01*
X186716666Y-109727619D01*
X186764285Y-109822857D01*
X186811904Y-110013333D01*
X186811904Y-110251428D01*
X186764285Y-110441904D01*
X186716666Y-110537142D01*
X186669047Y-110584761D01*
X186573809Y-110632380D01*
X186478571Y-110632380D01*
X186383333Y-110584761D01*
X186335714Y-110537142D01*
X186288095Y-110441904D01*
X186240476Y-110251428D01*
X186240476Y-110013333D01*
X186288095Y-109822857D01*
X186335714Y-109727619D01*
X186383333Y-109680000D01*
X186478571Y-109632380D01*
X237100714Y-111632380D02*
X237100714Y-110632380D01*
X237338809Y-110632380D01*
X237481666Y-110680000D01*
X237576904Y-110775238D01*
X237624523Y-110870476D01*
X237672142Y-111060952D01*
X237672142Y-111203809D01*
X237624523Y-111394285D01*
X237576904Y-111489523D01*
X237481666Y-111584761D01*
X237338809Y-111632380D01*
X237100714Y-111632380D01*
X238005476Y-110632380D02*
X238672142Y-110632380D01*
X238243571Y-111632380D01*
X238957857Y-110632380D02*
X239624523Y-110632380D01*
X239195952Y-111632380D01*
X131561904Y-108972380D02*
X131561904Y-107972380D01*
X131800000Y-107972380D01*
X131942857Y-108020000D01*
X132038095Y-108115238D01*
X132085714Y-108210476D01*
X132133333Y-108400952D01*
X132133333Y-108543809D01*
X132085714Y-108734285D01*
X132038095Y-108829523D01*
X131942857Y-108924761D01*
X131800000Y-108972380D01*
X131561904Y-108972380D01*
X133085714Y-108972380D02*
X132514285Y-108972380D01*
X132800000Y-108972380D02*
X132800000Y-107972380D01*
X132704761Y-108115238D01*
X132609523Y-108210476D01*
X132514285Y-108258095D01*
X136820714Y-106382380D02*
X136820714Y-105382380D01*
X137058809Y-105382380D01*
X137201666Y-105430000D01*
X137296904Y-105525238D01*
X137344523Y-105620476D01*
X137392142Y-105810952D01*
X137392142Y-105953809D01*
X137344523Y-106144285D01*
X137296904Y-106239523D01*
X137201666Y-106334761D01*
X137058809Y-106382380D01*
X136820714Y-106382380D01*
X137725476Y-105382380D02*
X138344523Y-105382380D01*
X138011190Y-105763333D01*
X138154047Y-105763333D01*
X138249285Y-105810952D01*
X138296904Y-105858571D01*
X138344523Y-105953809D01*
X138344523Y-106191904D01*
X138296904Y-106287142D01*
X138249285Y-106334761D01*
X138154047Y-106382380D01*
X137868333Y-106382380D01*
X137773095Y-106334761D01*
X137725476Y-106287142D01*
X138677857Y-105382380D02*
X139296904Y-105382380D01*
X138963571Y-105763333D01*
X139106428Y-105763333D01*
X139201666Y-105810952D01*
X139249285Y-105858571D01*
X139296904Y-105953809D01*
X139296904Y-106191904D01*
X139249285Y-106287142D01*
X139201666Y-106334761D01*
X139106428Y-106382380D01*
X138820714Y-106382380D01*
X138725476Y-106334761D01*
X138677857Y-106287142D01*
X209609523Y-118882380D02*
X209609523Y-117882380D01*
X209847619Y-117882380D01*
X209990476Y-117930000D01*
X210085714Y-118025238D01*
X210133333Y-118120476D01*
X210180952Y-118310952D01*
X210180952Y-118453809D01*
X210133333Y-118644285D01*
X210085714Y-118739523D01*
X209990476Y-118834761D01*
X209847619Y-118882380D01*
X209609523Y-118882380D01*
X211133333Y-118882380D02*
X210561904Y-118882380D01*
X210847619Y-118882380D02*
X210847619Y-117882380D01*
X210752380Y-118025238D01*
X210657142Y-118120476D01*
X210561904Y-118168095D01*
X211514285Y-117977619D02*
X211561904Y-117930000D01*
X211657142Y-117882380D01*
X211895238Y-117882380D01*
X211990476Y-117930000D01*
X212038095Y-117977619D01*
X212085714Y-118072857D01*
X212085714Y-118168095D01*
X212038095Y-118310952D01*
X211466666Y-118882380D01*
X212085714Y-118882380D01*
X212466666Y-117977619D02*
X212514285Y-117930000D01*
X212609523Y-117882380D01*
X212847619Y-117882380D01*
X212942857Y-117930000D01*
X212990476Y-117977619D01*
X213038095Y-118072857D01*
X213038095Y-118168095D01*
X212990476Y-118310952D01*
X212419047Y-118882380D01*
X213038095Y-118882380D01*
X163874523Y-122882380D02*
X163874523Y-121882380D01*
X164112619Y-121882380D01*
X164255476Y-121930000D01*
X164350714Y-122025238D01*
X164398333Y-122120476D01*
X164445952Y-122310952D01*
X164445952Y-122453809D01*
X164398333Y-122644285D01*
X164350714Y-122739523D01*
X164255476Y-122834761D01*
X164112619Y-122882380D01*
X163874523Y-122882380D01*
X165398333Y-122882380D02*
X164826904Y-122882380D01*
X165112619Y-122882380D02*
X165112619Y-121882380D01*
X165017380Y-122025238D01*
X164922142Y-122120476D01*
X164826904Y-122168095D01*
X165731666Y-121882380D02*
X166350714Y-121882380D01*
X166017380Y-122263333D01*
X166160238Y-122263333D01*
X166255476Y-122310952D01*
X166303095Y-122358571D01*
X166350714Y-122453809D01*
X166350714Y-122691904D01*
X166303095Y-122787142D01*
X166255476Y-122834761D01*
X166160238Y-122882380D01*
X165874523Y-122882380D01*
X165779285Y-122834761D01*
X165731666Y-122787142D01*
X166731666Y-121977619D02*
X166779285Y-121930000D01*
X166874523Y-121882380D01*
X167112619Y-121882380D01*
X167207857Y-121930000D01*
X167255476Y-121977619D01*
X167303095Y-122072857D01*
X167303095Y-122168095D01*
X167255476Y-122310952D01*
X166684047Y-122882380D01*
X167303095Y-122882380D01*
X189085714Y-106382380D02*
X189085714Y-105382380D01*
X189323809Y-105382380D01*
X189466666Y-105430000D01*
X189561904Y-105525238D01*
X189609523Y-105620476D01*
X189657142Y-105810952D01*
X189657142Y-105953809D01*
X189609523Y-106144285D01*
X189561904Y-106239523D01*
X189466666Y-106334761D01*
X189323809Y-106382380D01*
X189085714Y-106382380D01*
X189990476Y-105382380D02*
X190657142Y-105382380D01*
X190228571Y-106382380D01*
X190990476Y-105477619D02*
X191038095Y-105430000D01*
X191133333Y-105382380D01*
X191371428Y-105382380D01*
X191466666Y-105430000D01*
X191514285Y-105477619D01*
X191561904Y-105572857D01*
X191561904Y-105668095D01*
X191514285Y-105810952D01*
X190942857Y-106382380D01*
X191561904Y-106382380D01*
X210835714Y-111882380D02*
X210835714Y-110882380D01*
X211073809Y-110882380D01*
X211216666Y-110930000D01*
X211311904Y-111025238D01*
X211359523Y-111120476D01*
X211407142Y-111310952D01*
X211407142Y-111453809D01*
X211359523Y-111644285D01*
X211311904Y-111739523D01*
X211216666Y-111834761D01*
X211073809Y-111882380D01*
X210835714Y-111882380D01*
X211883333Y-111882380D02*
X212073809Y-111882380D01*
X212169047Y-111834761D01*
X212216666Y-111787142D01*
X212311904Y-111644285D01*
X212359523Y-111453809D01*
X212359523Y-111072857D01*
X212311904Y-110977619D01*
X212264285Y-110930000D01*
X212169047Y-110882380D01*
X211978571Y-110882380D01*
X211883333Y-110930000D01*
X211835714Y-110977619D01*
X211788095Y-111072857D01*
X211788095Y-111310952D01*
X211835714Y-111406190D01*
X211883333Y-111453809D01*
X211978571Y-111501428D01*
X212169047Y-111501428D01*
X212264285Y-111453809D01*
X212311904Y-111406190D01*
X212359523Y-111310952D01*
X212978571Y-110882380D02*
X213073809Y-110882380D01*
X213169047Y-110930000D01*
X213216666Y-110977619D01*
X213264285Y-111072857D01*
X213311904Y-111263333D01*
X213311904Y-111501428D01*
X213264285Y-111691904D01*
X213216666Y-111787142D01*
X213169047Y-111834761D01*
X213073809Y-111882380D01*
X212978571Y-111882380D01*
X212883333Y-111834761D01*
X212835714Y-111787142D01*
X212788095Y-111691904D01*
X212740476Y-111501428D01*
X212740476Y-111263333D01*
X212788095Y-111072857D01*
X212835714Y-110977619D01*
X212883333Y-110930000D01*
X212978571Y-110882380D01*
X167900714Y-75032380D02*
X167900714Y-74032380D01*
X168138809Y-74032380D01*
X168281666Y-74080000D01*
X168376904Y-74175238D01*
X168424523Y-74270476D01*
X168472142Y-74460952D01*
X168472142Y-74603809D01*
X168424523Y-74794285D01*
X168376904Y-74889523D01*
X168281666Y-74984761D01*
X168138809Y-75032380D01*
X167900714Y-75032380D01*
X169043571Y-74460952D02*
X168948333Y-74413333D01*
X168900714Y-74365714D01*
X168853095Y-74270476D01*
X168853095Y-74222857D01*
X168900714Y-74127619D01*
X168948333Y-74080000D01*
X169043571Y-74032380D01*
X169234047Y-74032380D01*
X169329285Y-74080000D01*
X169376904Y-74127619D01*
X169424523Y-74222857D01*
X169424523Y-74270476D01*
X169376904Y-74365714D01*
X169329285Y-74413333D01*
X169234047Y-74460952D01*
X169043571Y-74460952D01*
X168948333Y-74508571D01*
X168900714Y-74556190D01*
X168853095Y-74651428D01*
X168853095Y-74841904D01*
X168900714Y-74937142D01*
X168948333Y-74984761D01*
X169043571Y-75032380D01*
X169234047Y-75032380D01*
X169329285Y-74984761D01*
X169376904Y-74937142D01*
X169424523Y-74841904D01*
X169424523Y-74651428D01*
X169376904Y-74556190D01*
X169329285Y-74508571D01*
X169234047Y-74460952D01*
X170043571Y-74032380D02*
X170138809Y-74032380D01*
X170234047Y-74080000D01*
X170281666Y-74127619D01*
X170329285Y-74222857D01*
X170376904Y-74413333D01*
X170376904Y-74651428D01*
X170329285Y-74841904D01*
X170281666Y-74937142D01*
X170234047Y-74984761D01*
X170138809Y-75032380D01*
X170043571Y-75032380D01*
X169948333Y-74984761D01*
X169900714Y-74937142D01*
X169853095Y-74841904D01*
X169805476Y-74651428D01*
X169805476Y-74413333D01*
X169853095Y-74222857D01*
X169900714Y-74127619D01*
X169948333Y-74080000D01*
X170043571Y-74032380D01*
X141835714Y-106132380D02*
X141835714Y-105132380D01*
X142073809Y-105132380D01*
X142216666Y-105180000D01*
X142311904Y-105275238D01*
X142359523Y-105370476D01*
X142407142Y-105560952D01*
X142407142Y-105703809D01*
X142359523Y-105894285D01*
X142311904Y-105989523D01*
X142216666Y-106084761D01*
X142073809Y-106132380D01*
X141835714Y-106132380D01*
X143359523Y-106132380D02*
X142788095Y-106132380D01*
X143073809Y-106132380D02*
X143073809Y-105132380D01*
X142978571Y-105275238D01*
X142883333Y-105370476D01*
X142788095Y-105418095D01*
X143930952Y-105560952D02*
X143835714Y-105513333D01*
X143788095Y-105465714D01*
X143740476Y-105370476D01*
X143740476Y-105322857D01*
X143788095Y-105227619D01*
X143835714Y-105180000D01*
X143930952Y-105132380D01*
X144121428Y-105132380D01*
X144216666Y-105180000D01*
X144264285Y-105227619D01*
X144311904Y-105322857D01*
X144311904Y-105370476D01*
X144264285Y-105465714D01*
X144216666Y-105513333D01*
X144121428Y-105560952D01*
X143930952Y-105560952D01*
X143835714Y-105608571D01*
X143788095Y-105656190D01*
X143740476Y-105751428D01*
X143740476Y-105941904D01*
X143788095Y-106037142D01*
X143835714Y-106084761D01*
X143930952Y-106132380D01*
X144121428Y-106132380D01*
X144216666Y-106084761D01*
X144264285Y-106037142D01*
X144311904Y-105941904D01*
X144311904Y-105751428D01*
X144264285Y-105656190D01*
X144216666Y-105608571D01*
X144121428Y-105560952D01*
D11*
X154765000Y-114735000D02*
X157050000Y-114735000D01*
X154765000Y-113265000D02*
X154765000Y-114735000D01*
X157050000Y-113265000D02*
X154765000Y-113265000D01*
X221985000Y-115985000D02*
X221985000Y-113700000D01*
X220515000Y-115985000D02*
X221985000Y-115985000D01*
X220515000Y-113700000D02*
X220515000Y-115985000D01*
X189815000Y-110585000D02*
X192100000Y-110585000D01*
X189815000Y-109115000D02*
X189815000Y-110585000D01*
X192100000Y-109115000D02*
X189815000Y-109115000D01*
X137300000Y-110365000D02*
X135015000Y-110365000D01*
X137300000Y-111835000D02*
X137300000Y-110365000D01*
X135015000Y-111835000D02*
X137300000Y-111835000D01*
X160830000Y-109485000D02*
X163115000Y-109485000D01*
X160830000Y-108015000D02*
X160830000Y-109485000D01*
X163115000Y-108015000D02*
X160830000Y-108015000D01*
X213565000Y-112335000D02*
X215850000Y-112335000D01*
X213565000Y-110865000D02*
X213565000Y-112335000D01*
X215850000Y-110865000D02*
X213565000Y-110865000D01*
X172515000Y-106735000D02*
X174800000Y-106735000D01*
X172515000Y-105265000D02*
X172515000Y-106735000D01*
X174800000Y-105265000D02*
X172515000Y-105265000D01*
X148485000Y-107985000D02*
X148485000Y-105700000D01*
X147015000Y-107985000D02*
X148485000Y-107985000D01*
X147015000Y-105700000D02*
X147015000Y-107985000D01*
X237080000Y-105335000D02*
X239365000Y-105335000D01*
X237080000Y-103865000D02*
X237080000Y-105335000D01*
X239365000Y-103865000D02*
X237080000Y-103865000D01*
X205235000Y-107735000D02*
X205235000Y-105450000D01*
X203765000Y-107735000D02*
X205235000Y-107735000D01*
X203765000Y-105450000D02*
X203765000Y-107735000D01*
D12*
X144510000Y-115100000D02*
G75*
G03*
X144510000Y-115100000I-50000J0D01*
G01*
X189025000Y-111600000D02*
G75*
G03*
X189025000Y-111600000I-50000J0D01*
G01*
X171495000Y-104600000D02*
G75*
G03*
X171495000Y-104600000I-50000J0D01*
G01*
X170760000Y-111350000D02*
G75*
G03*
X170760000Y-111350000I-50000J0D01*
G01*
X167525000Y-119100000D02*
G75*
G03*
X167525000Y-119100000I-50000J0D01*
G01*
D11*
X163510000Y-86260000D02*
X163510000Y-86810000D01*
X159290000Y-83140000D02*
X159290000Y-82590000D01*
X159290000Y-86810000D02*
X159840000Y-86810000D01*
X163510000Y-83140000D02*
X163510000Y-82590000D01*
X159290000Y-82590000D02*
X159840000Y-82590000D01*
X159290000Y-86260000D02*
X159290000Y-86810000D01*
X163510000Y-86810000D02*
X162960000Y-86810000D01*
D12*
X141140000Y-76050000D02*
G75*
G03*
X141140000Y-76050000I-50000J0D01*
G01*
X148510000Y-115850000D02*
G75*
G03*
X148510000Y-115850000I-50000J0D01*
G01*
D11*
X208422500Y-69062742D02*
X208422500Y-69537258D01*
X207377500Y-69062742D02*
X207377500Y-69537258D01*
X209927500Y-69062742D02*
X209927500Y-69537258D01*
X210972500Y-69062742D02*
X210972500Y-69537258D01*
D12*
X198260000Y-118600000D02*
G75*
G03*
X198260000Y-118600000I-50000J0D01*
G01*
X236010000Y-110350000D02*
G75*
G03*
X236010000Y-110350000I-50000J0D01*
G01*
X216525000Y-106600000D02*
G75*
G03*
X216525000Y-106600000I-50000J0D01*
G01*
X183495000Y-97850000D02*
G75*
G03*
X183495000Y-97850000I-50000J0D01*
G01*
X224760000Y-111350000D02*
G75*
G03*
X224760000Y-111350000I-50000J0D01*
G01*
X196495000Y-100600000D02*
G75*
G03*
X196495000Y-100600000I-50000J0D01*
G01*
X159810000Y-115000000D02*
G75*
G03*
X159810000Y-115000000I-50000J0D01*
G01*
X239275000Y-113600000D02*
G75*
G03*
X239275000Y-113600000I-50000J0D01*
G01*
X214260000Y-105350000D02*
G75*
G03*
X214260000Y-105350000I-50000J0D01*
G01*
X200745000Y-102100000D02*
G75*
G03*
X200745000Y-102100000I-50000J0D01*
G01*
X222760000Y-102100000D02*
G75*
G03*
X222760000Y-102100000I-50000J0D01*
G01*
X136440000Y-106850000D02*
G75*
G03*
X136440000Y-106850000I-50000J0D01*
G01*
X184260000Y-121100000D02*
G75*
G03*
X184260000Y-121100000I-50000J0D01*
G01*
X143010000Y-108600000D02*
G75*
G03*
X143010000Y-108600000I-50000J0D01*
G01*
X198760000Y-116600000D02*
G75*
G03*
X198760000Y-116600000I-50000J0D01*
G01*
X184775000Y-118600000D02*
G75*
G03*
X184775000Y-118600000I-50000J0D01*
G01*
X188675000Y-80650000D02*
G75*
G03*
X188675000Y-80650000I-50000J0D01*
G01*
X179510000Y-90100000D02*
G75*
G03*
X179510000Y-90100000I-50000J0D01*
G01*
X192260000Y-107100000D02*
G75*
G03*
X192260000Y-107100000I-50000J0D01*
G01*
X126460000Y-69750000D02*
G75*
G03*
X126460000Y-69750000I-50000J0D01*
G01*
X199495000Y-109100000D02*
G75*
G03*
X199495000Y-109100000I-50000J0D01*
G01*
X234760000Y-112850000D02*
G75*
G03*
X234760000Y-112850000I-50000J0D01*
G01*
X173495000Y-98100000D02*
G75*
G03*
X173495000Y-98100000I-50000J0D01*
G01*
X242010000Y-82600000D02*
G75*
G03*
X242010000Y-82600000I-50000J0D01*
G01*
X207995000Y-121600000D02*
G75*
G03*
X207995000Y-121600000I-50000J0D01*
G01*
X184275000Y-108100000D02*
G75*
G03*
X184275000Y-108100000I-50000J0D01*
G01*
X230510000Y-83100000D02*
G75*
G03*
X230510000Y-83100000I-50000J0D01*
G01*
X146510000Y-115600000D02*
G75*
G03*
X146510000Y-115600000I-50000J0D01*
G01*
X163940000Y-110250000D02*
G75*
G03*
X163940000Y-110250000I-50000J0D01*
G01*
X135940000Y-114600000D02*
G75*
G03*
X135940000Y-114600000I-50000J0D01*
G01*
X221510000Y-118600000D02*
G75*
G03*
X221510000Y-118600000I-50000J0D01*
G01*
X230760000Y-111600000D02*
G75*
G03*
X230760000Y-111600000I-50000J0D01*
G01*
X181760000Y-85850000D02*
G75*
G03*
X181760000Y-85850000I-50000J0D01*
G01*
D11*
X161507836Y-77460000D02*
X161292164Y-77460000D01*
X161507836Y-76740000D02*
X161292164Y-76740000D01*
D12*
X187010000Y-113350000D02*
G75*
G03*
X187010000Y-113350000I-50000J0D01*
G01*
X209260000Y-106100000D02*
G75*
G03*
X209260000Y-106100000I-50000J0D01*
G01*
X132890000Y-87300000D02*
G75*
G03*
X132890000Y-87300000I-50000J0D01*
G01*
X156245000Y-106350000D02*
G75*
G03*
X156245000Y-106350000I-50000J0D01*
G01*
X157760000Y-115000000D02*
G75*
G03*
X157760000Y-115000000I-50000J0D01*
G01*
X244510000Y-115350000D02*
G75*
G03*
X244510000Y-115350000I-50000J0D01*
G01*
X228745000Y-109100000D02*
G75*
G03*
X228745000Y-109100000I-50000J0D01*
G01*
X186260000Y-98600000D02*
G75*
G03*
X186260000Y-98600000I-50000J0D01*
G01*
X199495000Y-106850000D02*
G75*
G03*
X199495000Y-106850000I-50000J0D01*
G01*
X199760000Y-114850000D02*
G75*
G03*
X199760000Y-114850000I-50000J0D01*
G01*
X143510000Y-113600000D02*
G75*
G03*
X143510000Y-113600000I-50000J0D01*
G01*
X136690000Y-112850000D02*
G75*
G03*
X136690000Y-112850000I-50000J0D01*
G01*
X143495000Y-111850000D02*
G75*
G03*
X143495000Y-111850000I-50000J0D01*
G01*
X172760000Y-109850000D02*
G75*
G03*
X172760000Y-109850000I-50000J0D01*
G01*
X169010000Y-100850000D02*
G75*
G03*
X169010000Y-100850000I-50000J0D01*
G01*
X220995000Y-116850000D02*
G75*
G03*
X220995000Y-116850000I-50000J0D01*
G01*
X161010000Y-107100000D02*
G75*
G03*
X161010000Y-107100000I-50000J0D01*
G01*
X205760000Y-105600000D02*
G75*
G03*
X205760000Y-105600000I-50000J0D01*
G01*
X210745000Y-116600000D02*
G75*
G03*
X210745000Y-116600000I-50000J0D01*
G01*
X161760000Y-114350000D02*
G75*
G03*
X161760000Y-114350000I-50000J0D01*
G01*
X182010000Y-107100000D02*
G75*
G03*
X182010000Y-107100000I-50000J0D01*
G01*
X207560000Y-78050000D02*
G75*
G03*
X207560000Y-78050000I-50000J0D01*
G01*
X167010000Y-105600000D02*
G75*
G03*
X167010000Y-105600000I-50000J0D01*
G01*
X139510000Y-106850000D02*
G75*
G03*
X139510000Y-106850000I-50000J0D01*
G01*
X161995000Y-112600000D02*
G75*
G03*
X161995000Y-112600000I-50000J0D01*
G01*
X242745000Y-68100000D02*
G75*
G03*
X242745000Y-68100000I-50000J0D01*
G01*
X184245000Y-123100000D02*
G75*
G03*
X184245000Y-123100000I-50000J0D01*
G01*
X193495000Y-96600000D02*
G75*
G03*
X193495000Y-96600000I-50000J0D01*
G01*
X226260000Y-72350000D02*
G75*
G03*
X226260000Y-72350000I-50000J0D01*
G01*
X194495000Y-106100000D02*
G75*
G03*
X194495000Y-106100000I-50000J0D01*
G01*
X122890000Y-77250000D02*
G75*
G03*
X122890000Y-77250000I-50000J0D01*
G01*
X229775000Y-110350000D02*
G75*
G03*
X229775000Y-110350000I-50000J0D01*
G01*
X132440000Y-116100000D02*
G75*
G03*
X132440000Y-116100000I-50000J0D01*
G01*
D11*
X161507836Y-78365000D02*
X161292164Y-78365000D01*
X161507836Y-79085000D02*
X161292164Y-79085000D01*
D12*
X225510000Y-106850000D02*
G75*
G03*
X225510000Y-106850000I-50000J0D01*
G01*
X167495000Y-112850000D02*
G75*
G03*
X167495000Y-112850000I-50000J0D01*
G01*
X183525000Y-113350000D02*
G75*
G03*
X183525000Y-113350000I-50000J0D01*
G01*
D11*
X231077500Y-64499758D02*
X231077500Y-64025242D01*
X232122500Y-64499758D02*
X232122500Y-64025242D01*
D12*
X167010000Y-123350000D02*
G75*
G03*
X167010000Y-123350000I-50000J0D01*
G01*
X153510000Y-111100000D02*
G75*
G03*
X153510000Y-111100000I-50000J0D01*
G01*
X167495000Y-121350000D02*
G75*
G03*
X167495000Y-121350000I-50000J0D01*
G01*
X186495000Y-107350000D02*
G75*
G03*
X186495000Y-107350000I-50000J0D01*
G01*
X198110000Y-77250000D02*
G75*
G03*
X198110000Y-77250000I-50000J0D01*
G01*
X143260000Y-110100000D02*
G75*
G03*
X143260000Y-110100000I-50000J0D01*
G01*
X245510000Y-118350000D02*
G75*
G03*
X245510000Y-118350000I-50000J0D01*
G01*
X235760000Y-108350000D02*
G75*
G03*
X235760000Y-108350000I-50000J0D01*
G01*
X225510000Y-104850000D02*
G75*
G03*
X225510000Y-104850000I-50000J0D01*
G01*
X174427500Y-80450000D02*
G75*
G03*
X174427500Y-80450000I-50000J0D01*
G01*
X184525000Y-115600000D02*
G75*
G03*
X184525000Y-115600000I-50000J0D01*
G01*
X223745000Y-113850000D02*
G75*
G03*
X223745000Y-113850000I-50000J0D01*
G01*
X153510000Y-108850000D02*
G75*
G03*
X153510000Y-108850000I-50000J0D01*
G01*
X235995000Y-106350000D02*
G75*
G03*
X235995000Y-106350000I-50000J0D01*
G01*
D11*
X161507836Y-80710000D02*
X161292164Y-80710000D01*
X161507836Y-79990000D02*
X161292164Y-79990000D01*
D12*
X169690000Y-115100000D02*
G75*
G03*
X169690000Y-115100000I-50000J0D01*
G01*
X242010000Y-115100000D02*
G75*
G03*
X242010000Y-115100000I-50000J0D01*
G01*
X177245000Y-94100000D02*
G75*
G03*
X177245000Y-94100000I-50000J0D01*
G01*
X250275000Y-72350000D02*
G75*
G03*
X250275000Y-72350000I-50000J0D01*
G01*
X137455000Y-109100000D02*
G75*
G03*
X137455000Y-109100000I-50000J0D01*
G01*
X167495000Y-110350000D02*
G75*
G03*
X167495000Y-110350000I-50000J0D01*
G01*
X211510000Y-108600000D02*
G75*
G03*
X211510000Y-108600000I-50000J0D01*
G01*
X191510000Y-92100000D02*
G75*
G03*
X191510000Y-92100000I-50000J0D01*
G01*
X182010000Y-124100000D02*
G75*
G03*
X182010000Y-124100000I-50000J0D01*
G01*
X166760000Y-107850000D02*
G75*
G03*
X166760000Y-107850000I-50000J0D01*
G01*
X158775000Y-105850000D02*
G75*
G03*
X158775000Y-105850000I-50000J0D01*
G01*
X181010000Y-112600000D02*
G75*
G03*
X181010000Y-112600000I-50000J0D01*
G01*
D11*
X158272500Y-88687742D02*
X158272500Y-89162258D01*
X157227500Y-88687742D02*
X157227500Y-89162258D01*
D12*
X154260000Y-112600000D02*
G75*
G03*
X154260000Y-112600000I-50000J0D01*
G01*
X169010000Y-104600000D02*
G75*
G03*
X169010000Y-104600000I-50000J0D01*
G01*
X199745000Y-111100000D02*
G75*
G03*
X199745000Y-111100000I-50000J0D01*
G01*
X225775000Y-109350000D02*
G75*
G03*
X225775000Y-109350000I-50000J0D01*
G01*
X154010000Y-107100000D02*
G75*
G03*
X154010000Y-107100000I-50000J0D01*
G01*
X215325000Y-85300000D02*
G75*
G03*
X215325000Y-85300000I-50000J0D01*
G01*
X177995000Y-109850000D02*
G75*
G03*
X177995000Y-109850000I-50000J0D01*
G01*
X233775000Y-95100000D02*
G75*
G03*
X233775000Y-95100000I-50000J0D01*
G01*
X174260000Y-108350000D02*
G75*
G03*
X174260000Y-108350000I-50000J0D01*
G01*
X227510000Y-107600000D02*
G75*
G03*
X227510000Y-107600000I-50000J0D01*
G01*
X144340000Y-83450000D02*
G75*
G03*
X144340000Y-83450000I-50000J0D01*
G01*
X179260000Y-107850000D02*
G75*
G03*
X179260000Y-107850000I-50000J0D01*
G01*
X144260000Y-106600000D02*
G75*
G03*
X144260000Y-106600000I-50000J0D01*
G01*
X222760000Y-115350000D02*
G75*
G03*
X222760000Y-115350000I-50000J0D01*
G01*
D11*
X228227500Y-64499758D02*
X228227500Y-64025242D01*
X229272500Y-64499758D02*
X229272500Y-64025242D01*
D12*
X135440000Y-116600000D02*
G75*
G03*
X135440000Y-116600000I-50000J0D01*
G01*
D11*
X225377500Y-64499758D02*
X225377500Y-64025242D01*
X226422500Y-64499758D02*
X226422500Y-64025242D01*
D12*
X189260000Y-86850000D02*
G75*
G03*
X189260000Y-86850000I-50000J0D01*
G01*
X201525000Y-107850000D02*
G75*
G03*
X201525000Y-107850000I-50000J0D01*
G01*
X212010000Y-106100000D02*
G75*
G03*
X212010000Y-106100000I-50000J0D01*
G01*
X197010000Y-106600000D02*
G75*
G03*
X197010000Y-106600000I-50000J0D01*
G01*
X148995000Y-106600000D02*
G75*
G03*
X148995000Y-106600000I-50000J0D01*
G01*
X167525000Y-117100000D02*
G75*
G03*
X167525000Y-117100000I-50000J0D01*
G01*
X184510000Y-100350000D02*
G75*
G03*
X184510000Y-100350000I-50000J0D01*
G01*
X184510000Y-111350000D02*
G75*
G03*
X184510000Y-111350000I-50000J0D01*
G01*
X237275000Y-112350000D02*
G75*
G03*
X237275000Y-112350000I-50000J0D01*
G01*
X133440000Y-107350000D02*
G75*
G03*
X133440000Y-107350000I-50000J0D01*
G01*
X136995000Y-107100000D02*
G75*
G03*
X136995000Y-107100000I-50000J0D01*
G01*
X210260000Y-119600000D02*
G75*
G03*
X210260000Y-119600000I-50000J0D01*
G01*
X164525000Y-123600000D02*
G75*
G03*
X164525000Y-123600000I-50000J0D01*
G01*
X189260000Y-107100000D02*
G75*
G03*
X189260000Y-107100000I-50000J0D01*
G01*
X211010000Y-112600000D02*
G75*
G03*
X211010000Y-112600000I-50000J0D01*
G01*
X168075000Y-75750000D02*
G75*
G03*
X168075000Y-75750000I-50000J0D01*
G01*
X142010000Y-106850000D02*
G75*
G03*
X142010000Y-106850000I-50000J0D01*
G01*
%LPC*%
D13*
X243530000Y-55250000D03*
X244500000Y-55250000D03*
D14*
X239750000Y-64525000D03*
D15*
X239750000Y-61985000D03*
X239750000Y-59445000D03*
D14*
X217750000Y-67750000D03*
D15*
X220290000Y-67750000D03*
X222830000Y-67750000D03*
X225370000Y-67750000D03*
X227910000Y-67750000D03*
D16*
X155462500Y-114000000D03*
X157037500Y-114000000D03*
D17*
X221250000Y-115287500D03*
X221250000Y-113712500D03*
D16*
X190512500Y-109850000D03*
X192087500Y-109850000D03*
D18*
X136602500Y-111100000D03*
X135027500Y-111100000D03*
D16*
X161527500Y-108750000D03*
X163102500Y-108750000D03*
X214262500Y-111600000D03*
X215837500Y-111600000D03*
X173212500Y-106000000D03*
X174787500Y-106000000D03*
D17*
X147750000Y-107287500D03*
X147750000Y-105712500D03*
D16*
X237777500Y-104600000D03*
X239352500Y-104600000D03*
D17*
X204500000Y-107037500D03*
X204500000Y-105462500D03*
D19*
X253500000Y-60000000D03*
X115250000Y-60000000D03*
D13*
X145065000Y-115100000D03*
X146035000Y-115100000D03*
X189580000Y-111600000D03*
X190550000Y-111600000D03*
X172050000Y-104600000D03*
X173020000Y-104600000D03*
X171315000Y-111350000D03*
X172285000Y-111350000D03*
X168080000Y-119100000D03*
X169050000Y-119100000D03*
D20*
X162600000Y-82762500D03*
X162200000Y-82762500D03*
X161800000Y-82762500D03*
X161400000Y-82762500D03*
X161000000Y-82762500D03*
X160600000Y-82762500D03*
X160200000Y-82762500D03*
D21*
X159462500Y-83500000D03*
X159462500Y-83900000D03*
X159462500Y-84300000D03*
X159462500Y-84700000D03*
X159462500Y-85100000D03*
X159462500Y-85500000D03*
X159462500Y-85900000D03*
D20*
X160200000Y-86637500D03*
X160600000Y-86637500D03*
X161000000Y-86637500D03*
X161400000Y-86637500D03*
X161800000Y-86637500D03*
X162200000Y-86637500D03*
X162600000Y-86637500D03*
D21*
X163337500Y-85900000D03*
X163337500Y-85500000D03*
X163337500Y-85100000D03*
X163337500Y-84700000D03*
X163337500Y-84300000D03*
X163337500Y-83900000D03*
X163337500Y-83500000D03*
D22*
X161400000Y-84700000D03*
D23*
X140485000Y-76050000D03*
X139515000Y-76050000D03*
D13*
X149065000Y-115850000D03*
X150035000Y-115850000D03*
D24*
X207900000Y-68475000D03*
X207900000Y-70125000D03*
X210450000Y-68475000D03*
X210450000Y-70125000D03*
D13*
X198815000Y-118600000D03*
X199785000Y-118600000D03*
X236565000Y-110350000D03*
X237535000Y-110350000D03*
X217080000Y-106600000D03*
X218050000Y-106600000D03*
X184050000Y-97850000D03*
X185020000Y-97850000D03*
X225315000Y-111350000D03*
X226285000Y-111350000D03*
X197050000Y-100600000D03*
X198020000Y-100600000D03*
X160365000Y-115000000D03*
X161335000Y-115000000D03*
X239830000Y-113600000D03*
X240800000Y-113600000D03*
X214815000Y-105350000D03*
X215785000Y-105350000D03*
X201300000Y-102100000D03*
X202270000Y-102100000D03*
X223315000Y-102100000D03*
X224285000Y-102100000D03*
D23*
X135785000Y-106850000D03*
X134815000Y-106850000D03*
D13*
X184815000Y-121100000D03*
X185785000Y-121100000D03*
X143565000Y-108600000D03*
X144535000Y-108600000D03*
X199315000Y-116600000D03*
X200285000Y-116600000D03*
X185330000Y-118600000D03*
X186300000Y-118600000D03*
X189230000Y-80650000D03*
X190200000Y-80650000D03*
X180065000Y-90100000D03*
X181035000Y-90100000D03*
X192815000Y-107100000D03*
X193785000Y-107100000D03*
X127015000Y-69750000D03*
X127985000Y-69750000D03*
X200050000Y-109100000D03*
X201020000Y-109100000D03*
X235315000Y-112850000D03*
X236285000Y-112850000D03*
X174050000Y-98100000D03*
X175020000Y-98100000D03*
X242565000Y-82600000D03*
X243535000Y-82600000D03*
X208550000Y-121600000D03*
X209520000Y-121600000D03*
X184830000Y-108100000D03*
X185800000Y-108100000D03*
X231065000Y-83100000D03*
X232035000Y-83100000D03*
X147065000Y-115600000D03*
X148035000Y-115600000D03*
D23*
X163285000Y-110250000D03*
X162315000Y-110250000D03*
X135285000Y-114600000D03*
X134315000Y-114600000D03*
D13*
X222065000Y-118600000D03*
X223035000Y-118600000D03*
X231315000Y-111600000D03*
X232285000Y-111600000D03*
X182315000Y-85850000D03*
X183285000Y-85850000D03*
D25*
X161880000Y-77100000D03*
X160920000Y-77100000D03*
D13*
X187565000Y-113350000D03*
X188535000Y-113350000D03*
X209815000Y-106100000D03*
X210785000Y-106100000D03*
D23*
X132235000Y-87300000D03*
X131265000Y-87300000D03*
D13*
X156800000Y-106350000D03*
X157770000Y-106350000D03*
X158315000Y-115000000D03*
X159285000Y-115000000D03*
X245065000Y-115350000D03*
X246035000Y-115350000D03*
X229300000Y-109100000D03*
X230270000Y-109100000D03*
X186815000Y-98600000D03*
X187785000Y-98600000D03*
X200050000Y-106850000D03*
X201020000Y-106850000D03*
X200315000Y-114850000D03*
X201285000Y-114850000D03*
X144065000Y-113600000D03*
X145035000Y-113600000D03*
D23*
X136035000Y-112850000D03*
X135065000Y-112850000D03*
D13*
X144050000Y-111850000D03*
X145020000Y-111850000D03*
X173315000Y-109850000D03*
X174285000Y-109850000D03*
X169565000Y-100850000D03*
X170535000Y-100850000D03*
X221550000Y-116850000D03*
X222520000Y-116850000D03*
X161565000Y-107100000D03*
X162535000Y-107100000D03*
X206315000Y-105600000D03*
X207285000Y-105600000D03*
X211300000Y-116600000D03*
X212270000Y-116600000D03*
X162315000Y-114350000D03*
X163285000Y-114350000D03*
X182565000Y-107100000D03*
X183535000Y-107100000D03*
X208115000Y-78050000D03*
X209085000Y-78050000D03*
X167565000Y-105600000D03*
X168535000Y-105600000D03*
X140065000Y-106850000D03*
X141035000Y-106850000D03*
X162550000Y-112600000D03*
X163520000Y-112600000D03*
X243300000Y-68100000D03*
X244270000Y-68100000D03*
X184800000Y-123100000D03*
X185770000Y-123100000D03*
X194050000Y-96600000D03*
X195020000Y-96600000D03*
X226815000Y-72350000D03*
X227785000Y-72350000D03*
X195050000Y-106100000D03*
X196020000Y-106100000D03*
D23*
X121265000Y-77250000D03*
X122235000Y-77250000D03*
D13*
X230330000Y-110350000D03*
X231300000Y-110350000D03*
D23*
X131785000Y-116100000D03*
X130815000Y-116100000D03*
D25*
X161880000Y-78725000D03*
X160920000Y-78725000D03*
D13*
X226065000Y-106850000D03*
X227035000Y-106850000D03*
X168050000Y-112850000D03*
X169020000Y-112850000D03*
X184080000Y-113350000D03*
X185050000Y-113350000D03*
D26*
X231600000Y-65087500D03*
X231600000Y-63437500D03*
D13*
X167565000Y-123350000D03*
X168535000Y-123350000D03*
X154065000Y-111100000D03*
X155035000Y-111100000D03*
X168050000Y-121350000D03*
X169020000Y-121350000D03*
X187050000Y-107350000D03*
X188020000Y-107350000D03*
X198665000Y-77250000D03*
X199635000Y-77250000D03*
X143815000Y-110100000D03*
X144785000Y-110100000D03*
X246065000Y-118350000D03*
X247035000Y-118350000D03*
X236315000Y-108350000D03*
X237285000Y-108350000D03*
X226065000Y-104850000D03*
X227035000Y-104850000D03*
X174982500Y-80450000D03*
X175952500Y-80450000D03*
X185080000Y-115600000D03*
X186050000Y-115600000D03*
X224300000Y-113850000D03*
X225270000Y-113850000D03*
X154065000Y-108850000D03*
X155035000Y-108850000D03*
X236550000Y-106350000D03*
X237520000Y-106350000D03*
D25*
X161880000Y-80350000D03*
X160920000Y-80350000D03*
D23*
X169035000Y-115100000D03*
X168065000Y-115100000D03*
D13*
X242565000Y-115100000D03*
X243535000Y-115100000D03*
X177800000Y-94100000D03*
X178770000Y-94100000D03*
X250830000Y-72350000D03*
X251800000Y-72350000D03*
D23*
X136800000Y-109100000D03*
X135830000Y-109100000D03*
D13*
X168050000Y-110350000D03*
X169020000Y-110350000D03*
X212065000Y-108600000D03*
X213035000Y-108600000D03*
X192065000Y-92100000D03*
X193035000Y-92100000D03*
X182565000Y-124100000D03*
X183535000Y-124100000D03*
X167315000Y-107850000D03*
X168285000Y-107850000D03*
X159330000Y-105850000D03*
X160300000Y-105850000D03*
X181565000Y-112600000D03*
X182535000Y-112600000D03*
D24*
X157750000Y-88100000D03*
X157750000Y-89750000D03*
D13*
X154815000Y-112600000D03*
X155785000Y-112600000D03*
X169565000Y-104600000D03*
X170535000Y-104600000D03*
X200300000Y-111100000D03*
X201270000Y-111100000D03*
X226330000Y-109350000D03*
X227300000Y-109350000D03*
X154565000Y-107100000D03*
X155535000Y-107100000D03*
X215880000Y-85300000D03*
X216850000Y-85300000D03*
X178550000Y-109850000D03*
X179520000Y-109850000D03*
X234330000Y-95100000D03*
X235300000Y-95100000D03*
X174815000Y-108350000D03*
X175785000Y-108350000D03*
X228065000Y-107600000D03*
X229035000Y-107600000D03*
D23*
X143685000Y-83450000D03*
X142715000Y-83450000D03*
D13*
X179815000Y-107850000D03*
X180785000Y-107850000D03*
X144815000Y-106600000D03*
X145785000Y-106600000D03*
X223315000Y-115350000D03*
X224285000Y-115350000D03*
D26*
X228750000Y-65087500D03*
X228750000Y-63437500D03*
D23*
X134785000Y-116600000D03*
X133815000Y-116600000D03*
D26*
X225900000Y-65087500D03*
X225900000Y-63437500D03*
D13*
X189815000Y-86850000D03*
X190785000Y-86850000D03*
X202080000Y-107850000D03*
X203050000Y-107850000D03*
X212565000Y-106100000D03*
X213535000Y-106100000D03*
X197565000Y-106600000D03*
X198535000Y-106600000D03*
X149550000Y-106600000D03*
X150520000Y-106600000D03*
X168080000Y-117100000D03*
X169050000Y-117100000D03*
X185065000Y-100350000D03*
X186035000Y-100350000D03*
X185065000Y-111350000D03*
X186035000Y-111350000D03*
X237830000Y-112350000D03*
X238800000Y-112350000D03*
D23*
X132785000Y-107350000D03*
X131815000Y-107350000D03*
D13*
X137550000Y-107100000D03*
X138520000Y-107100000D03*
X210815000Y-119600000D03*
X211785000Y-119600000D03*
X165080000Y-123600000D03*
X166050000Y-123600000D03*
X189815000Y-107100000D03*
X190785000Y-107100000D03*
X211565000Y-112600000D03*
X212535000Y-112600000D03*
X168630000Y-75750000D03*
X169600000Y-75750000D03*
X142565000Y-106850000D03*
X143535000Y-106850000D03*
M02*
